G04*
G04 #@! TF.GenerationSoftware,Altium Limited,Altium Designer,20.0.1 (14)*
G04*
G04 Layer_Physical_Order=2*
G04 Layer_Color=16711680*
%FSLAX44Y44*%
%MOMM*%
G71*
G01*
G75*
%ADD10C,0.2540*%
%ADD116C,1.2700*%
%ADD118C,0.2032*%
%ADD119C,0.3810*%
%ADD120C,0.7620*%
%ADD122C,0.5080*%
%ADD125C,5.0000*%
%ADD126R,1.9500X1.9500*%
%ADD127C,1.9500*%
%ADD128C,3.0000*%
%ADD129R,3.0000X3.0000*%
%ADD130R,1.9500X1.9500*%
%ADD131C,1.5000*%
%ADD132R,1.5000X1.5000*%
%ADD133C,1.6000*%
%ADD134R,1.6000X1.6000*%
%ADD135C,2.1000*%
%ADD136C,3.2900*%
%ADD137C,1.7700*%
%ADD138C,0.5080*%
%ADD139C,1.0160*%
%ADD140R,2.1000X1.5000*%
%ADD141R,2.1000X2.3500*%
G36*
X2320290Y2151751D02*
Y661670D01*
X2302510Y643890D01*
X264160D01*
Y1323235D01*
X409809D01*
Y1312141D01*
X409393Y1311863D01*
X408551Y1310603D01*
X408255Y1309116D01*
X408551Y1307629D01*
X409393Y1306369D01*
X410653Y1305527D01*
X412140Y1305231D01*
X413627Y1305527D01*
X414887Y1306369D01*
X415729Y1307629D01*
X416025Y1309116D01*
X415729Y1310603D01*
X414887Y1311863D01*
X414471Y1312141D01*
Y1323235D01*
X486410D01*
X487382Y1323638D01*
X497542Y1333798D01*
X497945Y1334770D01*
X497945Y1334770D01*
Y1409824D01*
X497840Y1410077D01*
Y1410350D01*
X497647Y1410544D01*
X497542Y1410796D01*
X497317Y1411551D01*
X497347Y1412261D01*
X603411Y1518325D01*
X1164133D01*
X1164659Y1517055D01*
X1147197Y1499593D01*
X1146706Y1499691D01*
X1145219Y1499395D01*
X1143959Y1498553D01*
X1143117Y1497293D01*
X1142821Y1495806D01*
X1143117Y1494319D01*
X1143959Y1493059D01*
X1145219Y1492217D01*
X1146706Y1491921D01*
X1148192Y1492217D01*
X1149453Y1493059D01*
X1150295Y1494319D01*
X1150591Y1495806D01*
X1150493Y1496297D01*
X1167137Y1512940D01*
X1168183Y1512241D01*
X1169670Y1511945D01*
X1171157Y1512241D01*
X1172417Y1513083D01*
X1173259Y1514343D01*
X1173555Y1515830D01*
X1173311Y1517055D01*
X1173996Y1518325D01*
X1188084D01*
X1199551Y1506858D01*
X1200307Y1506353D01*
X1201199Y1506175D01*
X1273759D01*
X1274751Y1505204D01*
X1275047Y1503717D01*
X1275381Y1503217D01*
X1274703Y1501947D01*
X1191290D01*
X1191182Y1502109D01*
X1189922Y1502951D01*
X1188435Y1503247D01*
X1186948Y1502951D01*
X1185688Y1502109D01*
X1184846Y1500849D01*
X1184550Y1499362D01*
X1184846Y1497875D01*
X1185688Y1496615D01*
X1186948Y1495773D01*
X1188435Y1495477D01*
X1189922Y1495773D01*
X1191182Y1496615D01*
X1191630Y1497285D01*
X1282692D01*
X1283377Y1496015D01*
X1283133Y1494790D01*
X1283429Y1493303D01*
X1284271Y1492043D01*
X1284687Y1491765D01*
Y1452802D01*
X1284865Y1451910D01*
X1285370Y1451154D01*
X1383402Y1353121D01*
X1382536Y1351029D01*
X1382234Y1348740D01*
X1382536Y1346451D01*
X1383419Y1344317D01*
X1384825Y1342485D01*
X1386657Y1341079D01*
X1388790Y1340196D01*
X1391080Y1339894D01*
X1393369Y1340196D01*
X1395503Y1341079D01*
X1397335Y1342485D01*
X1398740Y1344317D01*
X1399624Y1346451D01*
X1399925Y1348740D01*
X1399624Y1351029D01*
X1398740Y1353163D01*
X1397335Y1354995D01*
X1395503Y1356401D01*
X1393369Y1357284D01*
X1391080Y1357586D01*
X1388790Y1357284D01*
X1386698Y1356418D01*
X1315594Y1427522D01*
X1316012Y1428900D01*
X1316366Y1428971D01*
X1317627Y1429813D01*
X1317732Y1429970D01*
X1332058D01*
X1332309Y1428709D01*
X1333151Y1427449D01*
X1334412Y1426607D01*
X1335898Y1426311D01*
X1337385Y1426607D01*
X1338645Y1427449D01*
X1339487Y1428709D01*
X1339783Y1430195D01*
X1339487Y1431682D01*
X1338645Y1432942D01*
X1337385Y1433784D01*
X1335898Y1434080D01*
X1335713Y1434043D01*
X1335365Y1434391D01*
X1334525Y1434953D01*
X1333534Y1435150D01*
X1317732D01*
X1317627Y1435307D01*
X1316366Y1436149D01*
X1314880Y1436445D01*
X1313393Y1436149D01*
X1312133Y1435307D01*
X1311291Y1434047D01*
X1311220Y1433692D01*
X1309842Y1433274D01*
X1289349Y1453767D01*
Y1491765D01*
X1289765Y1492043D01*
X1290607Y1493303D01*
X1290903Y1494790D01*
X1290791Y1495353D01*
X1291667Y1496618D01*
X1292465Y1496715D01*
X1297816Y1491364D01*
X1298572Y1490859D01*
X1299464Y1490681D01*
X1364003D01*
X1364281Y1490265D01*
X1365541Y1489423D01*
X1367028Y1489127D01*
X1368515Y1489423D01*
X1369775Y1490265D01*
X1370617Y1491525D01*
X1370913Y1493012D01*
X1370617Y1494499D01*
X1370282Y1494999D01*
X1370961Y1496269D01*
X1526337D01*
X1532405Y1490201D01*
X1532307Y1489710D01*
X1532603Y1488223D01*
X1533445Y1486963D01*
X1534705Y1486121D01*
X1536192Y1485825D01*
X1537679Y1486121D01*
X1538939Y1486963D01*
X1539781Y1488223D01*
X1540077Y1489710D01*
X1539781Y1491197D01*
X1538939Y1492457D01*
X1537679Y1493299D01*
X1536192Y1493595D01*
X1535701Y1493497D01*
X1528950Y1500248D01*
X1528823Y1500333D01*
X1529208Y1501603D01*
X1546149D01*
X1573660Y1474092D01*
X1574416Y1473587D01*
X1575308Y1473409D01*
X2097437D01*
X2116821Y1454026D01*
X2117577Y1453521D01*
X2118469Y1453343D01*
X2152927D01*
X2153205Y1452927D01*
X2154465Y1452085D01*
X2155952Y1451789D01*
X2157439Y1452085D01*
X2158699Y1452927D01*
X2159541Y1454187D01*
X2159837Y1455674D01*
X2159541Y1457161D01*
X2158699Y1458421D01*
X2157439Y1459263D01*
X2155952Y1459559D01*
X2154465Y1459263D01*
X2153205Y1458421D01*
X2152927Y1458005D01*
X2119434D01*
X2100051Y1477388D01*
X2099295Y1477893D01*
X2098403Y1478071D01*
X1576273D01*
X1548762Y1505582D01*
X1548006Y1506087D01*
X1547114Y1506265D01*
X1425878D01*
X1425613Y1506634D01*
X1425315Y1507535D01*
X1425989Y1508543D01*
X1426285Y1510030D01*
X1425989Y1511517D01*
X1425315Y1512525D01*
X1425613Y1513426D01*
X1425878Y1513795D01*
X1555039D01*
X1579248Y1489586D01*
X1580004Y1489081D01*
X1580896Y1488903D01*
X2084238D01*
X2084516Y1488487D01*
X2085777Y1487645D01*
X2087263Y1487349D01*
X2088750Y1487645D01*
X2090010Y1488487D01*
X2090852Y1489747D01*
X2091148Y1491234D01*
X2090904Y1492459D01*
X2091589Y1493729D01*
X2110103D01*
X2114214Y1489618D01*
Y1483615D01*
X2114392Y1482723D01*
X2114897Y1481966D01*
X2118393Y1478470D01*
X2119149Y1477965D01*
X2120041Y1477788D01*
X2138815D01*
Y1474544D01*
X2138992Y1473652D01*
X2139498Y1472896D01*
X2143021Y1469373D01*
X2142923Y1468882D01*
X2143219Y1467395D01*
X2144061Y1466135D01*
X2145321Y1465293D01*
X2146808Y1464997D01*
X2148295Y1465293D01*
X2149555Y1466135D01*
X2150397Y1467395D01*
X2150693Y1468882D01*
X2150397Y1470369D01*
X2149555Y1471629D01*
X2148295Y1472471D01*
X2146808Y1472767D01*
X2146317Y1472669D01*
X2143477Y1475510D01*
Y1478779D01*
X2143299Y1479671D01*
X2142794Y1480428D01*
X2141455Y1481767D01*
X2140699Y1482272D01*
X2139807Y1482449D01*
X2121006D01*
X2118876Y1484580D01*
Y1490584D01*
X2118698Y1491476D01*
X2118193Y1492232D01*
X2112717Y1497708D01*
X2111961Y1498213D01*
X2111069Y1498391D01*
X1634947D01*
X1609976Y1523362D01*
X1609220Y1523867D01*
X1608328Y1524045D01*
X1420317D01*
X1376688Y1567674D01*
X1377174Y1568847D01*
X1507607D01*
X1521585Y1554868D01*
X1522341Y1554363D01*
X1523233Y1554186D01*
X2144568D01*
X2146577Y1552177D01*
X2146479Y1551686D01*
X2146775Y1550199D01*
X2147617Y1548939D01*
X2148877Y1548097D01*
X2150364Y1547801D01*
X2151589Y1548045D01*
X2152859Y1547360D01*
Y1523696D01*
X2147875Y1518711D01*
X2117974D01*
X2117696Y1519127D01*
X2116436Y1519969D01*
X2114949Y1520265D01*
X2113463Y1519969D01*
X2112202Y1519127D01*
X2111360Y1517867D01*
X2111065Y1516380D01*
X2111360Y1514893D01*
X2112202Y1513633D01*
X2113463Y1512791D01*
X2114949Y1512495D01*
X2116436Y1512791D01*
X2117696Y1513633D01*
X2117974Y1514049D01*
X2148840D01*
X2149732Y1514227D01*
X2150488Y1514732D01*
X2156838Y1521082D01*
X2157343Y1521838D01*
X2157521Y1522730D01*
Y1555496D01*
X2157343Y1556388D01*
X2156838Y1557144D01*
X2135248Y1578734D01*
X2134492Y1579239D01*
X2133600Y1579417D01*
X1790983D01*
X1790497Y1580590D01*
X2178829Y1968923D01*
X2179320Y1968825D01*
X2180807Y1969121D01*
X2182067Y1969963D01*
X2182909Y1971223D01*
X2183205Y1972710D01*
X2182909Y1974196D01*
X2182067Y1975457D01*
X2180807Y1976299D01*
X2179320Y1976594D01*
X2177833Y1976299D01*
X2176573Y1975457D01*
X2175731Y1974196D01*
X2175435Y1972710D01*
X2175533Y1972219D01*
X1786033Y1582719D01*
X1336360D01*
X1335468Y1582541D01*
X1334712Y1582036D01*
X1333702Y1581026D01*
X1333390Y1581169D01*
X1332654Y1581775D01*
X1332783Y1582420D01*
Y1705407D01*
X1600109Y1972733D01*
X1600600Y1972635D01*
X1602086Y1972931D01*
X1603347Y1973773D01*
X1604189Y1975033D01*
X1604484Y1976520D01*
X1604189Y1978006D01*
X1603347Y1979267D01*
X1602086Y1980109D01*
X1600600Y1980404D01*
X1599113Y1980109D01*
X1597853Y1979267D01*
X1597011Y1978006D01*
X1596715Y1976520D01*
X1596813Y1976029D01*
X1329227Y1708443D01*
X1327957Y1708969D01*
Y1973495D01*
X1328373Y1973773D01*
X1329215Y1975033D01*
X1329511Y1976520D01*
X1329215Y1978006D01*
X1328373Y1979267D01*
X1327113Y1980109D01*
X1325626Y1980404D01*
X1324139Y1980109D01*
X1322879Y1979267D01*
X1322037Y1978006D01*
X1321741Y1976520D01*
X1322037Y1975033D01*
X1322879Y1973773D01*
X1323295Y1973495D01*
Y1767689D01*
X1323220Y1766450D01*
X1322025Y1766450D01*
X1305680D01*
Y1748910D01*
X1311213D01*
Y1629645D01*
X1310861Y1629119D01*
X1310565Y1627632D01*
X1310861Y1626145D01*
X1311703Y1624885D01*
X1312963Y1624043D01*
X1314450Y1623747D01*
X1315937Y1624043D01*
X1317197Y1624885D01*
X1318039Y1626145D01*
X1318335Y1627632D01*
X1318039Y1629119D01*
X1317687Y1629645D01*
Y1748910D01*
X1323220Y1748910D01*
X1323295Y1747671D01*
Y1588935D01*
X1322879Y1588657D01*
X1322037Y1587397D01*
X1321741Y1585910D01*
X1321909Y1585067D01*
X1320739Y1584442D01*
X1309840Y1595340D01*
X1309084Y1595845D01*
X1308192Y1596022D01*
X1298907D01*
X1298629Y1596439D01*
X1297368Y1597281D01*
X1295882Y1597576D01*
X1295267Y1598749D01*
X1308224Y1611706D01*
X1308729Y1612462D01*
X1308907Y1613354D01*
Y1653540D01*
X1308729Y1654432D01*
X1308224Y1655188D01*
X1305176Y1658236D01*
X1304420Y1658741D01*
X1303528Y1658919D01*
X1275467D01*
X1274527Y1660027D01*
X1274491Y1660323D01*
X1275635Y1661466D01*
X1275688Y1661461D01*
X1276948Y1660619D01*
X1278435Y1660323D01*
X1279921Y1660619D01*
X1281182Y1661461D01*
X1282024Y1662721D01*
X1282319Y1664208D01*
X1282024Y1665695D01*
X1281182Y1666955D01*
X1279921Y1667797D01*
X1278435Y1668093D01*
X1276948Y1667797D01*
X1275688Y1666955D01*
X1275410Y1666539D01*
X1275080D01*
X1274188Y1666361D01*
X1273432Y1665856D01*
X1266320Y1658744D01*
X1265815Y1657988D01*
X1265637Y1657096D01*
Y1645412D01*
X1265815Y1644520D01*
X1266320Y1643764D01*
X1290673Y1619410D01*
X1290572Y1618247D01*
X1289509Y1617558D01*
X1288288Y1617801D01*
X1287797Y1617703D01*
X1240581Y1664919D01*
Y1749153D01*
X1242673Y1750019D01*
X1244505Y1751425D01*
X1245911Y1753257D01*
X1246794Y1755391D01*
X1247096Y1757680D01*
X1246794Y1759969D01*
X1245911Y1762103D01*
X1244505Y1763935D01*
X1242673Y1765341D01*
X1240539Y1766224D01*
X1238250Y1766526D01*
X1235961Y1766224D01*
X1233827Y1765341D01*
X1231995Y1763935D01*
X1230589Y1762103D01*
X1229706Y1759969D01*
X1229404Y1757680D01*
X1229706Y1755391D01*
X1230589Y1753257D01*
X1231995Y1751425D01*
X1233827Y1750019D01*
X1235919Y1749153D01*
Y1663954D01*
X1236097Y1663062D01*
X1236602Y1662306D01*
X1284501Y1614407D01*
X1284403Y1613916D01*
X1284699Y1612429D01*
X1285541Y1611169D01*
X1286801Y1610327D01*
X1288288Y1610031D01*
X1288497Y1610073D01*
X1289122Y1608902D01*
X1257684Y1577464D01*
X1257179Y1576708D01*
X1257001Y1575816D01*
Y1554791D01*
X1255731Y1554265D01*
X1252222Y1557774D01*
X1252319Y1558265D01*
X1252024Y1559752D01*
X1251182Y1561012D01*
X1249921Y1561854D01*
X1248435Y1562150D01*
X1246948Y1561854D01*
X1245688Y1561012D01*
X1244846Y1559752D01*
X1244550Y1558265D01*
X1244846Y1556779D01*
X1245688Y1555518D01*
X1246948Y1554676D01*
X1248435Y1554380D01*
X1248926Y1554478D01*
X1301118Y1502286D01*
X1301245Y1502201D01*
X1300860Y1500931D01*
X1299512D01*
X1285462Y1514980D01*
X1284706Y1515485D01*
X1283814Y1515663D01*
X1206223D01*
X1205945Y1516079D01*
X1204685Y1516921D01*
X1203198Y1517217D01*
X1201711Y1516921D01*
X1200451Y1516079D01*
X1199757Y1515040D01*
X1198375Y1514627D01*
X1190697Y1522304D01*
X1189941Y1522809D01*
X1189049Y1522987D01*
X602446D01*
X601554Y1522809D01*
X600798Y1522304D01*
X499118Y1420624D01*
X497945Y1421110D01*
Y1438810D01*
X499215Y1439207D01*
X501414Y1437519D01*
X504278Y1436333D01*
X507350Y1435928D01*
X510423Y1436333D01*
X513286Y1437519D01*
X515745Y1439406D01*
X517631Y1441864D01*
X518817Y1444727D01*
X519222Y1447800D01*
X518817Y1450873D01*
X517631Y1453736D01*
X515745Y1456194D01*
X513286Y1458081D01*
X510423Y1459267D01*
X507350Y1459672D01*
X504278Y1459267D01*
X501414Y1458081D01*
X499215Y1456393D01*
X497945Y1456790D01*
Y1548025D01*
X648648D01*
X649620Y1548428D01*
X650023Y1549400D01*
X650023Y1628519D01*
X730924Y1709420D01*
X731327Y1710392D01*
X731327Y1710392D01*
X731327Y1809645D01*
X853440D01*
X854412Y1810048D01*
X854815Y1811020D01*
Y1884680D01*
X854412Y1885652D01*
X854412Y1885652D01*
X854010Y1886054D01*
X853038Y1886457D01*
X853037Y1886457D01*
X650717D01*
X649745Y1886054D01*
X649343Y1885082D01*
Y1702847D01*
X626811Y1680315D01*
X481941Y1680314D01*
X481922Y1680307D01*
X481902Y1680314D01*
X481439Y1680106D01*
X480969Y1679912D01*
X480961Y1679892D01*
X480942Y1679884D01*
X480070Y1678961D01*
X480062Y1678941D01*
X480043Y1678932D01*
X479876Y1678452D01*
X479695Y1677977D01*
X479704Y1677958D01*
X479697Y1677938D01*
X482907Y1621654D01*
X483120Y1621213D01*
X483307Y1620760D01*
X494605Y1609463D01*
X495577Y1609060D01*
X495577Y1609060D01*
X535826D01*
X535956Y1609114D01*
X536094Y1609086D01*
X536428Y1609309D01*
X536798Y1609463D01*
X536852Y1609593D01*
X536969Y1609671D01*
X537281Y1610137D01*
X538926Y1611237D01*
X540868Y1611623D01*
X542809Y1611237D01*
X544455Y1610137D01*
X545554Y1608491D01*
X545940Y1606550D01*
X545554Y1604609D01*
X544455Y1602963D01*
X542809Y1601863D01*
X540868Y1601477D01*
X538926Y1601863D01*
X537281Y1602963D01*
X536969Y1603429D01*
X536852Y1603507D01*
X536798Y1603637D01*
X536428Y1603791D01*
X536094Y1604014D01*
X535956Y1603986D01*
X535826Y1604040D01*
X494103D01*
X493017Y1604256D01*
X492097Y1604871D01*
X487177Y1609792D01*
X486973Y1609876D01*
X486876Y1609933D01*
X486694Y1610104D01*
X486093Y1610414D01*
X485739Y1611114D01*
X485559Y1611277D01*
X485466Y1611502D01*
X469126Y1627842D01*
X468154Y1628245D01*
X468154Y1628245D01*
X266761D01*
X264514Y1630492D01*
X264265Y1630595D01*
X264160Y1630701D01*
Y2147570D01*
X2319391Y2152648D01*
X2320290Y2151751D01*
D02*
G37*
G36*
X853440Y1884680D02*
Y1811020D01*
X729952D01*
X729952Y1710392D01*
X648648Y1629088D01*
X648648Y1549400D01*
X488405D01*
X485045Y1608300D01*
X486204Y1608819D01*
X491221Y1603803D01*
X492481Y1602961D01*
X493968Y1602665D01*
X535826D01*
X536289Y1601972D01*
X538390Y1600568D01*
X540868Y1600076D01*
X543345Y1600568D01*
X545446Y1601972D01*
X546849Y1604072D01*
X547342Y1606550D01*
X546849Y1609028D01*
X545446Y1611128D01*
X543345Y1612532D01*
X540868Y1613024D01*
X538390Y1612532D01*
X536289Y1611128D01*
X535826Y1610435D01*
X495577D01*
X484279Y1621732D01*
X481069Y1678017D01*
X481941Y1678940D01*
X627380Y1678940D01*
X650717Y1702278D01*
Y1885082D01*
X853038D01*
X853440Y1884680D01*
D02*
G37*
G36*
X1415926Y1514478D02*
X1416682Y1513973D01*
X1417574Y1513795D01*
X1417767D01*
X1417810Y1513768D01*
X1418354Y1512525D01*
X1418202Y1512361D01*
X1401295D01*
X1401017Y1512777D01*
X1399757Y1513619D01*
X1398270Y1513915D01*
X1396783Y1513619D01*
X1395523Y1512777D01*
X1394681Y1511517D01*
X1394385Y1510030D01*
X1394681Y1508543D01*
X1395355Y1507535D01*
X1395057Y1506634D01*
X1394792Y1506265D01*
X1340420D01*
X1340155Y1506634D01*
X1339857Y1507535D01*
X1340531Y1508543D01*
X1340827Y1510030D01*
X1340531Y1511517D01*
X1339689Y1512777D01*
X1338429Y1513619D01*
X1336942Y1513915D01*
X1335456Y1513619D01*
X1334196Y1512777D01*
X1333918Y1512361D01*
X1328087D01*
X1327809Y1512777D01*
X1326549Y1513619D01*
X1325063Y1513915D01*
X1323576Y1513619D01*
X1322316Y1512777D01*
X1321474Y1511517D01*
X1321178Y1510030D01*
X1321474Y1508543D01*
X1322148Y1507535D01*
X1321850Y1506634D01*
X1321585Y1506265D01*
X1303731D01*
X1262673Y1547323D01*
X1263199Y1548593D01*
X1381811D01*
X1415926Y1514478D01*
D02*
G37*
G36*
X496570Y1409824D02*
Y1334770D01*
X486410Y1324610D01*
X414471D01*
Y1329384D01*
X495397Y1410311D01*
X496570Y1409824D01*
D02*
G37*
G36*
X266192Y1626870D02*
X468154D01*
X484494Y1610530D01*
X484020Y1609215D01*
X483936Y1608975D01*
X483761Y1608790D01*
X483769Y1608498D01*
X483673Y1608222D01*
X487032Y1549322D01*
X487245Y1548880D01*
X487433Y1548428D01*
X487472Y1548412D01*
X487490Y1548374D01*
X487952Y1548213D01*
X488405Y1548025D01*
X496570D01*
Y1452531D01*
X495883Y1450873D01*
X495479Y1447800D01*
X495883Y1444727D01*
X496570Y1443069D01*
Y1418076D01*
X410492Y1331998D01*
X409986Y1331242D01*
X409809Y1330350D01*
Y1324610D01*
X260897D01*
Y1470660D01*
X262367Y1629039D01*
X263542Y1629520D01*
X266192Y1626870D01*
D02*
G37*
%LPC*%
G36*
X1994700Y2115047D02*
X1991823Y2114669D01*
X1989143Y2113558D01*
X1986841Y2111792D01*
X1985074Y2109490D01*
X1983964Y2106809D01*
X1983585Y2103932D01*
X1983964Y2101055D01*
X1985074Y2098375D01*
X1986841Y2096073D01*
X1989143Y2094306D01*
X1991823Y2093196D01*
X1994700Y2092817D01*
X1997577Y2093196D01*
X2000258Y2094306D01*
X2002560Y2096073D01*
X2004326Y2098375D01*
X2005437Y2101055D01*
X2005815Y2103932D01*
X2005437Y2106809D01*
X2004326Y2109490D01*
X2002560Y2111792D01*
X2000258Y2113558D01*
X1997577Y2114669D01*
X1994700Y2115047D01*
D02*
G37*
G36*
X1768640D02*
X1765763Y2114669D01*
X1763083Y2113558D01*
X1760781Y2111792D01*
X1759014Y2109490D01*
X1757904Y2106809D01*
X1757525Y2103932D01*
X1757904Y2101055D01*
X1759014Y2098375D01*
X1760781Y2096073D01*
X1763083Y2094306D01*
X1765763Y2093196D01*
X1768640Y2092817D01*
X1771517Y2093196D01*
X1774198Y2094306D01*
X1776500Y2096073D01*
X1778266Y2098375D01*
X1779377Y2101055D01*
X1779755Y2103932D01*
X1779377Y2106809D01*
X1778266Y2109490D01*
X1776500Y2111792D01*
X1774198Y2113558D01*
X1771517Y2114669D01*
X1768640Y2115047D01*
D02*
G37*
G36*
X1542580D02*
X1539703Y2114669D01*
X1537023Y2113558D01*
X1534721Y2111792D01*
X1532954Y2109490D01*
X1531844Y2106809D01*
X1531465Y2103932D01*
X1531844Y2101055D01*
X1532954Y2098375D01*
X1534721Y2096073D01*
X1537023Y2094306D01*
X1539703Y2093196D01*
X1542580Y2092817D01*
X1545457Y2093196D01*
X1548138Y2094306D01*
X1550440Y2096073D01*
X1552206Y2098375D01*
X1553316Y2101055D01*
X1553695Y2103932D01*
X1553316Y2106809D01*
X1552206Y2109490D01*
X1550440Y2111792D01*
X1548138Y2113558D01*
X1545457Y2114669D01*
X1542580Y2115047D01*
D02*
G37*
G36*
X2220760Y2114235D02*
X2217883Y2113856D01*
X2215203Y2112746D01*
X2212901Y2110979D01*
X2211134Y2108678D01*
X2210024Y2105997D01*
X2209645Y2103120D01*
X2210024Y2100243D01*
X2211134Y2097563D01*
X2212901Y2095260D01*
X2215203Y2093494D01*
X2217883Y2092384D01*
X2220760Y2092005D01*
X2223637Y2092384D01*
X2226318Y2093494D01*
X2228620Y2095260D01*
X2230386Y2097563D01*
X2231496Y2100243D01*
X2231875Y2103120D01*
X2231496Y2105997D01*
X2230386Y2108678D01*
X2228620Y2110979D01*
X2226318Y2112746D01*
X2223637Y2113856D01*
X2220760Y2114235D01*
D02*
G37*
G36*
X1316520D02*
X1313643Y2113856D01*
X1310963Y2112746D01*
X1308661Y2110979D01*
X1306894Y2108678D01*
X1305784Y2105997D01*
X1305405Y2103120D01*
X1305784Y2100243D01*
X1306894Y2097563D01*
X1308661Y2095260D01*
X1310963Y2093494D01*
X1313643Y2092384D01*
X1316520Y2092005D01*
X1319397Y2092384D01*
X1322078Y2093494D01*
X1324380Y2095260D01*
X1326146Y2097563D01*
X1327256Y2100243D01*
X1327635Y2103120D01*
X1327256Y2105997D01*
X1326146Y2108678D01*
X1324380Y2110979D01*
X1322078Y2112746D01*
X1319397Y2113856D01*
X1316520Y2114235D01*
D02*
G37*
G36*
X1090460D02*
X1087583Y2113856D01*
X1084903Y2112746D01*
X1082601Y2110979D01*
X1080834Y2108678D01*
X1079724Y2105997D01*
X1079345Y2103120D01*
X1079724Y2100243D01*
X1080834Y2097563D01*
X1082601Y2095260D01*
X1084903Y2093494D01*
X1087583Y2092384D01*
X1090460Y2092005D01*
X1093337Y2092384D01*
X1096018Y2093494D01*
X1098320Y2095260D01*
X1100086Y2097563D01*
X1101197Y2100243D01*
X1101575Y2103120D01*
X1101197Y2105997D01*
X1100086Y2108678D01*
X1098320Y2110979D01*
X1096018Y2112746D01*
X1093337Y2113856D01*
X1090460Y2114235D01*
D02*
G37*
G36*
X320900Y2107012D02*
X298860D01*
Y2084972D01*
X320900D01*
Y2107012D01*
D02*
G37*
G36*
X482600Y2140055D02*
X481628Y2139652D01*
Y2139652D01*
X437178Y2095202D01*
X436775Y2094230D01*
X436775Y2094230D01*
Y1963525D01*
X420370D01*
X419398Y1963122D01*
X411778Y1955502D01*
X411375Y1954530D01*
X411375Y1954530D01*
X411375Y1826260D01*
X411778Y1825288D01*
X412750Y1824885D01*
X455930Y1824885D01*
X455930Y1824885D01*
X456902Y1825288D01*
X559772Y1928158D01*
X560175Y1929130D01*
X560175Y1929130D01*
Y1969201D01*
X645729Y2054755D01*
X725170D01*
X725170Y2054755D01*
X726142Y2055158D01*
X729952Y2058968D01*
X730355Y2059940D01*
X730355Y2059940D01*
Y2138680D01*
X729952Y2139652D01*
X728980Y2140055D01*
X482600D01*
X482600Y2140055D01*
D02*
G37*
G36*
X1918970Y1976594D02*
X1917483Y1976299D01*
X1916223Y1975457D01*
X1915381Y1974196D01*
X1915085Y1972710D01*
X1915183Y1972219D01*
X1542205Y1599241D01*
X1541714Y1599338D01*
X1540227Y1599043D01*
X1538967Y1598201D01*
X1538125Y1596940D01*
X1537829Y1595454D01*
X1538125Y1593967D01*
X1538967Y1592707D01*
X1540227Y1591865D01*
X1541714Y1591569D01*
X1543201Y1591865D01*
X1544461Y1592707D01*
X1545303Y1593967D01*
X1545599Y1595454D01*
X1545501Y1595945D01*
X1918479Y1968923D01*
X1918970Y1968825D01*
X1920457Y1969121D01*
X1921717Y1969963D01*
X1922559Y1971223D01*
X1922855Y1972710D01*
X1922559Y1974196D01*
X1921717Y1975457D01*
X1920457Y1976299D01*
X1918970Y1976594D01*
D02*
G37*
G36*
X609600Y1969196D02*
X606126Y1968854D01*
X602786Y1967840D01*
X599708Y1966195D01*
X597009Y1963981D01*
X594795Y1961282D01*
X593150Y1958204D01*
X592136Y1954864D01*
X591794Y1951390D01*
X592136Y1947916D01*
X593150Y1944576D01*
X594795Y1941498D01*
X597009Y1938799D01*
X599708Y1936585D01*
X602786Y1934940D01*
X606126Y1933926D01*
X609600Y1933584D01*
X613074Y1933926D01*
X616414Y1934940D01*
X619492Y1936585D01*
X622191Y1938799D01*
X624405Y1941498D01*
X626050Y1944576D01*
X627064Y1947916D01*
X627406Y1951390D01*
X627064Y1954864D01*
X626050Y1958204D01*
X624405Y1961282D01*
X622191Y1963981D01*
X619492Y1966195D01*
X616414Y1967840D01*
X613074Y1968854D01*
X609600Y1969196D01*
D02*
G37*
G36*
X320900Y1951580D02*
X298860D01*
Y1929540D01*
X320900D01*
Y1951580D01*
D02*
G37*
G36*
X609600Y1892996D02*
X606126Y1892654D01*
X602786Y1891640D01*
X599708Y1889995D01*
X597009Y1887781D01*
X594795Y1885082D01*
X593150Y1882004D01*
X592136Y1878664D01*
X591794Y1875190D01*
X592136Y1871716D01*
X593150Y1868376D01*
X594795Y1865298D01*
X597009Y1862599D01*
X599708Y1860385D01*
X602786Y1858740D01*
X606126Y1857726D01*
X609600Y1857384D01*
X613074Y1857726D01*
X616414Y1858740D01*
X619492Y1860385D01*
X622191Y1862599D01*
X624405Y1865298D01*
X626050Y1868376D01*
X627064Y1871716D01*
X627406Y1875190D01*
X627064Y1878664D01*
X626050Y1882004D01*
X624405Y1885082D01*
X622191Y1887781D01*
X619492Y1889995D01*
X616414Y1891640D01*
X613074Y1892654D01*
X609600Y1892996D01*
D02*
G37*
G36*
X1136015Y1837789D02*
X1108710D01*
X1106728Y1837395D01*
X1105048Y1836272D01*
X1103925Y1834592D01*
X1103531Y1832610D01*
X1103925Y1830628D01*
X1105048Y1828947D01*
X1106728Y1827825D01*
X1108710Y1827431D01*
X1133870D01*
X1153942Y1807357D01*
X1155623Y1806235D01*
X1157605Y1805840D01*
X1159587Y1806235D01*
X1161267Y1807357D01*
X1162390Y1809038D01*
X1162785Y1811020D01*
X1162390Y1813002D01*
X1161267Y1814682D01*
X1139678Y1836272D01*
X1137997Y1837395D01*
X1136015Y1837789D01*
D02*
G37*
G36*
X1187450Y1766526D02*
X1185161Y1766224D01*
X1183027Y1765341D01*
X1181195Y1763935D01*
X1179789Y1762103D01*
X1178906Y1759969D01*
X1178604Y1757680D01*
X1178906Y1755391D01*
X1179789Y1753257D01*
X1181195Y1751425D01*
X1183027Y1750019D01*
X1185161Y1749136D01*
X1187450Y1748834D01*
X1189739Y1749136D01*
X1191873Y1750019D01*
X1193705Y1751425D01*
X1195111Y1753257D01*
X1195994Y1755391D01*
X1196296Y1757680D01*
X1195994Y1759969D01*
X1195111Y1762103D01*
X1193705Y1763935D01*
X1191873Y1765341D01*
X1189739Y1766224D01*
X1187450Y1766526D01*
D02*
G37*
G36*
X1505966Y1751151D02*
X1504479Y1750855D01*
X1503219Y1750013D01*
X1502377Y1748753D01*
X1502081Y1747266D01*
X1502179Y1746775D01*
X1349485Y1594081D01*
X1348994Y1594179D01*
X1347507Y1593883D01*
X1346247Y1593041D01*
X1345405Y1591781D01*
X1345109Y1590294D01*
X1345405Y1588807D01*
X1346247Y1587547D01*
X1347507Y1586705D01*
X1348994Y1586409D01*
X1350481Y1586705D01*
X1351741Y1587547D01*
X1352583Y1588807D01*
X1352879Y1590294D01*
X1352781Y1590785D01*
X1505475Y1743479D01*
X1505966Y1743381D01*
X1507453Y1743677D01*
X1508713Y1744519D01*
X1509555Y1745779D01*
X1509851Y1747266D01*
X1509555Y1748753D01*
X1508713Y1750013D01*
X1507453Y1750855D01*
X1505966Y1751151D01*
D02*
G37*
G36*
X571500Y1732997D02*
X568858Y1732650D01*
X566396Y1731630D01*
X564282Y1730008D01*
X562660Y1727894D01*
X561641Y1725432D01*
X561293Y1722790D01*
X561641Y1720148D01*
X562660Y1717686D01*
X564282Y1715572D01*
X566396Y1713950D01*
X568858Y1712930D01*
X571500Y1712583D01*
X574142Y1712930D01*
X576604Y1713950D01*
X578718Y1715572D01*
X580340Y1717686D01*
X581359Y1720148D01*
X581707Y1722790D01*
X581359Y1725432D01*
X580340Y1727894D01*
X578718Y1730008D01*
X576604Y1731630D01*
X574142Y1732650D01*
X571500Y1732997D01*
D02*
G37*
G36*
X1162616Y1671395D02*
X1161129Y1671099D01*
X1160239Y1670504D01*
X1154695D01*
X1153456Y1670258D01*
X1152668Y1669731D01*
X1126725D01*
X1126199Y1670083D01*
X1124712Y1670379D01*
X1123225Y1670083D01*
X1121965Y1669241D01*
X1121123Y1667981D01*
X1120827Y1666494D01*
X1121123Y1665007D01*
X1121965Y1663747D01*
X1123225Y1662905D01*
X1124712Y1662609D01*
X1126199Y1662905D01*
X1126725Y1663257D01*
X1144447D01*
X1144933Y1662083D01*
X1142104Y1659254D01*
X1141483Y1659131D01*
X1140223Y1658289D01*
X1139381Y1657029D01*
X1139085Y1655542D01*
X1139381Y1654055D01*
X1140223Y1652795D01*
X1141483Y1651953D01*
X1142970Y1651657D01*
X1144457Y1651953D01*
X1145717Y1652795D01*
X1146559Y1654055D01*
X1146683Y1654676D01*
X1156036Y1664030D01*
X1160967D01*
X1161129Y1663921D01*
X1162616Y1663625D01*
X1164102Y1663921D01*
X1165363Y1664763D01*
X1166205Y1666023D01*
X1166501Y1667510D01*
X1166205Y1668997D01*
X1165363Y1670257D01*
X1164102Y1671099D01*
X1162616Y1671395D01*
D02*
G37*
G36*
X1289050Y1766526D02*
X1286761Y1766224D01*
X1284627Y1765341D01*
X1282795Y1763935D01*
X1281389Y1762103D01*
X1280506Y1759969D01*
X1280204Y1757680D01*
X1280506Y1755391D01*
X1281389Y1753257D01*
X1282795Y1751425D01*
X1284627Y1750019D01*
X1286719Y1749153D01*
Y1673583D01*
X1286303Y1673305D01*
X1285461Y1672045D01*
X1285165Y1670558D01*
X1285461Y1669071D01*
X1286303Y1667811D01*
X1287563Y1666969D01*
X1289050Y1666673D01*
X1290537Y1666969D01*
X1291797Y1667811D01*
X1292639Y1669071D01*
X1292935Y1670558D01*
X1292639Y1672045D01*
X1291797Y1673305D01*
X1291381Y1673583D01*
Y1749153D01*
X1293473Y1750019D01*
X1295305Y1751425D01*
X1296711Y1753257D01*
X1297594Y1755391D01*
X1297896Y1757680D01*
X1297594Y1759969D01*
X1296711Y1762103D01*
X1295305Y1763935D01*
X1293473Y1765341D01*
X1291339Y1766224D01*
X1289050Y1766526D01*
D02*
G37*
G36*
X1386172Y1710765D02*
X1384686Y1710469D01*
X1383426Y1709627D01*
X1382583Y1708367D01*
X1382460Y1707746D01*
X1375661Y1700947D01*
X1374959Y1699896D01*
X1374713Y1698658D01*
Y1653670D01*
X1374361Y1653144D01*
X1374065Y1651657D01*
X1374361Y1650171D01*
X1375203Y1648911D01*
X1376463Y1648068D01*
X1377950Y1647773D01*
X1379437Y1648068D01*
X1380697Y1648911D01*
X1381539Y1650171D01*
X1381835Y1651657D01*
X1381539Y1653144D01*
X1381187Y1653670D01*
Y1697317D01*
X1387038Y1703168D01*
X1387659Y1703291D01*
X1388919Y1704133D01*
X1389761Y1705393D01*
X1390057Y1706880D01*
X1389761Y1708367D01*
X1388919Y1709627D01*
X1387659Y1710469D01*
X1386172Y1710765D01*
D02*
G37*
G36*
X2014220Y1668904D02*
X2011742Y1668412D01*
X2009642Y1667008D01*
X2008238Y1664908D01*
X2007746Y1662430D01*
X2008238Y1659952D01*
X2009041Y1658752D01*
Y1651000D01*
X2009435Y1649018D01*
X2010311Y1647707D01*
Y1601338D01*
X2009508Y1600138D01*
X2009016Y1597660D01*
X2009508Y1595182D01*
X2010912Y1593082D01*
X2013012Y1591678D01*
X2015490Y1591186D01*
X2017968Y1591678D01*
X2020068Y1593082D01*
X2021472Y1595182D01*
X2021964Y1597660D01*
X2021472Y1600138D01*
X2020670Y1601338D01*
Y1649730D01*
X2020670Y1649730D01*
X2020275Y1651712D01*
X2019400Y1653023D01*
Y1658752D01*
X2020202Y1659952D01*
X2020694Y1662430D01*
X2020202Y1664908D01*
X2018798Y1667008D01*
X2016698Y1668412D01*
X2014220Y1668904D01*
D02*
G37*
G36*
X899960Y1617096D02*
X896771Y1616782D01*
X893704Y1615852D01*
X890877Y1614341D01*
X888400Y1612308D01*
X886367Y1609830D01*
X884856Y1607004D01*
X883925Y1603937D01*
X883611Y1600748D01*
X883925Y1597558D01*
X884856Y1594491D01*
X886367Y1591665D01*
X888400Y1589187D01*
X890877Y1587154D01*
X893704Y1585643D01*
X896771Y1584713D01*
X899960Y1584399D01*
X903150Y1584713D01*
X906217Y1585643D01*
X909043Y1587154D01*
X911520Y1589187D01*
X913553Y1591665D01*
X915064Y1594491D01*
X915995Y1597558D01*
X916309Y1600748D01*
X915995Y1603937D01*
X915064Y1607004D01*
X913553Y1609830D01*
X911520Y1612308D01*
X909043Y1614341D01*
X906217Y1615852D01*
X903150Y1616782D01*
X899960Y1617096D01*
D02*
G37*
G36*
X798360D02*
X795171Y1616782D01*
X792104Y1615852D01*
X789277Y1614341D01*
X786800Y1612308D01*
X784767Y1609830D01*
X783256Y1607004D01*
X782326Y1603937D01*
X782011Y1600748D01*
X782326Y1597558D01*
X783256Y1594491D01*
X784767Y1591665D01*
X786800Y1589187D01*
X789277Y1587154D01*
X792104Y1585643D01*
X795171Y1584713D01*
X798360Y1584399D01*
X801550Y1584713D01*
X804616Y1585643D01*
X807443Y1587154D01*
X809920Y1589187D01*
X811954Y1591665D01*
X813464Y1594491D01*
X814395Y1597558D01*
X814709Y1600748D01*
X814395Y1603937D01*
X813464Y1607004D01*
X811954Y1609830D01*
X809920Y1612308D01*
X807443Y1614341D01*
X804616Y1615852D01*
X801550Y1616782D01*
X798360Y1617096D01*
D02*
G37*
G36*
X696760D02*
X693571Y1616782D01*
X690504Y1615852D01*
X687677Y1614341D01*
X685200Y1612308D01*
X683167Y1609830D01*
X681656Y1607004D01*
X680725Y1603937D01*
X680411Y1600748D01*
X680725Y1597558D01*
X681656Y1594491D01*
X683167Y1591665D01*
X685200Y1589187D01*
X687677Y1587154D01*
X690504Y1585643D01*
X693571Y1584713D01*
X696760Y1584399D01*
X699950Y1584713D01*
X703017Y1585643D01*
X705843Y1587154D01*
X708320Y1589187D01*
X710353Y1591665D01*
X711864Y1594491D01*
X712795Y1597558D01*
X713109Y1600748D01*
X712795Y1603937D01*
X711864Y1607004D01*
X710353Y1609830D01*
X708320Y1612308D01*
X705843Y1614341D01*
X703017Y1615852D01*
X699950Y1616782D01*
X696760Y1617096D01*
D02*
G37*
G36*
X1212850Y1766526D02*
X1210561Y1766224D01*
X1208427Y1765341D01*
X1206595Y1763935D01*
X1205189Y1762103D01*
X1204306Y1759969D01*
X1204004Y1757680D01*
X1204306Y1755391D01*
X1205189Y1753257D01*
X1206595Y1751425D01*
X1208427Y1750019D01*
X1209613Y1749528D01*
Y1557843D01*
X1209261Y1557317D01*
X1208965Y1555830D01*
X1209261Y1554344D01*
X1210103Y1553083D01*
X1211363Y1552241D01*
X1212850Y1551946D01*
X1214337Y1552241D01*
X1215597Y1553083D01*
X1216439Y1554344D01*
X1216735Y1555830D01*
X1216439Y1557317D01*
X1216087Y1557843D01*
Y1749528D01*
X1217273Y1750019D01*
X1219105Y1751425D01*
X1220511Y1753257D01*
X1221394Y1755391D01*
X1221696Y1757680D01*
X1221394Y1759969D01*
X1220511Y1762103D01*
X1219105Y1763935D01*
X1217273Y1765341D01*
X1215139Y1766224D01*
X1212850Y1766526D01*
D02*
G37*
G36*
X2221230Y1543512D02*
X2219248Y1543118D01*
X2217567Y1541995D01*
X2216445Y1540315D01*
X2216051Y1538333D01*
X2216445Y1536351D01*
X2217567Y1534670D01*
X2218033Y1534205D01*
Y1520491D01*
X2218427Y1518509D01*
X2219550Y1516828D01*
X2220830Y1515548D01*
X2222511Y1514425D01*
X2224493Y1514031D01*
X2226475Y1514425D01*
X2228155Y1515548D01*
X2229278Y1517228D01*
X2229672Y1519210D01*
X2229278Y1521192D01*
X2228392Y1522519D01*
Y1536351D01*
X2228392Y1536351D01*
X2227997Y1538333D01*
X2226875Y1540013D01*
X2226875Y1540013D01*
X2224892Y1541995D01*
X2223212Y1543118D01*
X2221230Y1543512D01*
D02*
G37*
G36*
X2284000Y1522929D02*
X2280811Y1522615D01*
X2277744Y1521684D01*
X2274917Y1520173D01*
X2272440Y1518140D01*
X2270407Y1515663D01*
X2268896Y1512836D01*
X2267965Y1509769D01*
X2267651Y1506580D01*
X2267965Y1503391D01*
X2268896Y1500324D01*
X2270407Y1497497D01*
X2272440Y1495020D01*
X2274917Y1492986D01*
X2277744Y1491476D01*
X2280811Y1490545D01*
X2284000Y1490231D01*
X2287189Y1490545D01*
X2290256Y1491476D01*
X2293083Y1492986D01*
X2295560Y1495020D01*
X2297593Y1497497D01*
X2299104Y1500324D01*
X2300035Y1503391D01*
X2300349Y1506580D01*
X2300035Y1509769D01*
X2299104Y1512836D01*
X2297593Y1515663D01*
X2295560Y1518140D01*
X2293083Y1520173D01*
X2290256Y1521684D01*
X2287189Y1522615D01*
X2284000Y1522929D01*
D02*
G37*
G36*
X1310640Y1488769D02*
X1309153Y1488473D01*
X1307893Y1487631D01*
X1307051Y1486371D01*
X1306755Y1484884D01*
X1306923Y1484041D01*
X1305753Y1483416D01*
X1304775Y1484393D01*
X1304873Y1484884D01*
X1304577Y1486371D01*
X1303735Y1487631D01*
X1302475Y1488473D01*
X1300988Y1488769D01*
X1299501Y1488473D01*
X1298241Y1487631D01*
X1297399Y1486371D01*
X1297103Y1484884D01*
X1297399Y1483397D01*
X1298241Y1482137D01*
X1299501Y1481295D01*
X1300988Y1480999D01*
X1301479Y1481097D01*
X1642748Y1139828D01*
X1643504Y1139323D01*
X1644396Y1139145D01*
X1928419D01*
X2053829Y1013735D01*
Y1011405D01*
X2053413Y1011127D01*
X2052571Y1009867D01*
X2052275Y1008380D01*
X2052571Y1006893D01*
X2053413Y1005633D01*
X2054673Y1004791D01*
X2056160Y1004495D01*
X2057647Y1004791D01*
X2058907Y1005633D01*
X2059749Y1006893D01*
X2060045Y1008380D01*
X2059749Y1009867D01*
X2058907Y1011127D01*
X2058491Y1011405D01*
Y1014700D01*
X2058313Y1015592D01*
X2057808Y1016348D01*
X1931032Y1143124D01*
X1930276Y1143629D01*
X1929384Y1143807D01*
X1645361D01*
X1309172Y1479996D01*
X1309797Y1481167D01*
X1310640Y1480999D01*
X1311131Y1481097D01*
X1346584Y1445644D01*
X1347340Y1445139D01*
X1348232Y1444961D01*
X1770149D01*
X1770427Y1444545D01*
X1771687Y1443703D01*
X1773174Y1443407D01*
X1774661Y1443703D01*
X1775921Y1444545D01*
X1776763Y1445805D01*
X1777059Y1447292D01*
X1776763Y1448779D01*
X1775921Y1450039D01*
X1774661Y1450881D01*
X1773174Y1451177D01*
X1771687Y1450881D01*
X1770427Y1450039D01*
X1770149Y1449623D01*
X1349197D01*
X1314427Y1484393D01*
X1314525Y1484884D01*
X1314229Y1486371D01*
X1313387Y1487631D01*
X1312127Y1488473D01*
X1310640Y1488769D01*
D02*
G37*
G36*
X2221230Y1494890D02*
X2219248Y1494495D01*
X2217567Y1493372D01*
X2216445Y1491692D01*
X2216051Y1489710D01*
Y1479008D01*
X2211104Y1474061D01*
X2204733D01*
X2201932Y1476862D01*
X2200252Y1477985D01*
X2198270Y1478380D01*
X2196288Y1477985D01*
X2194607Y1476862D01*
X2193485Y1475182D01*
X2193090Y1473200D01*
X2193485Y1471218D01*
X2194607Y1469538D01*
X2198925Y1465220D01*
X2200606Y1464097D01*
X2202588Y1463703D01*
X2213249D01*
X2215231Y1464097D01*
X2216912Y1465220D01*
X2224892Y1473200D01*
X2226015Y1474881D01*
X2226409Y1476863D01*
Y1489710D01*
X2226015Y1491692D01*
X2224892Y1493372D01*
X2223212Y1494495D01*
X2221230Y1494890D01*
D02*
G37*
G36*
X1386840Y1487104D02*
X1385353Y1486809D01*
X1384093Y1485967D01*
X1383251Y1484706D01*
X1382955Y1483220D01*
X1383106Y1482461D01*
X1382915Y1482270D01*
X1382354Y1481430D01*
X1382313Y1481226D01*
X1373055Y1471968D01*
X1372870Y1472005D01*
X1371383Y1471709D01*
X1370123Y1470867D01*
X1369281Y1469607D01*
X1368985Y1468120D01*
X1369281Y1466633D01*
X1370123Y1465373D01*
X1371383Y1464531D01*
X1372870Y1464235D01*
X1374357Y1464531D01*
X1375617Y1465373D01*
X1376459Y1466633D01*
X1376755Y1468120D01*
X1376718Y1468305D01*
X1386578Y1478165D01*
X1387139Y1479005D01*
X1387180Y1479210D01*
X1387421Y1479451D01*
X1388327Y1479631D01*
X1389587Y1480473D01*
X1390429Y1481733D01*
X1390725Y1483220D01*
X1390429Y1484706D01*
X1389587Y1485967D01*
X1388327Y1486809D01*
X1386840Y1487104D01*
D02*
G37*
G36*
X1479550Y1486501D02*
X1476360Y1486187D01*
X1473294Y1485256D01*
X1470467Y1483745D01*
X1467990Y1481712D01*
X1465957Y1479235D01*
X1464446Y1476408D01*
X1463515Y1473342D01*
X1463201Y1470152D01*
X1463515Y1466962D01*
X1464446Y1463896D01*
X1465957Y1461069D01*
X1467990Y1458592D01*
X1470467Y1456559D01*
X1473294Y1455048D01*
X1476360Y1454117D01*
X1479550Y1453803D01*
X1482740Y1454117D01*
X1485806Y1455048D01*
X1488633Y1456559D01*
X1491110Y1458592D01*
X1493143Y1461069D01*
X1494654Y1463896D01*
X1495585Y1466962D01*
X1495899Y1470152D01*
X1495585Y1473342D01*
X1494654Y1476408D01*
X1493143Y1479235D01*
X1491110Y1481712D01*
X1488633Y1483745D01*
X1485806Y1485256D01*
X1482740Y1486187D01*
X1479550Y1486501D01*
D02*
G37*
G36*
X1213435Y1454380D02*
X1211949Y1454084D01*
X1210688Y1453242D01*
X1209846Y1451982D01*
X1209551Y1450495D01*
X1209648Y1450005D01*
X1117153Y1357510D01*
X1102910D01*
Y1339970D01*
X1120450D01*
Y1354214D01*
X1212944Y1446708D01*
X1213435Y1446611D01*
X1214922Y1446906D01*
X1216182Y1447749D01*
X1217024Y1449009D01*
X1217320Y1450495D01*
X1217024Y1451982D01*
X1216182Y1453242D01*
X1214922Y1454084D01*
X1213435Y1454380D01*
D02*
G37*
G36*
X1112416Y1443811D02*
X1110929Y1443515D01*
X1110403Y1443163D01*
X1090911D01*
X1090385Y1443515D01*
X1088898Y1443811D01*
X1087411Y1443515D01*
X1086151Y1442673D01*
X1085309Y1441413D01*
X1085013Y1439926D01*
X1085309Y1438439D01*
X1086151Y1437179D01*
X1087411Y1436337D01*
X1088898Y1436041D01*
X1090385Y1436337D01*
X1090911Y1436689D01*
X1110403D01*
X1110929Y1436337D01*
X1112416Y1436041D01*
X1113902Y1436337D01*
X1114429Y1436689D01*
X1172901D01*
X1174847Y1434742D01*
X1174971Y1434121D01*
X1175813Y1432861D01*
X1177073Y1432019D01*
X1178560Y1431723D01*
X1180047Y1432019D01*
X1181307Y1432861D01*
X1182149Y1434121D01*
X1182445Y1435608D01*
X1182149Y1437095D01*
X1181307Y1438355D01*
X1180047Y1439197D01*
X1179426Y1439321D01*
X1176531Y1442215D01*
X1175481Y1442917D01*
X1174242Y1443163D01*
X1114429D01*
X1113902Y1443515D01*
X1112416Y1443811D01*
D02*
G37*
G36*
X654083Y1498666D02*
X652094Y1498404D01*
X650240Y1497636D01*
X648648Y1496415D01*
X644805Y1492572D01*
X643584Y1490980D01*
X642816Y1489126D01*
X642554Y1487137D01*
Y1480194D01*
X637185Y1474825D01*
X635964Y1473233D01*
X635196Y1471379D01*
X634934Y1469390D01*
Y1414780D01*
X635196Y1412791D01*
X635964Y1410937D01*
X637185Y1409345D01*
X638777Y1408124D01*
X640631Y1407356D01*
X642620Y1407094D01*
X644609Y1407356D01*
X646463Y1408124D01*
X648055Y1409345D01*
X649276Y1410937D01*
X650044Y1412791D01*
X650306Y1414780D01*
Y1466206D01*
X655675Y1471575D01*
X656896Y1473167D01*
X657664Y1475021D01*
X657926Y1477010D01*
Y1483954D01*
X659518Y1485545D01*
X660739Y1487137D01*
X661507Y1488991D01*
X661769Y1490980D01*
X661507Y1492969D01*
X660739Y1494823D01*
X659518Y1496415D01*
X657926Y1497636D01*
X656072Y1498404D01*
X654083Y1498666D01*
D02*
G37*
G36*
X823760Y1413896D02*
X820571Y1413582D01*
X817504Y1412652D01*
X814677Y1411141D01*
X812200Y1409108D01*
X810167Y1406631D01*
X808656Y1403804D01*
X807726Y1400737D01*
X807411Y1397548D01*
X807726Y1394358D01*
X808656Y1391291D01*
X810167Y1388465D01*
X812200Y1385987D01*
X814677Y1383954D01*
X817504Y1382443D01*
X820571Y1381513D01*
X823760Y1381199D01*
X826950Y1381513D01*
X830016Y1382443D01*
X832843Y1383954D01*
X835320Y1385987D01*
X837354Y1388465D01*
X838864Y1391291D01*
X839795Y1394358D01*
X840109Y1397548D01*
X839795Y1400737D01*
X838864Y1403804D01*
X837354Y1406631D01*
X835320Y1409108D01*
X832843Y1411141D01*
X830016Y1412652D01*
X826950Y1413582D01*
X823760Y1413896D01*
D02*
G37*
G36*
X1195324Y1362531D02*
X1193837Y1362235D01*
X1192577Y1361393D01*
X1192299Y1360977D01*
X1146986D01*
X1146094Y1360799D01*
X1145338Y1360294D01*
X1141461Y1356418D01*
X1139369Y1357284D01*
X1137080Y1357586D01*
X1134790Y1357284D01*
X1132657Y1356401D01*
X1130825Y1354995D01*
X1129419Y1353163D01*
X1128536Y1351029D01*
X1128234Y1348740D01*
X1128536Y1346451D01*
X1129419Y1344317D01*
X1130825Y1342485D01*
X1132657Y1341079D01*
X1134790Y1340196D01*
X1137080Y1339894D01*
X1139369Y1340196D01*
X1141503Y1341079D01*
X1143335Y1342485D01*
X1144740Y1344317D01*
X1145624Y1346451D01*
X1145925Y1348740D01*
X1145624Y1351029D01*
X1144758Y1353121D01*
X1147951Y1356315D01*
X1155970D01*
X1156378Y1355113D01*
X1156225Y1354995D01*
X1154819Y1353163D01*
X1153935Y1351029D01*
X1153634Y1348740D01*
X1153935Y1346451D01*
X1154819Y1344317D01*
X1156225Y1342485D01*
X1158057Y1341079D01*
X1160190Y1340196D01*
X1162480Y1339894D01*
X1164769Y1340196D01*
X1166861Y1341062D01*
X1176834Y1331090D01*
X1177590Y1330585D01*
X1178482Y1330407D01*
X1197167D01*
X1197445Y1329991D01*
X1198705Y1329149D01*
X1200192Y1328853D01*
X1201678Y1329149D01*
X1202939Y1329991D01*
X1203781Y1331251D01*
X1204076Y1332738D01*
X1203781Y1334225D01*
X1202939Y1335485D01*
X1201678Y1336327D01*
X1200192Y1336623D01*
X1198705Y1336327D01*
X1197445Y1335485D01*
X1197167Y1335069D01*
X1179447D01*
X1170157Y1344359D01*
X1171024Y1346451D01*
X1171325Y1348740D01*
X1171024Y1351029D01*
X1170140Y1353163D01*
X1168735Y1354995D01*
X1168581Y1355113D01*
X1168989Y1356315D01*
X1181370D01*
X1181778Y1355113D01*
X1181625Y1354995D01*
X1180219Y1353163D01*
X1179335Y1351029D01*
X1179034Y1348740D01*
X1179335Y1346451D01*
X1180219Y1344317D01*
X1181625Y1342485D01*
X1183457Y1341079D01*
X1185590Y1340196D01*
X1187880Y1339894D01*
X1190169Y1340196D01*
X1192303Y1341079D01*
X1194135Y1342485D01*
X1195540Y1344317D01*
X1196424Y1346451D01*
X1196725Y1348740D01*
X1196424Y1351029D01*
X1195540Y1353163D01*
X1195244Y1353549D01*
X1195251Y1353661D01*
X1195836Y1354863D01*
X1196811Y1355057D01*
X1198071Y1355899D01*
X1198913Y1357159D01*
X1199209Y1358646D01*
X1198913Y1360133D01*
X1198071Y1361393D01*
X1196811Y1362235D01*
X1195324Y1362531D01*
D02*
G37*
G36*
X1275334Y1473021D02*
X1273847Y1472725D01*
X1272587Y1471883D01*
X1271745Y1470623D01*
X1271449Y1469136D01*
X1271745Y1467649D01*
X1272587Y1466389D01*
X1273003Y1466111D01*
Y1353433D01*
X1271740Y1353163D01*
X1270335Y1354995D01*
X1268503Y1356401D01*
X1266369Y1357284D01*
X1264080Y1357586D01*
X1261790Y1357284D01*
X1259657Y1356401D01*
X1257825Y1354995D01*
X1256419Y1353163D01*
X1255536Y1351029D01*
X1255234Y1348740D01*
X1255536Y1346451D01*
X1256419Y1344317D01*
X1257825Y1342485D01*
X1259657Y1341079D01*
X1261790Y1340196D01*
X1264080Y1339894D01*
X1266369Y1340196D01*
X1268503Y1341079D01*
X1270335Y1342485D01*
X1271740Y1344317D01*
X1272005Y1344956D01*
X1272250Y1345029D01*
X1273393Y1344989D01*
X1273686Y1344552D01*
X1284234Y1334004D01*
X1284990Y1333499D01*
X1285882Y1333321D01*
X1403392D01*
X1404284Y1333499D01*
X1405040Y1334004D01*
X1412098Y1341062D01*
X1414190Y1340196D01*
X1416480Y1339894D01*
X1418769Y1340196D01*
X1420903Y1341079D01*
X1422735Y1342485D01*
X1424140Y1344317D01*
X1425024Y1346451D01*
X1425325Y1348740D01*
X1425024Y1351029D01*
X1424140Y1353163D01*
X1422735Y1354995D01*
X1420903Y1356401D01*
X1418769Y1357284D01*
X1416480Y1357586D01*
X1414190Y1357284D01*
X1412057Y1356401D01*
X1410225Y1354995D01*
X1408819Y1353163D01*
X1407935Y1351029D01*
X1407634Y1348740D01*
X1407935Y1346451D01*
X1408802Y1344359D01*
X1402426Y1337983D01*
X1334478D01*
X1333992Y1339156D01*
X1335898Y1341062D01*
X1337990Y1340196D01*
X1340280Y1339894D01*
X1342569Y1340196D01*
X1344703Y1341079D01*
X1346535Y1342485D01*
X1347940Y1344317D01*
X1348824Y1346451D01*
X1349125Y1348740D01*
X1348824Y1351029D01*
X1347940Y1353163D01*
X1346535Y1354995D01*
X1344703Y1356401D01*
X1342569Y1357284D01*
X1340280Y1357586D01*
X1337990Y1357284D01*
X1335857Y1356401D01*
X1334025Y1354995D01*
X1332619Y1353163D01*
X1331736Y1351029D01*
X1331434Y1348740D01*
X1331736Y1346451D01*
X1332602Y1344359D01*
X1329528Y1341285D01*
X1321542D01*
X1321264Y1342105D01*
X1321188Y1342555D01*
X1322540Y1344317D01*
X1323424Y1346451D01*
X1323725Y1348740D01*
X1323424Y1351029D01*
X1322540Y1353163D01*
X1321135Y1354995D01*
X1319303Y1356401D01*
X1317169Y1357284D01*
X1314880Y1357586D01*
X1312590Y1357284D01*
X1310498Y1356418D01*
X1294430Y1372486D01*
X1293674Y1372991D01*
X1292782Y1373169D01*
X1283185D01*
X1282907Y1373585D01*
X1281647Y1374427D01*
X1280160Y1374723D01*
X1278935Y1374479D01*
X1277665Y1375164D01*
Y1466111D01*
X1278081Y1466389D01*
X1278923Y1467649D01*
X1279219Y1469136D01*
X1278923Y1470623D01*
X1278081Y1471883D01*
X1276821Y1472725D01*
X1275334Y1473021D01*
D02*
G37*
G36*
X1289029Y1383010D02*
X1287543Y1382715D01*
X1286282Y1381872D01*
X1285440Y1380612D01*
X1285145Y1379126D01*
X1285440Y1377639D01*
X1286282Y1376379D01*
X1287543Y1375537D01*
X1289029Y1375241D01*
X1290516Y1375537D01*
X1291776Y1376379D01*
X1292054Y1376795D01*
X1334329D01*
X1358002Y1353121D01*
X1357135Y1351029D01*
X1356834Y1348740D01*
X1357135Y1346451D01*
X1358019Y1344317D01*
X1359425Y1342485D01*
X1361257Y1341079D01*
X1363390Y1340196D01*
X1365680Y1339894D01*
X1367969Y1340196D01*
X1370103Y1341079D01*
X1371935Y1342485D01*
X1373340Y1344317D01*
X1374224Y1346451D01*
X1374525Y1348740D01*
X1374224Y1351029D01*
X1373340Y1353163D01*
X1371935Y1354995D01*
X1370103Y1356401D01*
X1367969Y1357284D01*
X1365680Y1357586D01*
X1363390Y1357284D01*
X1361298Y1356418D01*
X1336942Y1380774D01*
X1336186Y1381279D01*
X1335294Y1381456D01*
X1292054D01*
X1291776Y1381872D01*
X1290516Y1382715D01*
X1289029Y1383010D01*
D02*
G37*
G36*
X1238680Y1357586D02*
X1236390Y1357284D01*
X1234257Y1356401D01*
X1232425Y1354995D01*
X1231019Y1353163D01*
X1230135Y1351029D01*
X1229834Y1348740D01*
X1230135Y1346451D01*
X1231019Y1344317D01*
X1232425Y1342485D01*
X1234257Y1341079D01*
X1236390Y1340196D01*
X1238680Y1339894D01*
X1240969Y1340196D01*
X1243103Y1341079D01*
X1244935Y1342485D01*
X1246340Y1344317D01*
X1247224Y1346451D01*
X1247525Y1348740D01*
X1247224Y1351029D01*
X1246340Y1353163D01*
X1244935Y1354995D01*
X1243103Y1356401D01*
X1240969Y1357284D01*
X1238680Y1357586D01*
D02*
G37*
G36*
X1213280D02*
X1210990Y1357284D01*
X1208857Y1356401D01*
X1207025Y1354995D01*
X1205619Y1353163D01*
X1204735Y1351029D01*
X1204434Y1348740D01*
X1204735Y1346451D01*
X1205619Y1344317D01*
X1207025Y1342485D01*
X1208857Y1341079D01*
X1210990Y1340196D01*
X1213280Y1339894D01*
X1215569Y1340196D01*
X1217703Y1341079D01*
X1219535Y1342485D01*
X1220940Y1344317D01*
X1221824Y1346451D01*
X1222125Y1348740D01*
X1221824Y1351029D01*
X1220940Y1353163D01*
X1219535Y1354995D01*
X1217703Y1356401D01*
X1215569Y1357284D01*
X1213280Y1357586D01*
D02*
G37*
G36*
X952500Y1351404D02*
X950022Y1350912D01*
X947922Y1349508D01*
X946518Y1347408D01*
X946026Y1344930D01*
X946518Y1342452D01*
X946884Y1341905D01*
X946298Y1341318D01*
X945175Y1339638D01*
X944781Y1337656D01*
Y1314318D01*
X943978Y1313118D01*
X943486Y1310640D01*
X943978Y1308162D01*
X945382Y1306062D01*
X947482Y1304658D01*
X949960Y1304166D01*
X952438Y1304658D01*
X954538Y1306062D01*
X955942Y1308162D01*
X956434Y1310640D01*
X955942Y1313118D01*
X955139Y1314318D01*
Y1335510D01*
X956162Y1336533D01*
X957285Y1338214D01*
X957680Y1340196D01*
Y1341252D01*
X958482Y1342452D01*
X958974Y1344930D01*
X958482Y1347408D01*
X957078Y1349508D01*
X954978Y1350912D01*
X952500Y1351404D01*
D02*
G37*
G36*
X1346200Y1300580D02*
X1290320D01*
X1288338Y1300185D01*
X1286658Y1299062D01*
X1285535Y1297382D01*
X1285141Y1295400D01*
X1285535Y1293418D01*
X1286658Y1291738D01*
X1288338Y1290615D01*
X1290320Y1290220D01*
X1344055D01*
X1353967Y1280307D01*
X1355648Y1279185D01*
X1357630Y1278791D01*
X1359612Y1279185D01*
X1361293Y1280307D01*
X1362415Y1281988D01*
X1362809Y1283970D01*
X1362415Y1285952D01*
X1361293Y1287632D01*
X1349863Y1299062D01*
X1348182Y1300185D01*
X1346200Y1300580D01*
D02*
G37*
G36*
X1326896Y1285569D02*
X1325409Y1285273D01*
X1324149Y1284431D01*
X1323307Y1283171D01*
X1323011Y1281684D01*
X1323109Y1281193D01*
X1166927Y1125011D01*
X601449D01*
X601171Y1125427D01*
X599911Y1126269D01*
X598424Y1126565D01*
X596937Y1126269D01*
X595677Y1125427D01*
X594835Y1124167D01*
X594539Y1122680D01*
X594835Y1121193D01*
X595677Y1119933D01*
X596937Y1119091D01*
X598424Y1118795D01*
X599911Y1119091D01*
X601171Y1119933D01*
X601449Y1120349D01*
X1167892D01*
X1168784Y1120527D01*
X1169540Y1121032D01*
X1326405Y1277897D01*
X1326896Y1277799D01*
X1328383Y1278095D01*
X1329643Y1278937D01*
X1330485Y1280197D01*
X1330781Y1281684D01*
X1330485Y1283171D01*
X1329643Y1284431D01*
X1328383Y1285273D01*
X1326896Y1285569D01*
D02*
G37*
G36*
X969010Y1294229D02*
X949960D01*
X947978Y1293835D01*
X946298Y1292713D01*
X945175Y1291032D01*
X944781Y1289050D01*
X945175Y1287068D01*
X946298Y1285388D01*
X947978Y1284265D01*
X949960Y1283871D01*
X966865D01*
X985667Y1265068D01*
X987348Y1263945D01*
X989330Y1263550D01*
X991312Y1263945D01*
X992992Y1265068D01*
X994115Y1266748D01*
X994510Y1268730D01*
X994115Y1270712D01*
X992992Y1272393D01*
X972673Y1292713D01*
X970992Y1293835D01*
X969010Y1294229D01*
D02*
G37*
G36*
X981710Y1311985D02*
X980223Y1311689D01*
X978963Y1310847D01*
X978121Y1309587D01*
X977825Y1308100D01*
X978121Y1306613D01*
X978963Y1305353D01*
X980223Y1304511D01*
X980844Y1304388D01*
X993291Y1291940D01*
X994342Y1291239D01*
X995581Y1290992D01*
X1009887D01*
X1015303Y1285577D01*
Y1247883D01*
X1014951Y1247357D01*
X1014655Y1245870D01*
X1014951Y1244383D01*
X1015793Y1243123D01*
X1017053Y1242281D01*
X1018540Y1241985D01*
X1020027Y1242281D01*
X1021287Y1243123D01*
X1022129Y1244383D01*
X1022425Y1245870D01*
X1022129Y1247357D01*
X1021777Y1247883D01*
Y1286918D01*
X1021531Y1288156D01*
X1020829Y1289207D01*
X1013517Y1296519D01*
X1012467Y1297220D01*
X1011228Y1297467D01*
X996921D01*
X985423Y1308966D01*
X985299Y1309587D01*
X984457Y1310847D01*
X983197Y1311689D01*
X981710Y1311985D01*
D02*
G37*
G36*
X1103630Y1251049D02*
X1076960D01*
X1074978Y1250655D01*
X1073298Y1249532D01*
X1072175Y1247852D01*
X1071780Y1245870D01*
X1072175Y1243888D01*
X1073298Y1242207D01*
X1074978Y1241085D01*
X1076960Y1240691D01*
X1101485D01*
X1116478Y1225697D01*
X1118158Y1224575D01*
X1120140Y1224181D01*
X1122122Y1224575D01*
X1123802Y1225697D01*
X1124925Y1227378D01*
X1125320Y1229360D01*
X1124925Y1231342D01*
X1123802Y1233023D01*
X1107292Y1249532D01*
X1105612Y1250655D01*
X1103630Y1251049D01*
D02*
G37*
G36*
X911860Y1392020D02*
X909878Y1391625D01*
X908197Y1390502D01*
X905658Y1387962D01*
X904535Y1386282D01*
X904140Y1384300D01*
Y1247852D01*
X904535Y1245870D01*
X905658Y1244190D01*
X924461Y1225387D01*
Y1205230D01*
X924855Y1203248D01*
X925977Y1201568D01*
X927658Y1200445D01*
X929640Y1200051D01*
X931622Y1200445D01*
X933303Y1201568D01*
X934425Y1203248D01*
X934819Y1205230D01*
Y1227532D01*
X934425Y1229514D01*
X933303Y1231195D01*
X914500Y1249998D01*
Y1382155D01*
X915523Y1383177D01*
X916645Y1384858D01*
X917039Y1386840D01*
X916645Y1388822D01*
X915523Y1390502D01*
X913842Y1391625D01*
X911860Y1392020D01*
D02*
G37*
G36*
X2129790Y1202790D02*
X2127808Y1202395D01*
X2126127Y1201273D01*
X2125005Y1199592D01*
X2124610Y1197610D01*
Y1195070D01*
X2125005Y1193088D01*
X2126127Y1191407D01*
X2128421Y1189115D01*
Y1188720D01*
X2128815Y1186738D01*
X2129937Y1185058D01*
X2182007Y1132988D01*
X2183688Y1131865D01*
X2185670Y1131470D01*
X2187652Y1131865D01*
X2189332Y1132988D01*
X2190455Y1134668D01*
X2190849Y1136650D01*
X2190455Y1138632D01*
X2189332Y1140312D01*
X2138779Y1190865D01*
Y1191260D01*
X2138385Y1193242D01*
X2137263Y1194922D01*
X2134969Y1197215D01*
Y1197610D01*
X2134575Y1199592D01*
X2133452Y1201273D01*
X2131772Y1202395D01*
X2129790Y1202790D01*
D02*
G37*
G36*
X1554480Y1117799D02*
X1488539D01*
X1486557Y1117405D01*
X1484877Y1116282D01*
X1484778Y1116182D01*
X1483655Y1114502D01*
X1483260Y1112520D01*
X1483655Y1110538D01*
X1484778Y1108857D01*
X1486458Y1107735D01*
X1488440Y1107340D01*
X1488940Y1107440D01*
X1554480D01*
X1556462Y1107834D01*
X1558143Y1108957D01*
X1559265Y1110637D01*
X1559659Y1112619D01*
X1559265Y1114602D01*
X1558143Y1116282D01*
X1556462Y1117405D01*
X1554480Y1117799D01*
D02*
G37*
G36*
X1572260Y1031426D02*
X1488560D01*
X1486571Y1031164D01*
X1484717Y1030396D01*
X1483125Y1029174D01*
X1483005Y1029055D01*
X1481784Y1027463D01*
X1481016Y1025609D01*
X1480754Y1023620D01*
X1481016Y1021631D01*
X1481784Y1019777D01*
X1483005Y1018185D01*
X1484597Y1016964D01*
X1486451Y1016196D01*
X1488440Y1015934D01*
X1489351Y1016054D01*
X1572260D01*
X1574249Y1016316D01*
X1576103Y1017084D01*
X1577695Y1018305D01*
X1578916Y1019897D01*
X1579684Y1021751D01*
X1579946Y1023740D01*
X1579684Y1025729D01*
X1578916Y1027583D01*
X1577695Y1029174D01*
X1576103Y1030396D01*
X1574249Y1031164D01*
X1572260Y1031426D01*
D02*
G37*
G36*
X1681480Y1051339D02*
X1679498Y1050945D01*
X1677818Y1049822D01*
X1676695Y1048142D01*
X1676301Y1046160D01*
X1676695Y1044178D01*
X1677818Y1042497D01*
X1722021Y998295D01*
Y985520D01*
X1722415Y983538D01*
X1723537Y981858D01*
X1725218Y980735D01*
X1727200Y980340D01*
X1729182Y980735D01*
X1730862Y981858D01*
X1731985Y983538D01*
X1732379Y985520D01*
Y1000440D01*
X1731985Y1002422D01*
X1730862Y1004102D01*
X1685143Y1049822D01*
X1683462Y1050945D01*
X1681480Y1051339D01*
D02*
G37*
G36*
X463429Y962886D02*
X463181Y962784D01*
X462914Y962786D01*
X461736Y962310D01*
X461545Y962123D01*
X461297Y962025D01*
X461185Y961769D01*
X460986Y961573D01*
X460983Y961306D01*
X460877Y961060D01*
X459652Y892471D01*
X459654Y892464D01*
X459652Y892458D01*
X459847Y891974D01*
X460037Y891491D01*
X460043Y891489D01*
X460046Y891483D01*
X460936Y890577D01*
X460942Y890574D01*
X460944Y890568D01*
X461425Y890369D01*
X461904Y890165D01*
X461910Y890168D01*
X461916Y890165D01*
X669290D01*
X670262Y890568D01*
X670262Y890568D01*
X672802Y893108D01*
X673205Y894080D01*
X673205Y894080D01*
Y960120D01*
X672802Y961092D01*
X671830Y961495D01*
X465389D01*
X464401Y962483D01*
X464154Y962586D01*
X463966Y962777D01*
X463687Y962779D01*
X463429Y962886D01*
D02*
G37*
G36*
X1084580Y950035D02*
X1083093Y949739D01*
X1082567Y949387D01*
X1061193D01*
X1060667Y949739D01*
X1059180Y950035D01*
X1057693Y949739D01*
X1056433Y948897D01*
X1055591Y947637D01*
X1055295Y946150D01*
X1055591Y944663D01*
X1056433Y943403D01*
X1057693Y942561D01*
X1059180Y942265D01*
X1060667Y942561D01*
X1061193Y942913D01*
X1082567D01*
X1083093Y942561D01*
X1084580Y942265D01*
X1086067Y942561D01*
X1087327Y943403D01*
X1088169Y944663D01*
X1088465Y946150D01*
X1088169Y947637D01*
X1087327Y948897D01*
X1086067Y949739D01*
X1084580Y950035D01*
D02*
G37*
G36*
X1971380Y958240D02*
X1947840D01*
Y940700D01*
X1971380D01*
Y947139D01*
X1976495D01*
X1976773Y946723D01*
X1978033Y945881D01*
X1979520Y945585D01*
X1981007Y945881D01*
X1982267Y946723D01*
X1983109Y947983D01*
X1983405Y949470D01*
X1983109Y950956D01*
X1982267Y952217D01*
X1981007Y953059D01*
X1979520Y953354D01*
X1978033Y953059D01*
X1976773Y952217D01*
X1976495Y951801D01*
X1971380D01*
Y958240D01*
D02*
G37*
G36*
X1531366Y913205D02*
X1529879Y912909D01*
X1528619Y912067D01*
X1527777Y910807D01*
X1527481Y909320D01*
X1527777Y907833D01*
X1528619Y906573D01*
X1529879Y905731D01*
X1531366Y905435D01*
X1531857Y905533D01*
X1548514Y888876D01*
X1549270Y888371D01*
X1550162Y888193D01*
X2134215D01*
X2134663Y887523D01*
X2135923Y886681D01*
X2137410Y886385D01*
X2138897Y886681D01*
X2140157Y887523D01*
X2140999Y888783D01*
X2141295Y890270D01*
X2140999Y891757D01*
X2140157Y893017D01*
X2138897Y893859D01*
X2137410Y894155D01*
X2135923Y893859D01*
X2134663Y893017D01*
X2134555Y892855D01*
X1551127D01*
X1535153Y908829D01*
X1535251Y909320D01*
X1534955Y910807D01*
X1534113Y912067D01*
X1532853Y912909D01*
X1531366Y913205D01*
D02*
G37*
G36*
X2096530Y769648D02*
X2063990D01*
Y737108D01*
X2096530D01*
Y769648D01*
D02*
G37*
G36*
X2190260Y769726D02*
X2187070Y769412D01*
X2184003Y768482D01*
X2181177Y766971D01*
X2178699Y764938D01*
X2176666Y762461D01*
X2175155Y759634D01*
X2174225Y756567D01*
X2173911Y753378D01*
X2174225Y750188D01*
X2175155Y747121D01*
X2176666Y744295D01*
X2178699Y741817D01*
X2181177Y739784D01*
X2184003Y738273D01*
X2187070Y737343D01*
X2190260Y737029D01*
X2193449Y737343D01*
X2196516Y738273D01*
X2199343Y739784D01*
X2201820Y741817D01*
X2203853Y744295D01*
X2205364Y747121D01*
X2206294Y750188D01*
X2206608Y753378D01*
X2206294Y756567D01*
X2205364Y759634D01*
X2203853Y762461D01*
X2201820Y764938D01*
X2199343Y766971D01*
X2196516Y768482D01*
X2193449Y769412D01*
X2190260Y769726D01*
D02*
G37*
G36*
X1247879Y748490D02*
X1245459Y748171D01*
X1243204Y747237D01*
X1241267Y745751D01*
X1239781Y743815D01*
X1238847Y741560D01*
X1238529Y739140D01*
X1238847Y736720D01*
X1239781Y734465D01*
X1241267Y732529D01*
X1243204Y731043D01*
X1245459Y730109D01*
X1247879Y729790D01*
X1250299Y730109D01*
X1252554Y731043D01*
X1254490Y732529D01*
X1255976Y734465D01*
X1256910Y736720D01*
X1257229Y739140D01*
X1256910Y741560D01*
X1255976Y743815D01*
X1254490Y745751D01*
X1252554Y747237D01*
X1250299Y748171D01*
X1247879Y748490D01*
D02*
G37*
G36*
X885580Y728570D02*
X863540D01*
Y706530D01*
X885580D01*
Y728570D01*
D02*
G37*
G36*
X707780D02*
X685740D01*
Y706530D01*
X707780D01*
Y728570D01*
D02*
G37*
G36*
X503310D02*
X481270D01*
Y706530D01*
X503310D01*
Y728570D01*
D02*
G37*
G36*
X334870D02*
X312830D01*
Y706530D01*
X334870D01*
Y728570D01*
D02*
G37*
G36*
X924560Y728665D02*
X921683Y728286D01*
X919003Y727176D01*
X916701Y725409D01*
X914934Y723108D01*
X913824Y720427D01*
X913445Y717550D01*
X913824Y714673D01*
X914934Y711992D01*
X916701Y709690D01*
X919003Y707924D01*
X921683Y706814D01*
X924560Y706435D01*
X927437Y706814D01*
X930117Y707924D01*
X932420Y709690D01*
X934186Y711992D01*
X935296Y714673D01*
X935675Y717550D01*
X935296Y720427D01*
X934186Y723108D01*
X932420Y725409D01*
X930117Y727176D01*
X927437Y728286D01*
X924560Y728665D01*
D02*
G37*
G36*
X746760D02*
X743883Y728286D01*
X741202Y727176D01*
X738901Y725409D01*
X737134Y723108D01*
X736024Y720427D01*
X735645Y717550D01*
X736024Y714673D01*
X737134Y711992D01*
X738901Y709690D01*
X741202Y707924D01*
X743883Y706814D01*
X746760Y706435D01*
X749637Y706814D01*
X752318Y707924D01*
X754620Y709690D01*
X756386Y711992D01*
X757496Y714673D01*
X757875Y717550D01*
X757496Y720427D01*
X756386Y723108D01*
X754620Y725409D01*
X752318Y727176D01*
X749637Y728286D01*
X746760Y728665D01*
D02*
G37*
G36*
X542290D02*
X539413Y728286D01*
X536732Y727176D01*
X534431Y725409D01*
X532664Y723108D01*
X531554Y720427D01*
X531175Y717550D01*
X531554Y714673D01*
X532664Y711992D01*
X534431Y709690D01*
X536732Y707924D01*
X539413Y706814D01*
X542290Y706435D01*
X545167Y706814D01*
X547848Y707924D01*
X550149Y709690D01*
X551916Y711992D01*
X553026Y714673D01*
X553405Y717550D01*
X553026Y720427D01*
X551916Y723108D01*
X550149Y725409D01*
X547848Y727176D01*
X545167Y728286D01*
X542290Y728665D01*
D02*
G37*
G36*
X373850D02*
X370973Y728286D01*
X368292Y727176D01*
X365990Y725409D01*
X364224Y723108D01*
X363114Y720427D01*
X362735Y717550D01*
X363114Y714673D01*
X364224Y711992D01*
X365990Y709690D01*
X368292Y707924D01*
X370973Y706814D01*
X373850Y706435D01*
X376727Y706814D01*
X379407Y707924D01*
X381709Y709690D01*
X383476Y711992D01*
X384586Y714673D01*
X384965Y717550D01*
X384586Y720427D01*
X383476Y723108D01*
X381709Y725409D01*
X379407Y727176D01*
X376727Y728286D01*
X373850Y728665D01*
D02*
G37*
G36*
X1247879Y723090D02*
X1245459Y722771D01*
X1243204Y721837D01*
X1241267Y720351D01*
X1239781Y718415D01*
X1238847Y716160D01*
X1238529Y713740D01*
X1238847Y711320D01*
X1239781Y709065D01*
X1241267Y707129D01*
X1243204Y705643D01*
X1245459Y704709D01*
X1247879Y704390D01*
X1250299Y704709D01*
X1252554Y705643D01*
X1254490Y707129D01*
X1255976Y709065D01*
X1256910Y711320D01*
X1257229Y713740D01*
X1256910Y716160D01*
X1255976Y718415D01*
X1254490Y720351D01*
X1252554Y721837D01*
X1250299Y722771D01*
X1247879Y723090D01*
D02*
G37*
G36*
X1117078D02*
X1114658Y722771D01*
X1112403Y721837D01*
X1110467Y720351D01*
X1108981Y718415D01*
X1108047Y716160D01*
X1107728Y713740D01*
X1108047Y711320D01*
X1108981Y709065D01*
X1110467Y707129D01*
X1112403Y705643D01*
X1114658Y704709D01*
X1117078Y704390D01*
X1119498Y704709D01*
X1121753Y705643D01*
X1123690Y707129D01*
X1125176Y709065D01*
X1126110Y711320D01*
X1126428Y713740D01*
X1126110Y716160D01*
X1125176Y718415D01*
X1123690Y720351D01*
X1121753Y721837D01*
X1119498Y722771D01*
X1117078Y723090D01*
D02*
G37*
G36*
X1584960Y703680D02*
X1560830D01*
X1558848Y703285D01*
X1557168Y702162D01*
X1556045Y700482D01*
X1555650Y698500D01*
X1556045Y696518D01*
X1557168Y694837D01*
X1558848Y693715D01*
X1560830Y693320D01*
X1582815D01*
X1593860Y682275D01*
X1595540Y681152D01*
X1597522Y680758D01*
X1599380D01*
X1601362Y681152D01*
X1603043Y682275D01*
X1604165Y683956D01*
X1604560Y685938D01*
X1604165Y687920D01*
X1603043Y689600D01*
X1601362Y690723D01*
X1599739Y691046D01*
X1588622Y702162D01*
X1586942Y703285D01*
X1584960Y703680D01*
D02*
G37*
G36*
X1247879Y697690D02*
X1245459Y697371D01*
X1243204Y696437D01*
X1241267Y694951D01*
X1239781Y693015D01*
X1238847Y690760D01*
X1238529Y688340D01*
X1238847Y685920D01*
X1239781Y683665D01*
X1241267Y681729D01*
X1243204Y680243D01*
X1245459Y679309D01*
X1247879Y678990D01*
X1250299Y679309D01*
X1252554Y680243D01*
X1254490Y681729D01*
X1255976Y683665D01*
X1256910Y685920D01*
X1257229Y688340D01*
X1256910Y690760D01*
X1255976Y693015D01*
X1254490Y694951D01*
X1252554Y696437D01*
X1250299Y697371D01*
X1247879Y697690D01*
D02*
G37*
G36*
X1117078D02*
X1114658Y697371D01*
X1112403Y696437D01*
X1110467Y694951D01*
X1108981Y693015D01*
X1108047Y690760D01*
X1107728Y688340D01*
X1108047Y685920D01*
X1108981Y683665D01*
X1110467Y681729D01*
X1112403Y680243D01*
X1114658Y679309D01*
X1117078Y678990D01*
X1119498Y679309D01*
X1121753Y680243D01*
X1123690Y681729D01*
X1125176Y683665D01*
X1126110Y685920D01*
X1126428Y688340D01*
X1126110Y690760D01*
X1125176Y693015D01*
X1123690Y694951D01*
X1121753Y696437D01*
X1119498Y697371D01*
X1117078Y697690D01*
D02*
G37*
G36*
X1247879Y672290D02*
X1245459Y671971D01*
X1243204Y671037D01*
X1241267Y669551D01*
X1239781Y667615D01*
X1238847Y665360D01*
X1238529Y662940D01*
X1238847Y660520D01*
X1239781Y658265D01*
X1241267Y656329D01*
X1243204Y654843D01*
X1245459Y653909D01*
X1247879Y653590D01*
X1250299Y653909D01*
X1252554Y654843D01*
X1254490Y656329D01*
X1255976Y658265D01*
X1256910Y660520D01*
X1257229Y662940D01*
X1256910Y665360D01*
X1255976Y667615D01*
X1254490Y669551D01*
X1252554Y671037D01*
X1250299Y671971D01*
X1247879Y672290D01*
D02*
G37*
G36*
X1117078D02*
X1114658Y671971D01*
X1112403Y671037D01*
X1110467Y669551D01*
X1108981Y667615D01*
X1108047Y665360D01*
X1107728Y662940D01*
X1108047Y660520D01*
X1108981Y658265D01*
X1110467Y656329D01*
X1112403Y654843D01*
X1114658Y653909D01*
X1117078Y653590D01*
X1119498Y653909D01*
X1121753Y654843D01*
X1123690Y656329D01*
X1125176Y658265D01*
X1126110Y660520D01*
X1126428Y662940D01*
X1126110Y665360D01*
X1125176Y667615D01*
X1123690Y669551D01*
X1121753Y671037D01*
X1119498Y671971D01*
X1117078Y672290D01*
D02*
G37*
%LPD*%
G36*
X728980Y2059940D02*
X725170Y2056130D01*
X645160D01*
X558800Y1969770D01*
Y1929130D01*
X455930Y1826260D01*
X412750Y1826260D01*
X412750Y1954530D01*
X420370Y1962150D01*
X438150D01*
Y2094230D01*
X482600Y2138680D01*
X728980D01*
Y2059940D01*
D02*
G37*
%LPC*%
G36*
X645160Y2109155D02*
X642283Y2108776D01*
X639603Y2107666D01*
X637300Y2105900D01*
X635534Y2103598D01*
X634424Y2100917D01*
X634045Y2098040D01*
X634424Y2095163D01*
X635534Y2092482D01*
X637300Y2090181D01*
X639603Y2088414D01*
X642283Y2087304D01*
X645160Y2086925D01*
X648037Y2087304D01*
X650717Y2088414D01*
X653019Y2090181D01*
X654786Y2092482D01*
X655896Y2095163D01*
X656275Y2098040D01*
X655896Y2100917D01*
X654786Y2103598D01*
X653019Y2105900D01*
X650717Y2107666D01*
X648037Y2108776D01*
X645160Y2109155D01*
D02*
G37*
%LPD*%
G36*
X464820Y960120D02*
X671830D01*
Y894080D01*
X669290Y891540D01*
X461916D01*
X461026Y892446D01*
X462251Y961036D01*
X463429Y961511D01*
X464820Y960120D01*
D02*
G37*
%LPC*%
G36*
X387350Y1459672D02*
X384277Y1459267D01*
X381414Y1458081D01*
X378955Y1456194D01*
X377069Y1453736D01*
X375883Y1450873D01*
X375478Y1447800D01*
X375883Y1444727D01*
X377069Y1441864D01*
X378955Y1439406D01*
X381414Y1437519D01*
X384277Y1436333D01*
X387350Y1435928D01*
X390423Y1436333D01*
X393286Y1437519D01*
X395745Y1439406D01*
X397631Y1441864D01*
X398817Y1444727D01*
X399044Y1446455D01*
X443438D01*
X464310Y1425584D01*
Y1400713D01*
X422703Y1359107D01*
X421861Y1357847D01*
X421565Y1356360D01*
X421861Y1354873D01*
X422703Y1353613D01*
X423963Y1352771D01*
X425450Y1352475D01*
X426937Y1352771D01*
X428197Y1353613D01*
X470941Y1396357D01*
X471783Y1397618D01*
X472079Y1399104D01*
Y1427193D01*
X471783Y1428680D01*
X470941Y1429940D01*
X447794Y1453087D01*
X446534Y1453929D01*
X445047Y1454225D01*
X397256D01*
X395745Y1456194D01*
X393286Y1458081D01*
X390423Y1459267D01*
X387350Y1459672D01*
D02*
G37*
%LPD*%
D10*
X1959610Y924220D02*
X1980173D01*
X1981783Y925830D01*
X1982470D01*
X1386840Y1482533D02*
Y1483220D01*
X1384747Y1480439D02*
X1386840Y1482533D01*
X1384747Y1479996D02*
Y1480439D01*
X1372870Y1468120D02*
X1384747Y1479996D01*
X1314880Y1432560D02*
X1333534D01*
X1335898Y1430195D01*
D116*
X650240Y1487137D02*
X654083Y1490980D01*
X650240Y1477010D02*
Y1487137D01*
X642620Y1469390D02*
X650240Y1477010D01*
X642620Y1414780D02*
Y1469390D01*
X1488440Y1023620D02*
X1488560Y1023740D01*
X1572260D01*
D118*
X1523233Y1556517D02*
X2145533D01*
X1508572Y1571178D02*
X1523233Y1556517D01*
X2145533D02*
X2150364Y1551686D01*
X2133600Y1577086D02*
X2155190Y1555496D01*
X1339662Y1577086D02*
X2133600D01*
X2155190Y1522730D02*
Y1555496D01*
X1337056Y1574480D02*
X1339662Y1577086D01*
X1294958Y1574480D02*
X1337056D01*
X1292926Y1571178D02*
X1508572D01*
X1786998Y1580388D02*
X2179320Y1972710D01*
X1336360Y1580388D02*
X1786998D01*
X1333754Y1577782D02*
X1336360Y1580388D01*
X1303162Y1577782D02*
X1333754D01*
X602446Y1520656D02*
X1189049D01*
X412140Y1330350D02*
X602446Y1520656D01*
X412140Y1309116D02*
Y1330350D01*
X1189049Y1520656D02*
X1201199Y1508506D01*
X1275334D01*
X1278636Y1505204D01*
X1188689Y1499616D02*
X1292860D01*
X1188435Y1499362D02*
X1188689Y1499616D01*
X1292860D02*
X1299464Y1493012D01*
X1146706Y1495806D02*
X1166730Y1515830D01*
X1169670D01*
X1398270Y1510030D02*
X1422400D01*
X1550162Y890524D02*
X2137410D01*
X1325063Y1510030D02*
X1336942D01*
X1295882Y1593692D02*
X1308192D01*
X1320800Y1581084D01*
X1285494Y1592272D02*
X1306576Y1613354D01*
X1282192Y1593640D02*
X1301750Y1613198D01*
X1259332Y1575816D02*
X1293114Y1609598D01*
Y1620266D01*
X1259332Y1553718D02*
Y1575816D01*
X1301750Y1613198D02*
Y1650492D01*
X1282192Y1581912D02*
Y1593640D01*
X1306576Y1613354D02*
Y1653540D01*
X1285494Y1583944D02*
Y1592272D01*
Y1583944D02*
X1294958Y1574480D01*
X2114949Y1516380D02*
X2148840D01*
X1310640Y1484884D02*
X1348232Y1447292D01*
X1773174D01*
X1300988Y1484884D02*
X1644396Y1141476D01*
X1929384D01*
X2056160Y1014700D01*
Y1008380D02*
Y1014700D01*
X1959610Y949470D02*
X1979520D01*
X1531366Y909320D02*
X1550162Y890524D01*
X1289050Y1670558D02*
Y1757680D01*
X1238250Y1663954D02*
Y1757680D01*
Y1663954D02*
X1288288Y1613916D01*
X598424Y1122680D02*
X1167892D01*
X1326896Y1281684D01*
X1325626Y1585910D02*
Y1976520D01*
X1348994Y1590294D02*
X1505966Y1747266D01*
X1296708Y1584236D02*
X1303162Y1577782D01*
X1541714Y1595454D02*
X1918970Y1972710D01*
X1320800Y1581084D02*
X1329116D01*
X1330452Y1582420D01*
Y1706372D01*
X1600600Y1976520D01*
X1299464Y1493012D02*
X1367028D01*
X1203198Y1513332D02*
X1283814D01*
X1298546Y1498600D01*
X1527302D01*
X1536192Y1489710D01*
X1282192Y1581912D02*
X1292926Y1571178D01*
X1580896Y1491234D02*
X2087263D01*
X1556004Y1516126D02*
X1580896Y1491234D01*
X1417574Y1516126D02*
X1556004D01*
X1382776Y1550924D02*
X1417574Y1516126D01*
X1262126Y1550924D02*
X1382776D01*
X1259332Y1553718D02*
X1262126Y1550924D01*
X1267968Y1645412D02*
X1293114Y1620266D01*
X1267968Y1645412D02*
Y1657096D01*
X1275080Y1664208D01*
X1278435D01*
X1273435Y1654556D02*
X1275467Y1656588D01*
X1303528D01*
X1306576Y1653540D01*
X2148840Y1516380D02*
X2155190Y1522730D01*
X1264158Y1568450D02*
X1264732Y1567876D01*
X1373190D01*
X1419352Y1521714D01*
X1608328D01*
X1633982Y1496060D01*
X2111069D01*
X2116545Y1490584D01*
Y1483615D02*
Y1490584D01*
Y1483615D02*
X2120041Y1480119D01*
X2139807D01*
X2141146Y1478779D01*
Y1474544D02*
Y1478779D01*
Y1474544D02*
X2146808Y1468882D01*
X1248435Y1558265D02*
X1302766Y1503934D01*
X1547114D01*
X1575308Y1475740D01*
X2098403D01*
X2118469Y1455674D01*
X2155952D01*
X1111680Y1348740D02*
X1213435Y1450495D01*
X1137080Y1348740D02*
X1146986Y1358646D01*
X1195324D01*
X1162480Y1348740D02*
X1178482Y1332738D01*
X1200192D01*
X1280160Y1370838D02*
X1292782D01*
X1314880Y1348740D01*
X1284986Y1360558D02*
X1291502D01*
X1305052Y1347008D01*
Y1344542D02*
Y1347008D01*
Y1344542D02*
X1310640Y1338954D01*
X1330494D01*
X1340280Y1348740D01*
X1289029Y1379126D02*
X1335294D01*
X1365680Y1348740D01*
X1287018Y1452802D02*
Y1494790D01*
Y1452802D02*
X1391080Y1348740D01*
X1275334Y1346200D02*
Y1469136D01*
Y1346200D02*
X1285882Y1335652D01*
X1403392D01*
X1416480Y1348740D01*
D119*
X1162272Y1667267D02*
X1162616Y1666923D01*
X1059180Y946150D02*
X1084580D01*
X1377950Y1698658D02*
X1386172Y1706880D01*
X1377950Y1651657D02*
Y1698658D01*
X1162616Y1667510D02*
X1162920D01*
X1153922Y1666494D02*
X1154695Y1667267D01*
X995581Y1294229D02*
X1011228D01*
X1018540Y1245870D02*
Y1286918D01*
X1011228Y1294229D02*
X1018540Y1286918D01*
X981710Y1308100D02*
X995581Y1294229D01*
X1124712Y1666494D02*
X1153922D01*
X1112416Y1439926D02*
X1174242D01*
X1088898D02*
X1112416D01*
X1212850Y1555830D02*
Y1757680D01*
X1314450Y1627632D02*
Y1757680D01*
X1174242Y1439926D02*
X1178560Y1435608D01*
X1142970Y1655542D02*
X1153922Y1666494D01*
X1154695Y1667267D02*
X1162272D01*
D120*
X2129790Y1195070D02*
Y1197610D01*
Y1195070D02*
X2133600Y1191260D01*
Y1188720D02*
Y1191260D01*
Y1188720D02*
X2185670Y1136650D01*
X2223212Y1520491D02*
X2224493Y1519210D01*
X2223212Y1520491D02*
Y1536351D01*
X2221230Y1538333D02*
X2223212Y1536351D01*
X952500Y1340196D02*
Y1344930D01*
X949960Y1337656D02*
X952500Y1340196D01*
X949960Y1310640D02*
Y1337656D01*
X909320Y1384300D02*
X911860Y1386840D01*
X909320Y1247852D02*
Y1384300D01*
X929640Y1205230D02*
Y1227532D01*
X909320Y1247852D02*
X929640Y1227532D01*
X1103630Y1245870D02*
X1120140Y1229360D01*
X1488539Y1112619D02*
X1554480D01*
X1076960Y1245870D02*
X1103630D01*
X1727200Y985520D02*
Y1000440D01*
X1346200Y1295400D02*
X1357630Y1283970D01*
X1290320Y1295400D02*
X1346200D01*
X969010Y1289050D02*
X989330Y1268730D01*
X1488440Y1112520D02*
X1488539Y1112619D01*
X949960Y1289050D02*
X969010D01*
X1681480Y1046160D02*
X1727200Y1000440D01*
X2014220Y1651000D02*
Y1662430D01*
Y1651000D02*
X2015490Y1649730D01*
Y1597660D02*
Y1649730D01*
X1584960Y698500D02*
X1597522Y685938D01*
X1599380D01*
X1560830Y698500D02*
X1584960D01*
X1136015Y1832610D02*
X1157605Y1811020D01*
X1108710Y1832610D02*
X1136015D01*
X2198270Y1473200D02*
X2202588Y1468882D01*
X2213249D01*
X2221230Y1476863D01*
Y1489710D01*
D122*
X469900Y1630618D02*
Y1722790D01*
Y1630618D02*
X493968Y1606550D01*
X540868D01*
X389890Y1450340D02*
X445047D01*
X468194Y1427193D01*
Y1399104D02*
Y1427193D01*
X425450Y1356360D02*
X468194Y1399104D01*
X387350Y1447800D02*
X389890Y1450340D01*
D125*
X2286000Y670560D02*
D03*
Y1817370D02*
D03*
X294640Y1784350D02*
D03*
Y872490D02*
D03*
D126*
X695160Y2098040D02*
D03*
X1140460Y2103120D02*
D03*
X2270760D02*
D03*
X2044700Y2103932D02*
D03*
X1818640D02*
D03*
X1592580D02*
D03*
X1366520Y2103120D02*
D03*
X874560Y717550D02*
D03*
X696760D02*
D03*
X492290D02*
D03*
X323850D02*
D03*
D127*
X645160Y2098040D02*
D03*
X1090460Y2103120D02*
D03*
X2220760D02*
D03*
X1994700Y2103932D02*
D03*
X1768640D02*
D03*
X1542580D02*
D03*
X1316520Y2103120D02*
D03*
X309880Y2045991D02*
D03*
Y1890560D02*
D03*
X313690Y1298740D02*
D03*
X924560Y717550D02*
D03*
X746760D02*
D03*
X542290D02*
D03*
X373850D02*
D03*
D128*
X2190260Y753378D02*
D03*
X696760Y1600748D02*
D03*
X798360D02*
D03*
X899960D02*
D03*
X772960Y1397548D02*
D03*
X823760D02*
D03*
X1479550Y1470152D02*
D03*
X2284000Y1506580D02*
D03*
D129*
X2080260Y753378D02*
D03*
D130*
X309880Y2095992D02*
D03*
Y1940560D02*
D03*
X313690Y1348740D02*
D03*
D131*
X1187450Y1757680D02*
D03*
X1212850D02*
D03*
X1238250D02*
D03*
X1263650D02*
D03*
X1289050D02*
D03*
X1137080Y1348740D02*
D03*
X1162480D02*
D03*
X1187880D02*
D03*
X1213280D02*
D03*
X1238680D02*
D03*
X1264080D02*
D03*
X1289480D02*
D03*
X1314880D02*
D03*
X1340280D02*
D03*
X1365680D02*
D03*
X1391080D02*
D03*
X1416480D02*
D03*
D132*
X1314450Y1757680D02*
D03*
X1111680Y1348740D02*
D03*
D133*
X1247879Y662940D02*
D03*
Y688340D02*
D03*
Y713740D02*
D03*
Y739140D02*
D03*
X1117078Y662940D02*
D03*
Y688340D02*
D03*
Y713740D02*
D03*
D134*
Y739140D02*
D03*
D135*
X447350Y1427800D02*
D03*
X507350Y1447800D02*
D03*
Y1569800D02*
D03*
X387350Y1447800D02*
D03*
D136*
X431800Y1849790D02*
D03*
X609600Y1875190D02*
D03*
Y1951390D02*
D03*
D137*
X469900Y1722790D02*
D03*
X571500D02*
D03*
D138*
X2129790Y1197610D02*
D03*
X2185670Y1136650D02*
D03*
X1381760Y1490830D02*
D03*
X1562100Y1592580D02*
D03*
X1581467D02*
D03*
X1600835D02*
D03*
X1620202D02*
D03*
X1639570D02*
D03*
Y1544320D02*
D03*
X1620202D02*
D03*
X1600835D02*
D03*
X1581467D02*
D03*
X1562100D02*
D03*
X2224493Y1519210D02*
D03*
X2221230Y1538333D02*
D03*
X1084580Y946150D02*
D03*
X1059180D02*
D03*
X1188435Y1691640D02*
D03*
X911860Y1386840D02*
D03*
X929640Y1205230D02*
D03*
X654083Y1490980D02*
D03*
X1146706Y1495806D02*
D03*
X642620Y1414780D02*
D03*
X1386172Y1706880D02*
D03*
X1377950Y1651657D02*
D03*
X1162616Y1667510D02*
D03*
X2190260Y874703D02*
D03*
X1248435Y1722270D02*
D03*
X1195070D02*
D03*
X1300494Y1801305D02*
D03*
X1018540Y1245870D02*
D03*
X981710Y1308100D02*
D03*
X2061330Y1309370D02*
D03*
X1398270Y1510030D02*
D03*
X1422400D02*
D03*
X1386840Y1483220D02*
D03*
X1372870Y1468120D02*
D03*
X1325063Y1510030D02*
D03*
X1336942D02*
D03*
X1335898Y1430195D02*
D03*
X1314880Y1432560D02*
D03*
X1727200Y985520D02*
D03*
X1681480Y1046160D02*
D03*
X1554480Y1112619D02*
D03*
X1488440Y1112520D02*
D03*
X1357630Y1283970D02*
D03*
X1290320Y1295400D02*
D03*
X1120140Y1229360D02*
D03*
X1076960Y1245870D02*
D03*
X989330Y1268730D02*
D03*
X949960Y1289050D02*
D03*
X1361440Y1619250D02*
D03*
X381000Y1289390D02*
D03*
X749955Y2005330D02*
D03*
X1572260Y1023740D02*
D03*
X1488440Y1023620D02*
D03*
X1979520Y949470D02*
D03*
X2056160Y1008380D02*
D03*
X2137410Y890270D02*
D03*
X956310Y1757680D02*
D03*
X967740D02*
D03*
X871870Y1760220D02*
D03*
X862330D02*
D03*
X1135380Y1515830D02*
D03*
X1117600D02*
D03*
X1135380Y1590040D02*
D03*
X1116222Y1590294D02*
D03*
X1061720Y1572290D02*
D03*
X2205407Y1483421D02*
D03*
X2218690Y1559560D02*
D03*
X2128970Y1487533D02*
D03*
X2074730Y1519029D02*
D03*
X2080260Y1537570D02*
D03*
X1717040Y715010D02*
D03*
X1720850Y768350D02*
D03*
X1599380Y685938D02*
D03*
X1560830Y698500D02*
D03*
Y719577D02*
D03*
X1563370Y737870D02*
D03*
X1387157Y663418D02*
D03*
X1372870Y689610D02*
D03*
X1356360Y817140D02*
D03*
X859790Y1981965D02*
D03*
X893782Y1929765D02*
D03*
X1298455Y1430195D02*
D03*
X1282300Y1432560D02*
D03*
X1331967Y1535830D02*
D03*
X1350010D02*
D03*
X1153160Y1448409D02*
D03*
X1036320Y818280D02*
D03*
X1102360Y810260D02*
D03*
X1094740Y775970D02*
D03*
X1295882Y1593692D02*
D03*
X1024410Y1388110D02*
D03*
X1124712Y1447923D02*
D03*
X1153160Y1461770D02*
D03*
X1157605Y1811020D02*
D03*
X1108710Y1832610D02*
D03*
X1367790Y1535830D02*
D03*
X1116330Y1450495D02*
D03*
X858067Y1916430D02*
D03*
X1607820Y728980D02*
D03*
X1377950Y1604010D02*
D03*
X1169670Y1515830D02*
D03*
X425450Y1356360D02*
D03*
X1310640Y1484884D02*
D03*
X1773174Y1447292D02*
D03*
X1300988Y1484884D02*
D03*
X412140Y1309116D02*
D03*
X1278636Y1505204D02*
D03*
X1531366Y909320D02*
D03*
X1212850Y1555830D02*
D03*
X1289050Y1670558D02*
D03*
X1288288Y1613916D02*
D03*
X1314450Y1627632D02*
D03*
X1088898Y1439926D02*
D03*
X1178560Y1435608D02*
D03*
X1112416Y1439926D02*
D03*
X1124712Y1666494D02*
D03*
X1142970Y1655542D02*
D03*
X598424Y1122680D02*
D03*
X1326896Y1281684D02*
D03*
X2198270Y1473200D02*
D03*
X2221230Y1489710D02*
D03*
X1325626Y1585910D02*
D03*
Y1976520D02*
D03*
X1348994Y1590294D02*
D03*
X1505966Y1747266D02*
D03*
X1296708Y1584236D02*
D03*
X2179320Y1972710D02*
D03*
X1541714Y1595454D02*
D03*
X1918970Y1972710D02*
D03*
X1600600Y1976520D02*
D03*
X1188435Y1499362D02*
D03*
X1367028Y1493012D02*
D03*
X1203198Y1513332D02*
D03*
X1536192Y1489710D02*
D03*
X1301750Y1650492D02*
D03*
X2150364Y1551686D02*
D03*
X2087263Y1491234D02*
D03*
X1278435Y1664208D02*
D03*
X1273435Y1654556D02*
D03*
X2114949Y1516380D02*
D03*
X1264158Y1568450D02*
D03*
X2146808Y1468882D02*
D03*
X1248435Y1558265D02*
D03*
X2155952Y1455674D02*
D03*
X1213435Y1450495D02*
D03*
X1195324Y1358646D02*
D03*
X1200192Y1332738D02*
D03*
X1280160Y1370838D02*
D03*
X1284986Y1360558D02*
D03*
X1289029Y1379126D02*
D03*
X1287018Y1494790D02*
D03*
X1275334Y1469136D02*
D03*
D139*
X952500Y1344930D02*
D03*
X949960Y1310640D02*
D03*
X468630Y937260D02*
D03*
X2014220Y1662430D02*
D03*
X2015490Y1597660D02*
D03*
X416560Y2023110D02*
D03*
X540868Y1606550D02*
D03*
X676910Y2035810D02*
D03*
X2172970Y1219200D02*
D03*
X2220760Y1941830D02*
D03*
X1992630Y1939290D02*
D03*
X1768640Y1943100D02*
D03*
X1545590Y1949450D02*
D03*
X1311910D02*
D03*
X1090930Y1944370D02*
D03*
X660400Y930910D02*
D03*
X558800D02*
D03*
X609600Y928370D02*
D03*
X494030Y906780D02*
D03*
X452120Y967740D02*
D03*
X660400Y1018540D02*
D03*
X609600D02*
D03*
X558800D02*
D03*
X508000D02*
D03*
D140*
X1959610Y949470D02*
D03*
D141*
Y924220D02*
D03*
M02*
