G04*
G04 #@! TF.GenerationSoftware,Altium Limited,Altium Designer,20.0.1 (14)*
G04*
G04 Layer_Color=8388736*
%FSLAX44Y44*%
%MOMM*%
G71*
G01*
G75*
%ADD61R,3.2032X1.8032*%
%ADD62R,6.9032X6.9032*%
%ADD63R,2.2032X0.8032*%
%ADD64C,2.2032*%
%ADD65R,1.4032X1.8532*%
%ADD66R,3.6032X3.9032*%
%ADD67R,0.8032X1.4032*%
%ADD68R,1.0532X1.1532*%
%ADD69R,0.6632X0.8482*%
%ADD70R,1.8532X1.4032*%
%ADD71C,2.2032*%
%ADD72R,1.1032X1.2032*%
%ADD73R,3.6532X2.0532*%
%ADD74R,1.2032X1.1032*%
%ADD75R,1.8032X3.4032*%
%ADD76R,1.1532X1.0532*%
%ADD77R,2.5032X3.2532*%
%ADD78R,1.7282X0.8532*%
%ADD79R,2.0532X3.2032*%
%ADD80R,0.6332X0.6350*%
%ADD81R,0.5532X0.6604*%
%ADD82R,0.5532X0.6350*%
%ADD83R,1.6032X0.6532*%
%ADD84R,4.4032X2.3032*%
%ADD85R,0.6532X1.6032*%
%ADD86R,1.6532X2.2032*%
%ADD87R,0.9032X0.9532*%
%ADD88R,1.4032X0.6032*%
%ADD89R,1.4032X0.5334*%
%ADD90R,1.0532X1.2032*%
%ADD91R,0.6282X0.5032*%
%ADD92R,1.2032X0.9032*%
%ADD93R,0.5032X1.6782*%
%ADD94R,1.6782X0.5032*%
%ADD95R,1.5532X1.3532*%
%ADD96R,5.9032X1.8032*%
%ADD97R,0.7532X1.2532*%
%ADD98R,2.0032X1.5032*%
%ADD99R,2.3532X2.4032*%
%ADD100R,2.8032X1.4032*%
%ADD101R,0.8032X1.4532*%
%ADD102C,5.2032*%
%ADD103R,2.1532X2.1532*%
%ADD104C,2.1532*%
%ADD105C,3.2032*%
%ADD106R,3.2032X3.2032*%
%ADD107R,2.1532X2.1532*%
%ADD108C,1.7032*%
%ADD109R,1.7032X1.7032*%
%ADD110C,1.8032*%
%ADD111R,1.8032X1.8032*%
%ADD112C,2.3032*%
%ADD113C,3.4932*%
%ADD114C,1.9732*%
D61*
X491610Y2089150D02*
D03*
Y2134870D02*
D03*
D62*
X570110Y2112010D02*
D03*
D63*
X2171360Y1563732D02*
D03*
Y1551033D02*
D03*
Y1525632D02*
D03*
Y1487533D02*
D03*
Y1462133D02*
D03*
Y1449433D02*
D03*
X2128860Y1563732D02*
D03*
Y1551033D02*
D03*
Y1525632D02*
D03*
Y1487533D02*
D03*
Y1462133D02*
D03*
Y1449433D02*
D03*
X2171360Y1538333D02*
D03*
Y1512932D02*
D03*
Y1500233D02*
D03*
Y1474832D02*
D03*
X2128860Y1538333D02*
D03*
Y1512932D02*
D03*
Y1500233D02*
D03*
Y1474832D02*
D03*
D64*
X292100Y977900D02*
D03*
Y1706880D02*
D03*
X2296160Y1697990D02*
D03*
Y862330D02*
D03*
D65*
X1353760Y1510830D02*
D03*
X1381760D02*
D03*
X2024350Y969110D02*
D03*
X2052350D02*
D03*
D66*
X1406730Y936823D02*
D03*
D67*
X1425780Y830322D02*
D03*
X1413080D02*
D03*
X1387680D02*
D03*
X1400380D02*
D03*
D68*
X1703220Y736600D02*
D03*
X1690220D02*
D03*
X1703260Y679450D02*
D03*
X1690260D02*
D03*
X1424660Y755650D02*
D03*
X1411660D02*
D03*
X1073300Y719825D02*
D03*
X1060300D02*
D03*
X1220620Y1680210D02*
D03*
X1207620D02*
D03*
X2239010Y1527810D02*
D03*
X2252010D02*
D03*
D69*
X2004600Y977800D02*
D03*
X1994600D02*
D03*
X1999600Y962760D02*
D03*
X2113360Y849730D02*
D03*
X2123360D02*
D03*
X2118360Y864770D02*
D03*
D70*
X1959610Y1004540D02*
D03*
Y1032540D02*
D03*
X2000250Y1003240D02*
D03*
Y1031240D02*
D03*
X2172970Y848330D02*
D03*
Y876330D02*
D03*
X1767840Y2007840D02*
D03*
Y2035840D02*
D03*
X1544409Y2005300D02*
D03*
Y2033300D02*
D03*
X1994700Y2002730D02*
D03*
Y2030730D02*
D03*
X2220760Y2007840D02*
D03*
Y2035840D02*
D03*
X1316990Y2007840D02*
D03*
Y2035840D02*
D03*
X1090930Y2006570D02*
D03*
Y2034570D02*
D03*
X684530Y1064290D02*
D03*
Y1036290D02*
D03*
X633730Y1064290D02*
D03*
Y1036290D02*
D03*
X584200Y1064290D02*
D03*
Y1036290D02*
D03*
Y1115090D02*
D03*
Y1087090D02*
D03*
X532130Y1064290D02*
D03*
Y1036290D02*
D03*
Y1115090D02*
D03*
Y1087090D02*
D03*
X1109140Y1094770D02*
D03*
Y1066770D02*
D03*
X1046480Y1572290D02*
D03*
Y1544290D02*
D03*
X684530Y1087090D02*
D03*
Y1115090D02*
D03*
X633730Y1087090D02*
D03*
Y1115090D02*
D03*
X1773350Y1032480D02*
D03*
Y1060480D02*
D03*
X859790Y1998980D02*
D03*
Y1970980D02*
D03*
D71*
X2239010Y1500877D02*
D03*
X317500Y1404620D02*
D03*
X345440Y2139950D02*
D03*
X2061210Y1550830D02*
D03*
X1595120Y779780D02*
D03*
X1092200Y822960D02*
D03*
X557530Y2023110D02*
D03*
X962660Y1938020D02*
D03*
X739140Y1940560D02*
D03*
X838200Y1844040D02*
D03*
X1455420Y689610D02*
D03*
X2207260Y1314450D02*
D03*
D72*
X1405490Y811530D02*
D03*
X1418990D02*
D03*
X1576540Y737870D02*
D03*
X1590040D02*
D03*
X1410570Y669290D02*
D03*
X1424070D02*
D03*
X1060050Y671740D02*
D03*
X1073550D02*
D03*
X1334370Y1602740D02*
D03*
X1347870D02*
D03*
X1173080Y1677670D02*
D03*
X1186580D02*
D03*
X1173080Y1658620D02*
D03*
X1186580D02*
D03*
X1313223Y1443990D02*
D03*
X1299723D02*
D03*
X1313223Y1463040D02*
D03*
X1299723D02*
D03*
X1178960Y1443990D02*
D03*
X1165460D02*
D03*
X1178960Y1463040D02*
D03*
X1165460D02*
D03*
X721760Y2011680D02*
D03*
X708260D02*
D03*
D73*
X764750Y1313180D02*
D03*
X822750D02*
D03*
D74*
X1545590Y1976520D02*
D03*
Y1963020D02*
D03*
X1280160Y1446130D02*
D03*
Y1459630D02*
D03*
X861060Y1784750D02*
D03*
Y1771250D02*
D03*
X2204720Y1506983D02*
D03*
Y1493483D02*
D03*
X2092960Y1551070D02*
D03*
Y1537570D02*
D03*
X1767955Y1976520D02*
D03*
Y1963020D02*
D03*
X1993240Y1972710D02*
D03*
Y1959210D02*
D03*
X2220760Y1972710D02*
D03*
Y1959210D02*
D03*
X1316990Y1976520D02*
D03*
Y1963020D02*
D03*
X1090930Y1976520D02*
D03*
Y1963020D02*
D03*
X1702325Y717950D02*
D03*
Y704450D02*
D03*
X1684283Y718307D02*
D03*
Y704807D02*
D03*
X1574800Y719577D02*
D03*
Y706077D02*
D03*
X1386410Y676510D02*
D03*
Y690010D02*
D03*
X1094740Y785730D02*
D03*
Y799230D02*
D03*
X1356360Y842410D02*
D03*
Y828910D02*
D03*
X1050290Y818280D02*
D03*
Y804780D02*
D03*
X1096010Y690080D02*
D03*
Y703580D02*
D03*
X1133722Y1472330D02*
D03*
Y1458830D02*
D03*
X1115680Y1472330D02*
D03*
Y1458830D02*
D03*
X1069340Y1542650D02*
D03*
Y1556150D02*
D03*
X1331705Y1565040D02*
D03*
Y1551540D02*
D03*
X1349747Y1565040D02*
D03*
Y1551540D02*
D03*
X1367790Y1565040D02*
D03*
Y1551540D02*
D03*
X1331967Y1634533D02*
D03*
Y1621033D02*
D03*
X1350010Y1634533D02*
D03*
Y1621033D02*
D03*
X1117600Y1538370D02*
D03*
Y1524870D02*
D03*
X1135643Y1538370D02*
D03*
Y1524870D02*
D03*
X1116330Y1568050D02*
D03*
Y1581550D02*
D03*
X1135380Y1568050D02*
D03*
Y1581550D02*
D03*
X2208530Y1559603D02*
D03*
Y1546103D02*
D03*
X963930Y1768310D02*
D03*
Y1781810D02*
D03*
D75*
X416560Y2098910D02*
D03*
Y2048910D02*
D03*
D76*
X1130300Y1601320D02*
D03*
Y1614320D02*
D03*
X1664970Y705970D02*
D03*
Y718970D02*
D03*
X1573530Y688285D02*
D03*
Y675285D02*
D03*
X1069340Y803610D02*
D03*
Y816610D02*
D03*
X1396570Y791360D02*
D03*
Y778360D02*
D03*
X1432655Y791360D02*
D03*
Y778360D02*
D03*
X1075643Y689282D02*
D03*
Y702283D02*
D03*
X1056640Y689282D02*
D03*
Y702283D02*
D03*
X1212850Y1788305D02*
D03*
Y1801305D02*
D03*
X1184910Y1788305D02*
D03*
Y1801305D02*
D03*
X1209040Y1710540D02*
D03*
Y1723540D02*
D03*
X1079500Y1455570D02*
D03*
Y1442570D02*
D03*
X1132840Y1503830D02*
D03*
Y1490830D02*
D03*
X1502410Y705057D02*
D03*
Y718057D02*
D03*
X1238250Y1801305D02*
D03*
Y1788305D02*
D03*
X1289050Y1801305D02*
D03*
Y1788305D02*
D03*
X933450Y1984860D02*
D03*
Y1997860D02*
D03*
X468630Y967740D02*
D03*
Y954740D02*
D03*
D77*
X885750Y1852930D02*
D03*
X955750D02*
D03*
X631900Y1600200D02*
D03*
X561900D02*
D03*
X403150Y1357258D02*
D03*
X473150D02*
D03*
D78*
X886010Y1785620D02*
D03*
Y1772920D02*
D03*
Y1760220D02*
D03*
Y1747520D02*
D03*
X940250D02*
D03*
Y1760220D02*
D03*
Y1772920D02*
D03*
Y1785620D02*
D03*
X2128970Y1334770D02*
D03*
Y1322070D02*
D03*
Y1309370D02*
D03*
Y1296670D02*
D03*
X2074730D02*
D03*
Y1309370D02*
D03*
Y1322070D02*
D03*
Y1334770D02*
D03*
D79*
X2029460Y1293910D02*
D03*
Y1329910D02*
D03*
X2172970Y1243110D02*
D03*
Y1279110D02*
D03*
D80*
X2094750Y1518860D02*
D03*
D81*
X2083150D02*
D03*
Y1511360D02*
D03*
D82*
X2095150D02*
D03*
D83*
X1599380Y697038D02*
D03*
Y703537D02*
D03*
Y710038D02*
D03*
Y716538D02*
D03*
X1643380D02*
D03*
Y710038D02*
D03*
Y703537D02*
D03*
Y697038D02*
D03*
D84*
X756750Y1677670D02*
D03*
X830750D02*
D03*
D85*
X1425370Y690687D02*
D03*
X1418870D02*
D03*
X1412370D02*
D03*
X1405870D02*
D03*
Y734687D02*
D03*
X1412370D02*
D03*
X1418870D02*
D03*
X1425370D02*
D03*
X1055780Y783867D02*
D03*
X1062280D02*
D03*
X1068780D02*
D03*
X1075280D02*
D03*
Y739867D02*
D03*
X1068780D02*
D03*
X1062280D02*
D03*
X1055780D02*
D03*
D86*
X685800Y998500D02*
D03*
X660400D02*
D03*
X635000D02*
D03*
X609600D02*
D03*
X584200D02*
D03*
X558800D02*
D03*
X533400D02*
D03*
X508000D02*
D03*
Y906500D02*
D03*
X533400D02*
D03*
X558800D02*
D03*
X584200D02*
D03*
X609600D02*
D03*
X635000D02*
D03*
X660400D02*
D03*
X685800D02*
D03*
D87*
X1770810Y1004450D02*
D03*
Y989450D02*
D03*
X1106600Y1038740D02*
D03*
Y1023740D02*
D03*
X885190Y1998980D02*
D03*
Y1983980D02*
D03*
D88*
X1278790Y1722270D02*
D03*
Y1709270D02*
D03*
D89*
X1259790D02*
D03*
Y1715770D02*
D03*
Y1722270D02*
D03*
D90*
X1080390Y1473200D02*
D03*
X1096390D02*
D03*
D91*
X1013670Y1388110D02*
D03*
X1007420D02*
D03*
D92*
X1024410Y1417870D02*
D03*
X964410D02*
D03*
X1024410Y1454870D02*
D03*
X964410D02*
D03*
D93*
X1173435Y1638210D02*
D03*
X1178435D02*
D03*
X1183435D02*
D03*
X1188435D02*
D03*
X1193435D02*
D03*
X1198435D02*
D03*
X1203435D02*
D03*
X1208435D02*
D03*
X1213435D02*
D03*
X1218435D02*
D03*
X1223435D02*
D03*
X1228435D02*
D03*
X1233435D02*
D03*
X1238435D02*
D03*
X1243435D02*
D03*
X1248435D02*
D03*
X1253435D02*
D03*
X1258435D02*
D03*
X1263435D02*
D03*
X1268435D02*
D03*
X1273435D02*
D03*
X1278435D02*
D03*
X1283435D02*
D03*
X1288435D02*
D03*
X1293435D02*
D03*
Y1483450D02*
D03*
X1288435D02*
D03*
X1283435D02*
D03*
X1278435D02*
D03*
X1273435D02*
D03*
X1268435D02*
D03*
X1263435D02*
D03*
X1258435D02*
D03*
X1253435D02*
D03*
X1248435D02*
D03*
X1243435D02*
D03*
X1238435D02*
D03*
X1233435D02*
D03*
X1228435D02*
D03*
X1223435D02*
D03*
X1218435D02*
D03*
X1213435D02*
D03*
X1208435D02*
D03*
X1203435D02*
D03*
X1198435D02*
D03*
X1193435D02*
D03*
X1188435D02*
D03*
X1183435D02*
D03*
X1178435D02*
D03*
X1173435D02*
D03*
D94*
X1310815Y1620830D02*
D03*
Y1615830D02*
D03*
Y1610830D02*
D03*
Y1605830D02*
D03*
Y1600830D02*
D03*
Y1595830D02*
D03*
Y1590830D02*
D03*
Y1585830D02*
D03*
Y1580830D02*
D03*
Y1575830D02*
D03*
Y1570830D02*
D03*
Y1565830D02*
D03*
Y1560830D02*
D03*
Y1555830D02*
D03*
Y1550830D02*
D03*
Y1545830D02*
D03*
Y1540830D02*
D03*
Y1535830D02*
D03*
Y1530830D02*
D03*
Y1525830D02*
D03*
Y1520830D02*
D03*
Y1515830D02*
D03*
Y1510830D02*
D03*
Y1505830D02*
D03*
Y1500830D02*
D03*
X1156055D02*
D03*
Y1505830D02*
D03*
Y1510830D02*
D03*
Y1515830D02*
D03*
Y1520830D02*
D03*
Y1525830D02*
D03*
Y1530830D02*
D03*
Y1535830D02*
D03*
Y1540830D02*
D03*
Y1545830D02*
D03*
Y1550830D02*
D03*
Y1555830D02*
D03*
Y1560830D02*
D03*
Y1565830D02*
D03*
Y1570830D02*
D03*
Y1575830D02*
D03*
Y1580830D02*
D03*
Y1585830D02*
D03*
Y1590830D02*
D03*
Y1595830D02*
D03*
Y1600830D02*
D03*
Y1605830D02*
D03*
Y1610830D02*
D03*
Y1615830D02*
D03*
Y1620830D02*
D03*
D95*
X880110Y1949310D02*
D03*
Y1931810D02*
D03*
X858067Y1949310D02*
D03*
Y1931810D02*
D03*
D96*
X804998Y1951350D02*
D03*
Y1998350D02*
D03*
D97*
X707662Y1992930D02*
D03*
X717162D02*
D03*
X726663D02*
D03*
Y1966930D02*
D03*
X717162D02*
D03*
X707662D02*
D03*
D98*
X749955Y1964160D02*
D03*
Y1993160D02*
D03*
D99*
X674370Y1970630D02*
D03*
Y2014630D02*
D03*
D100*
X1729790Y754380D02*
D03*
Y728980D02*
D03*
Y703580D02*
D03*
Y678180D02*
D03*
X1894790Y754380D02*
D03*
Y728980D02*
D03*
Y703580D02*
D03*
Y678180D02*
D03*
D101*
X412140Y1289390D02*
D03*
X393040D02*
D03*
X402590Y1268390D02*
D03*
D102*
X2286000Y670560D02*
D03*
Y1817370D02*
D03*
X294640Y1784350D02*
D03*
Y872490D02*
D03*
D103*
X695160Y2098040D02*
D03*
X1140460Y2103120D02*
D03*
X2270760D02*
D03*
X2044700Y2103932D02*
D03*
X1818640D02*
D03*
X1592580D02*
D03*
X1366520Y2103120D02*
D03*
X874560Y717550D02*
D03*
X696760D02*
D03*
X492290D02*
D03*
X323850D02*
D03*
D104*
X645160Y2098040D02*
D03*
X1090460Y2103120D02*
D03*
X2220760D02*
D03*
X1994700Y2103932D02*
D03*
X1768640D02*
D03*
X1542580D02*
D03*
X1316520Y2103120D02*
D03*
X309880Y2045991D02*
D03*
Y1890560D02*
D03*
X313690Y1298740D02*
D03*
X924560Y717550D02*
D03*
X746760D02*
D03*
X542290D02*
D03*
X373850D02*
D03*
D105*
X2190260Y753378D02*
D03*
X696760Y1600748D02*
D03*
X798360D02*
D03*
X899960D02*
D03*
X772960Y1397548D02*
D03*
X823760D02*
D03*
X1479550Y1470152D02*
D03*
X2284000Y1506580D02*
D03*
D106*
X2080260Y753378D02*
D03*
D107*
X309880Y2095992D02*
D03*
Y1940560D02*
D03*
X313690Y1348740D02*
D03*
D108*
X1187450Y1757680D02*
D03*
X1212850D02*
D03*
X1238250D02*
D03*
X1263650D02*
D03*
X1289050D02*
D03*
X1137080Y1348740D02*
D03*
X1162480D02*
D03*
X1187880D02*
D03*
X1213280D02*
D03*
X1238680D02*
D03*
X1264080D02*
D03*
X1289480D02*
D03*
X1314880D02*
D03*
X1340280D02*
D03*
X1365680D02*
D03*
X1391080D02*
D03*
X1416480D02*
D03*
D109*
X1314450Y1757680D02*
D03*
X1111680Y1348740D02*
D03*
D110*
X1247879Y662940D02*
D03*
Y688340D02*
D03*
Y713740D02*
D03*
Y739140D02*
D03*
X1117078Y662940D02*
D03*
Y688340D02*
D03*
Y713740D02*
D03*
D111*
Y739140D02*
D03*
D112*
X447350Y1427800D02*
D03*
X507350Y1447800D02*
D03*
Y1569800D02*
D03*
X387350Y1447800D02*
D03*
D113*
X431800Y1849790D02*
D03*
X609600Y1875190D02*
D03*
Y1951390D02*
D03*
D114*
X469900Y1722790D02*
D03*
X571500D02*
D03*
M02*
