G04*
G04 #@! TF.GenerationSoftware,Altium Limited,Altium Designer,20.0.1 (14)*
G04*
G04 Layer_Color=32896*
%FSLAX44Y44*%
%MOMM*%
G71*
G01*
G75*
%ADD10C,0.2540*%
%ADD13C,0.2000*%
%ADD14C,0.1000*%
%ADD15C,0.4000*%
%ADD144C,1.5240*%
%ADD145C,0.1778*%
G36*
X2144602Y1979993D02*
X2134825D01*
Y2040320D01*
X2094607Y1979993D01*
X2084053D01*
Y2056874D01*
X2093829D01*
Y1996436D01*
X2134158Y2056874D01*
X2144602D01*
Y1979993D01*
D02*
G37*
G36*
X1684983D02*
X1675206D01*
Y2040320D01*
X1634988Y1979993D01*
X1624433D01*
Y2056874D01*
X1634210D01*
Y1996436D01*
X1674539Y2056874D01*
X1684983D01*
Y1979993D01*
D02*
G37*
G36*
X1918070D02*
X1908293D01*
Y2045431D01*
X1886073Y1979993D01*
X1876963D01*
X1854521Y2044320D01*
Y1979993D01*
X1844744D01*
Y2056874D01*
X1858409D01*
X1876852Y2003324D01*
X1877852Y2000435D01*
X1878629Y1997991D01*
X1879407Y1995880D01*
X1879963Y1994103D01*
X1880407Y1992770D01*
X1880740Y1991770D01*
X1880851Y1991214D01*
X1880963Y1990992D01*
X1881407Y1992547D01*
X1881962Y1994325D01*
X1882629Y1996214D01*
X1883185Y1998102D01*
X1883740Y1999769D01*
X1884184Y2001102D01*
X1884407Y2001658D01*
X1884518Y2001991D01*
X1884629Y2002213D01*
Y2002324D01*
X1902849Y2056874D01*
X1918070D01*
Y1979993D01*
D02*
G37*
G36*
X1806415D02*
X1795749D01*
X1765752Y2056874D01*
X1776084D01*
X1796971Y2000991D01*
X1797860Y1998658D01*
X1798638Y1996436D01*
X1799304Y1994325D01*
X1799860Y1992436D01*
X1800415Y1990770D01*
X1800749Y1989548D01*
X1800860Y1989103D01*
X1800971Y1988770D01*
X1801082Y1988548D01*
Y1988437D01*
X1802415Y1992881D01*
X1803082Y1994992D01*
X1803748Y1996880D01*
X1804304Y1998547D01*
X1804526Y1999213D01*
X1804637Y1999880D01*
X1804859Y2000324D01*
X1804970Y2000658D01*
X1805081Y2000880D01*
Y2000991D01*
X1825079Y2056874D01*
X1836189D01*
X1806415Y1979993D01*
D02*
G37*
G36*
X1995173Y2012434D02*
Y2010212D01*
X1995062Y2008101D01*
X1994951Y2006102D01*
X1994729Y2004213D01*
X1994506Y2002546D01*
X1994284Y2000991D01*
X1993951Y1999547D01*
X1993729Y1998214D01*
X1993506Y1996991D01*
X1993173Y1995992D01*
X1992951Y1995103D01*
X1992729Y1994436D01*
X1992507Y1993881D01*
X1992395Y1993436D01*
X1992284Y1993214D01*
Y1993103D01*
X1991062Y1990659D01*
X1989507Y1988437D01*
X1987951Y1986659D01*
X1986285Y1985104D01*
X1984841Y1983882D01*
X1983618Y1982993D01*
X1983174Y1982771D01*
X1982841Y1982549D01*
X1982619Y1982326D01*
X1982507D01*
X1979730Y1981104D01*
X1976841Y1980215D01*
X1973842Y1979549D01*
X1971064Y1979104D01*
X1969842Y1978993D01*
X1968620Y1978882D01*
X1967509Y1978771D01*
X1966620D01*
X1965843Y1978660D01*
X1964843D01*
X1960843Y1978882D01*
X1959066Y1979104D01*
X1957399Y1979327D01*
X1955733Y1979660D01*
X1954288Y1979993D01*
X1952955Y1980327D01*
X1951733Y1980771D01*
X1950622Y1981215D01*
X1949733Y1981549D01*
X1948844Y1981882D01*
X1948178Y1982215D01*
X1947622Y1982549D01*
X1947289Y1982660D01*
X1947067Y1982882D01*
X1946956D01*
X1944512Y1984548D01*
X1942512Y1986437D01*
X1940956Y1988215D01*
X1939623Y1989992D01*
X1938623Y1991548D01*
X1937957Y1992770D01*
X1937734Y1993214D01*
X1937512Y1993547D01*
X1937401Y1993770D01*
Y1993881D01*
X1936957Y1995214D01*
X1936512Y1996658D01*
X1935846Y1999658D01*
X1935401Y2002769D01*
X1935068Y2005768D01*
X1934957Y2007101D01*
X1934846Y2008435D01*
Y2009546D01*
X1934735Y2010546D01*
Y2011323D01*
Y2011879D01*
Y2012323D01*
Y2012434D01*
Y2056874D01*
X1944956D01*
Y2012434D01*
Y2009879D01*
X1945178Y2007435D01*
X1945400Y2005324D01*
X1945734Y2003324D01*
X1946067Y2001546D01*
X1946511Y1999880D01*
X1946845Y1998436D01*
X1947289Y1997214D01*
X1947733Y1996214D01*
X1948178Y1995214D01*
X1948622Y1994547D01*
X1948956Y1993881D01*
X1949289Y1993436D01*
X1949511Y1993103D01*
X1949622Y1992992D01*
X1949733Y1992881D01*
X1950733Y1991992D01*
X1951844Y1991214D01*
X1954288Y1989992D01*
X1956844Y1989103D01*
X1959510Y1988548D01*
X1961954Y1988103D01*
X1962954Y1987992D01*
X1963954D01*
X1964621Y1987881D01*
X1965732D01*
X1968065Y1987992D01*
X1970175Y1988326D01*
X1972175Y1988659D01*
X1973731Y1989214D01*
X1975064Y1989659D01*
X1976064Y1989992D01*
X1976619Y1990325D01*
X1976841Y1990437D01*
X1978397Y1991436D01*
X1979730Y1992659D01*
X1980841Y1993881D01*
X1981619Y1994992D01*
X1982285Y1996103D01*
X1982841Y1996880D01*
X1983063Y1997436D01*
X1983174Y1997658D01*
X1983507Y1998658D01*
X1983730Y1999658D01*
X1984174Y2001991D01*
X1984507Y2004435D01*
X1984729Y2006879D01*
X1984841Y2008990D01*
Y2009990D01*
X1984952Y2010768D01*
Y2011434D01*
Y2011990D01*
Y2012323D01*
Y2012434D01*
Y2056874D01*
X1995173D01*
Y2012434D01*
D02*
G37*
G36*
X2216150Y1979993D02*
X2205929D01*
Y2011212D01*
X2186264D01*
X2183376Y2011323D01*
X2180598Y2011546D01*
X2178154Y2011879D01*
X2175932Y2012323D01*
X2173821Y2012768D01*
X2172043Y2013323D01*
X2170377Y2013990D01*
X2168933Y2014656D01*
X2167711Y2015212D01*
X2166600Y2015878D01*
X2165711Y2016434D01*
X2165044Y2016989D01*
X2164489Y2017323D01*
X2164155Y2017656D01*
X2163933Y2017878D01*
X2163822Y2017989D01*
X2162711Y2019323D01*
X2161711Y2020656D01*
X2160934Y2021989D01*
X2160156Y2023433D01*
X2159489Y2024877D01*
X2159045Y2026211D01*
X2158267Y2028766D01*
X2158045Y2029988D01*
X2157823Y2031099D01*
X2157712Y2032099D01*
X2157601Y2032877D01*
X2157489Y2033654D01*
Y2034099D01*
Y2034432D01*
Y2034543D01*
X2157601Y2036654D01*
X2157823Y2038654D01*
X2158267Y2040431D01*
X2158600Y2041987D01*
X2159045Y2043320D01*
X2159489Y2044320D01*
X2159711Y2044875D01*
X2159823Y2045098D01*
X2160711Y2046764D01*
X2161822Y2048208D01*
X2162822Y2049541D01*
X2163822Y2050541D01*
X2164711Y2051319D01*
X2165378Y2051986D01*
X2165822Y2052319D01*
X2166044Y2052430D01*
X2167488Y2053319D01*
X2169155Y2054097D01*
X2170710Y2054763D01*
X2172155Y2055319D01*
X2173488Y2055652D01*
X2174488Y2055874D01*
X2175265Y2056096D01*
X2175488D01*
X2177154Y2056319D01*
X2179043Y2056541D01*
X2181042Y2056652D01*
X2182931Y2056763D01*
X2184598Y2056874D01*
X2216150D01*
Y1979993D01*
D02*
G37*
G36*
X2066832D02*
X2009394D01*
Y1989103D01*
X2056611D01*
Y2015212D01*
X2014060D01*
Y2024322D01*
X2056611D01*
Y2047764D01*
X2011171D01*
Y2056874D01*
X2066832D01*
Y1979993D01*
D02*
G37*
G36*
X1756420D02*
X1698981D01*
Y1989103D01*
X1746199D01*
Y2015212D01*
X1703647D01*
Y2024322D01*
X1746199D01*
Y2047764D01*
X1700759D01*
Y2056874D01*
X1756420D01*
Y1979993D01*
D02*
G37*
G36*
X1613101Y2047764D02*
X1587771D01*
Y1979993D01*
X1577549D01*
Y2047764D01*
X1552219D01*
Y2056874D01*
X1613101D01*
Y2047764D01*
D02*
G37*
G36*
X823394Y760730D02*
X813617D01*
Y821057D01*
X773399Y760730D01*
X762845D01*
X762845Y837611D01*
X772621D01*
X772621Y777173D01*
X812951Y837611D01*
X823394D01*
X823394Y760730D01*
D02*
G37*
G36*
X566754Y760730D02*
X556977D01*
Y821057D01*
X516759Y760730D01*
X506205D01*
X506205Y837611D01*
X515981D01*
X515981Y777173D01*
X556311Y837611D01*
X566754D01*
X566754Y760730D01*
D02*
G37*
G36*
X1193800Y760730D02*
X1184023D01*
Y826168D01*
X1161803Y760730D01*
X1152693D01*
X1130251Y825057D01*
Y760730D01*
X1120474Y760730D01*
X1120474Y837611D01*
X1134139Y837611D01*
X1152582Y784061D01*
X1153582Y781172D01*
X1154360Y778728D01*
X1155137Y776617D01*
X1155693Y774840D01*
X1156137Y773506D01*
X1156470Y772507D01*
X1156582Y771951D01*
X1156693Y771729D01*
X1157137Y773284D01*
X1157693Y775062D01*
X1158359Y776951D01*
X1158915Y778839D01*
X1159470Y780506D01*
X1159915Y781839D01*
X1160137Y782394D01*
X1160248Y782728D01*
X1160359Y782950D01*
Y783061D01*
X1178579Y837611D01*
X1193800D01*
X1193800Y760730D01*
D02*
G37*
G36*
X686297Y838722D02*
X689852Y838166D01*
X692963Y837500D01*
X694407Y837055D01*
X695741Y836611D01*
X696963Y836167D01*
X698074Y835722D01*
X698962Y835389D01*
X699851Y835056D01*
X700407Y834722D01*
X700851Y834500D01*
X701184Y834389D01*
X701295Y834278D01*
X704295Y832389D01*
X706851Y830167D01*
X709072Y827945D01*
X710961Y825723D01*
X712405Y823723D01*
X712961Y822835D01*
X713405Y822057D01*
X713850Y821501D01*
X714072Y821057D01*
X714183Y820724D01*
X714294Y820613D01*
X715850Y817169D01*
X716961Y813613D01*
X717738Y810058D01*
X718294Y806836D01*
X718516Y805392D01*
X718627Y803948D01*
X718738Y802837D01*
Y801726D01*
X718849Y800948D01*
Y800281D01*
Y799837D01*
Y799726D01*
X718627Y795726D01*
X718183Y791838D01*
X717627Y788394D01*
X717183Y786727D01*
X716849Y785283D01*
X716516Y783950D01*
X716072Y782728D01*
X715738Y781617D01*
X715516Y780728D01*
X715183Y780061D01*
X715072Y779506D01*
X714850Y779173D01*
Y779061D01*
X713183Y775728D01*
X711294Y772729D01*
X709295Y770173D01*
X708295Y769174D01*
X707406Y768174D01*
X706517Y767285D01*
X705628Y766507D01*
X704851Y765841D01*
X704184Y765396D01*
X703740Y764952D01*
X703295Y764618D01*
X703073Y764507D01*
X702962Y764396D01*
X701407Y763507D01*
X699851Y762730D01*
X696518Y761508D01*
X693185Y760619D01*
X689963Y760063D01*
X688408Y759841D01*
X687075Y759619D01*
X685853Y759508D01*
X684853Y759508D01*
X683964Y759397D01*
X682742D01*
X680520Y759508D01*
X678409Y759730D01*
X676409Y759952D01*
X674520Y760397D01*
X672743Y760952D01*
X671076Y761508D01*
X669521Y762063D01*
X668077Y762730D01*
X666855Y763285D01*
X665632Y763841D01*
X664744Y764396D01*
X663855Y764952D01*
X663299Y765396D01*
X662744Y765618D01*
X662522Y765841D01*
X662411Y765952D01*
X660855Y767285D01*
X659522Y768618D01*
X658300Y770173D01*
X657078Y771729D01*
X655078Y774839D01*
X653523Y777950D01*
X652856Y779395D01*
X652300Y780728D01*
X651856Y781950D01*
X651523Y782950D01*
X651190Y783839D01*
X650967Y784505D01*
X650856Y784950D01*
Y785061D01*
X661077Y787616D01*
X661522Y785838D01*
X662077Y784172D01*
X662633Y782617D01*
X663188Y781172D01*
X663855Y779839D01*
X664521Y778728D01*
X665299Y777617D01*
X665966Y776617D01*
X666521Y775728D01*
X667188Y775062D01*
X667743Y774395D01*
X668188Y773840D01*
X668632Y773506D01*
X668966Y773173D01*
X669077Y773062D01*
X669188Y772951D01*
X670299Y772062D01*
X671521Y771395D01*
X673965Y770173D01*
X676298Y769285D01*
X678631Y768729D01*
X680631Y768285D01*
X681409Y768174D01*
X682186D01*
X682853Y768063D01*
X683631D01*
X686186Y768174D01*
X688630Y768618D01*
X690852Y769174D01*
X692852Y769840D01*
X694407Y770507D01*
X695074Y770840D01*
X695629Y771062D01*
X696074Y771284D01*
X696407Y771507D01*
X696629Y771618D01*
X696740D01*
X698851Y773173D01*
X700629Y774840D01*
X702184Y776728D01*
X703406Y778506D01*
X704406Y780061D01*
X705073Y781394D01*
X705295Y781950D01*
X705517Y782283D01*
X705628Y782505D01*
Y782617D01*
X706517Y785505D01*
X707184Y788394D01*
X707739Y791282D01*
X708073Y793949D01*
X708184Y795171D01*
X708295Y796282D01*
Y797282D01*
X708406Y798059D01*
Y798726D01*
Y799281D01*
Y799615D01*
Y799726D01*
X708295Y802615D01*
X708073Y805281D01*
X707628Y807725D01*
X707184Y809947D01*
X706851Y811836D01*
X706628Y812613D01*
X706406Y813280D01*
X706295Y813836D01*
X706184Y814169D01*
X706073Y814391D01*
Y814502D01*
X704962Y817057D01*
X703740Y819390D01*
X702406Y821279D01*
X700962Y822946D01*
X699740Y824279D01*
X698740Y825168D01*
X697962Y825723D01*
X697851Y825945D01*
X697740D01*
X695407Y827390D01*
X692852Y828501D01*
X690408Y829278D01*
X688075Y829723D01*
X685964Y830056D01*
X685075Y830167D01*
X684297D01*
X683742Y830278D01*
X682853D01*
X680075Y830167D01*
X677520Y829723D01*
X675409Y829056D01*
X673521Y828390D01*
X672076Y827612D01*
X670965Y827056D01*
X670299Y826612D01*
X670077Y826390D01*
X668299Y824723D01*
X666632Y822835D01*
X665299Y820835D01*
X664188Y818835D01*
X663299Y817057D01*
X662966Y816169D01*
X662744Y815502D01*
X662522Y814947D01*
X662299Y814502D01*
X662188Y814280D01*
Y814169D01*
X652189Y816502D01*
X652856Y818502D01*
X653523Y820279D01*
X654411Y821946D01*
X655189Y823612D01*
X656078Y825057D01*
X657078Y826390D01*
X657967Y827723D01*
X658855Y828834D01*
X659744Y829723D01*
X660522Y830611D01*
X661300Y831389D01*
X661855Y831945D01*
X662411Y832500D01*
X662855Y832833D01*
X663077Y832945D01*
X663188Y833056D01*
X664744Y834056D01*
X666299Y835055D01*
X667855Y835833D01*
X669521Y836500D01*
X672854Y837500D01*
X675854Y838166D01*
X677298Y838500D01*
X678520Y838611D01*
X679742Y838722D01*
X680742Y838833D01*
X681520Y838944D01*
X682631D01*
X686297Y838722D01*
D02*
G37*
G36*
X1112364Y760730D02*
X1101587D01*
X1093255Y784061D01*
X1061036D01*
X1052037Y760730D01*
X1040483D01*
X1071924Y837611D01*
X1083034D01*
X1112364Y760730D01*
D02*
G37*
G36*
X1032261D02*
X1004597D01*
X1002042Y760841D01*
X999709Y760952D01*
X997598Y761174D01*
X995820Y761397D01*
X994265Y761619D01*
X993154Y761730D01*
X992821Y761841D01*
X992487Y761952D01*
X992265D01*
X990266Y762508D01*
X988488Y763174D01*
X986933Y763730D01*
X985599Y764396D01*
X984488Y764952D01*
X983711Y765396D01*
X983266Y765730D01*
X983044Y765841D01*
X981600Y766841D01*
X980378Y768063D01*
X979156Y769174D01*
X978156Y770285D01*
X977267Y771284D01*
X976600Y772062D01*
X976156Y772618D01*
X976045Y772840D01*
X974934Y774617D01*
X973823Y776506D01*
X972934Y778284D01*
X972267Y780061D01*
X971601Y781617D01*
X971156Y782839D01*
X971045Y783283D01*
X970934Y783616D01*
X970823Y783839D01*
Y783950D01*
X970156Y786616D01*
X969601Y789283D01*
X969268Y791838D01*
X968934Y794282D01*
X968823Y796393D01*
Y797282D01*
X968712Y798059D01*
Y798615D01*
Y799170D01*
Y799393D01*
Y799504D01*
X968823Y803281D01*
X969157Y806725D01*
X969712Y809836D01*
X969934Y811280D01*
X970268Y812502D01*
X970601Y813725D01*
X970823Y814724D01*
X971045Y815613D01*
X971379Y816391D01*
X971490Y817057D01*
X971712Y817502D01*
X971823Y817724D01*
Y817835D01*
X973045Y820724D01*
X974489Y823279D01*
X976045Y825501D01*
X977489Y827390D01*
X978822Y828945D01*
X979933Y830056D01*
X980378Y830389D01*
X980711Y830723D01*
X980822Y830834D01*
X980933Y830945D01*
X982711Y832389D01*
X984599Y833500D01*
X986488Y834500D01*
X988266Y835278D01*
X989821Y835833D01*
X991043Y836167D01*
X991488Y836389D01*
X991821D01*
X992043Y836500D01*
X992154D01*
X994043Y836833D01*
X996265Y837167D01*
X998487Y837389D01*
X1000709Y837500D01*
X1002709Y837611D01*
X1032261D01*
X1032261Y760730D01*
D02*
G37*
G36*
X954603Y760730D02*
X897164D01*
Y769840D01*
X944381D01*
Y795948D01*
X901830D01*
Y805059D01*
X944381D01*
Y828501D01*
X898942D01*
X898942Y837611D01*
X954603D01*
X954603Y760730D01*
D02*
G37*
G36*
X851502D02*
X841281D01*
X841281Y837611D01*
X851502D01*
X851502Y760730D01*
D02*
G37*
G36*
X646746Y760730D02*
X635969D01*
X627636Y784061D01*
X595418D01*
X586418Y760730D01*
X574864D01*
X606305Y837611D01*
X617415D01*
X646746Y760730D01*
D02*
G37*
G36*
X497539Y760730D02*
X486762D01*
X478430Y784061D01*
X446211D01*
X437212Y760730D01*
X425657D01*
X457099Y837611D01*
X468209D01*
X497539Y760730D01*
D02*
G37*
G36*
X417436D02*
X389772Y760730D01*
X387217Y760841D01*
X384884Y760952D01*
X382773Y761174D01*
X380995Y761396D01*
X379440Y761619D01*
X378329Y761730D01*
X377996Y761841D01*
X377662Y761952D01*
X377440D01*
X375440Y762507D01*
X373663Y763174D01*
X372107Y763729D01*
X370774Y764396D01*
X369663Y764952D01*
X368885Y765396D01*
X368441Y765729D01*
X368219Y765840D01*
X366775Y766840D01*
X365552Y768062D01*
X364330Y769173D01*
X363330Y770284D01*
X362442Y771284D01*
X361775Y772062D01*
X361331Y772617D01*
X361220Y772840D01*
X360109Y774617D01*
X358998Y776506D01*
X358109Y778284D01*
X357442Y780061D01*
X356776Y781617D01*
X356331Y782839D01*
X356220Y783283D01*
X356109Y783616D01*
X355998Y783839D01*
Y783950D01*
X355331Y786616D01*
X354776Y789282D01*
X354442Y791838D01*
X354109Y794282D01*
X353998Y796393D01*
Y797282D01*
X353887Y798059D01*
Y798615D01*
Y799170D01*
Y799392D01*
Y799504D01*
X353998Y803281D01*
X354331Y806725D01*
X354887Y809836D01*
X355109Y811280D01*
X355442Y812502D01*
X355776Y813724D01*
X355998Y814724D01*
X356220Y815613D01*
X356553Y816391D01*
X356665Y817057D01*
X356887Y817502D01*
X356998Y817724D01*
Y817835D01*
X358220Y820724D01*
X359664Y823279D01*
X361220Y825501D01*
X362664Y827390D01*
X363997Y828945D01*
X365108Y830056D01*
X365552Y830389D01*
X365886Y830723D01*
X365997Y830834D01*
X366108Y830945D01*
X367886Y832389D01*
X369774Y833500D01*
X371663Y834500D01*
X373441Y835278D01*
X374996Y835833D01*
X376218Y836167D01*
X376662Y836389D01*
X376996D01*
X377218Y836500D01*
X377329D01*
X379218Y836833D01*
X381440Y837166D01*
X383662Y837389D01*
X385884Y837500D01*
X387883Y837611D01*
X417436Y837611D01*
X417436Y760730D01*
D02*
G37*
G36*
X348332Y760730D02*
X337555D01*
X329223Y784061D01*
X297004D01*
X288005Y760730D01*
X276451D01*
X307892Y837611D01*
X319002D01*
X348332Y760730D01*
D02*
G37*
%LPC*%
G36*
X2205929Y2047764D02*
X2183931D01*
X2181931Y2047653D01*
X2180265Y2047542D01*
X2178932Y2047431D01*
X2178043Y2047209D01*
X2177376Y2047097D01*
X2176932Y2046986D01*
X2176821D01*
X2175376Y2046431D01*
X2174154Y2045764D01*
X2173043Y2045098D01*
X2172043Y2044320D01*
X2171377Y2043542D01*
X2170821Y2042987D01*
X2170488Y2042542D01*
X2170377Y2042431D01*
X2169599Y2041098D01*
X2168933Y2039765D01*
X2168488Y2038320D01*
X2168266Y2037098D01*
X2168044Y2035987D01*
X2167933Y2034987D01*
Y2034432D01*
Y2034321D01*
Y2034210D01*
X2168155Y2031877D01*
X2168599Y2029877D01*
X2169266Y2028099D01*
X2170044Y2026655D01*
X2170821Y2025544D01*
X2171488Y2024655D01*
X2171932Y2024211D01*
X2172155Y2023989D01*
X2172932Y2023322D01*
X2173932Y2022767D01*
X2176043Y2021878D01*
X2178376Y2021211D01*
X2180709Y2020767D01*
X2182820Y2020544D01*
X2183709Y2020433D01*
X2184487D01*
X2185264Y2020322D01*
X2205929D01*
Y2047764D01*
D02*
G37*
G36*
X1077701Y829612D02*
X1076923Y827056D01*
X1076034Y824390D01*
X1075146Y821724D01*
X1074257Y819168D01*
X1073812Y818057D01*
X1073479Y816946D01*
X1073146Y815947D01*
X1072812Y815169D01*
X1072590Y814502D01*
X1072368Y813947D01*
X1072257Y813613D01*
Y813502D01*
X1064258Y792393D01*
X1090255D01*
X1081923Y814836D01*
X1080923Y817613D01*
X1080145Y820279D01*
X1079367Y822724D01*
X1078812Y824946D01*
X1078367Y826834D01*
X1078145Y827612D01*
X1078034Y828390D01*
X1077812Y828834D01*
Y829278D01*
X1077701Y829501D01*
Y829612D01*
D02*
G37*
G36*
X1022040Y828501D02*
X1004264D01*
X1002820Y828390D01*
X1001376D01*
X1000042Y828279D01*
X997820Y827945D01*
X996043Y827723D01*
X994598Y827390D01*
X993598Y827056D01*
X993043Y826945D01*
X992821Y826834D01*
X990821Y825834D01*
X988932Y824612D01*
X987266Y823168D01*
X985822Y821724D01*
X984711Y820390D01*
X983822Y819279D01*
X983600Y818835D01*
X983377Y818502D01*
X983155Y818280D01*
Y818168D01*
X982489Y816946D01*
X981822Y815502D01*
X980822Y812614D01*
X980155Y809503D01*
X979600Y806503D01*
X979489Y805170D01*
X979378Y803837D01*
X979267Y802726D01*
Y801726D01*
X979156Y800837D01*
Y800281D01*
Y799837D01*
Y799726D01*
X979267Y796615D01*
X979489Y793727D01*
X979822Y791171D01*
X980155Y788949D01*
X980378Y788061D01*
X980600Y787283D01*
X980822Y786505D01*
X980933Y785950D01*
X981044Y785505D01*
X981155Y785172D01*
X981266Y784950D01*
Y784839D01*
X982044Y782728D01*
X982933Y780839D01*
X983933Y779173D01*
X984822Y777728D01*
X985599Y776617D01*
X986266Y775839D01*
X986710Y775395D01*
X986821Y775173D01*
X987932Y774284D01*
X989043Y773506D01*
X990154Y772840D01*
X991265Y772173D01*
X992265Y771729D01*
X993043Y771395D01*
X993598Y771284D01*
X993821Y771173D01*
X995487Y770729D01*
X997487Y770396D01*
X999487Y770173D01*
X1001376Y770062D01*
X1003042Y769951D01*
X1003820Y769840D01*
X1022040D01*
Y828501D01*
D02*
G37*
G36*
X612082Y829612D02*
X611305Y827056D01*
X610416Y824390D01*
X609527Y821724D01*
X608638Y819168D01*
X608194Y818057D01*
X607861Y816946D01*
X607527Y815946D01*
X607194Y815169D01*
X606972Y814502D01*
X606750Y813947D01*
X606639Y813613D01*
Y813502D01*
X598639Y792393D01*
X624637D01*
X616304Y814835D01*
X615304Y817613D01*
X614527Y820279D01*
X613749Y822723D01*
X613194Y824946D01*
X612749Y826834D01*
X612527Y827612D01*
X612416Y828390D01*
X612194Y828834D01*
Y829278D01*
X612082Y829501D01*
Y829612D01*
D02*
G37*
G36*
X462876Y829612D02*
X462098Y827056D01*
X461209Y824390D01*
X460320Y821724D01*
X459432Y819168D01*
X458987Y818057D01*
X458654Y816946D01*
X458321Y815946D01*
X457987Y815169D01*
X457765Y814502D01*
X457543Y813947D01*
X457432Y813613D01*
Y813502D01*
X449433Y792393D01*
X475430D01*
X467098Y814835D01*
X466098Y817613D01*
X465320Y820279D01*
X464542Y822723D01*
X463987Y824945D01*
X463542Y826834D01*
X463320Y827612D01*
X463209Y828390D01*
X462987Y828834D01*
Y829278D01*
X462876Y829501D01*
Y829612D01*
D02*
G37*
G36*
X407215Y828501D02*
X389439Y828501D01*
X387995Y828390D01*
X386550D01*
X385217Y828278D01*
X382995Y827945D01*
X381217Y827723D01*
X379773Y827390D01*
X378773Y827056D01*
X378218Y826945D01*
X377996Y826834D01*
X375996Y825834D01*
X374107Y824612D01*
X372441Y823168D01*
X370996Y821723D01*
X369885Y820390D01*
X368997Y819279D01*
X368774Y818835D01*
X368552Y818502D01*
X368330Y818279D01*
Y818168D01*
X367663Y816946D01*
X366997Y815502D01*
X365997Y812613D01*
X365330Y809503D01*
X364775Y806503D01*
X364664Y805170D01*
X364553Y803837D01*
X364441Y802726D01*
Y801726D01*
X364330Y800837D01*
Y800281D01*
Y799837D01*
Y799726D01*
X364441Y796615D01*
X364664Y793726D01*
X364997Y791171D01*
X365330Y788949D01*
X365552Y788060D01*
X365775Y787283D01*
X365997Y786505D01*
X366108Y785949D01*
X366219Y785505D01*
X366330Y785172D01*
X366441Y784950D01*
Y784838D01*
X367219Y782728D01*
X368108Y780839D01*
X369108Y779172D01*
X369996Y777728D01*
X370774Y776617D01*
X371441Y775839D01*
X371885Y775395D01*
X371996Y775173D01*
X373107Y774284D01*
X374218Y773506D01*
X375329Y772840D01*
X376440Y772173D01*
X377440Y771729D01*
X378218Y771395D01*
X378773Y771284D01*
X378996Y771173D01*
X380662Y770729D01*
X382662Y770396D01*
X384662Y770173D01*
X386550Y770062D01*
X388217Y769951D01*
X388994Y769840D01*
X407215Y769840D01*
Y828501D01*
D02*
G37*
G36*
X313669Y829612D02*
X312891Y827056D01*
X312003Y824390D01*
X311114Y821723D01*
X310225Y819168D01*
X309781Y818057D01*
X309447Y816946D01*
X309114Y815946D01*
X308781Y815169D01*
X308558Y814502D01*
X308336Y813947D01*
X308225Y813613D01*
Y813502D01*
X300226Y792393D01*
X326223D01*
X317891Y814835D01*
X316891Y817613D01*
X316113Y820279D01*
X315336Y822723D01*
X314780Y824945D01*
X314336Y826834D01*
X314113Y827612D01*
X314002Y828390D01*
X313780Y828834D01*
Y829278D01*
X313669Y829501D01*
Y829612D01*
D02*
G37*
%LPD*%
D10*
X1981454Y987802D02*
Y975106D01*
X1972990D01*
X1960294Y987802D02*
X1968758D01*
Y975106D01*
X1960294D01*
X1968758Y981454D02*
X1964526D01*
X1956062Y987802D02*
Y975106D01*
X1949714D01*
X1947598Y977222D01*
Y985686D01*
X1949714Y987802D01*
X1956062D01*
X1937018Y975106D02*
Y987802D01*
X1943366Y981454D01*
X1934902D01*
X2222500Y848623D02*
Y835928D01*
X2216152D01*
X2214036Y838044D01*
Y840160D01*
X2216152Y842275D01*
X2222500D01*
X2216152D01*
X2214036Y844391D01*
Y846507D01*
X2216152Y848623D01*
X2222500D01*
X2209804Y835928D02*
X2205572D01*
X2207688D01*
Y848623D01*
X2209804Y846507D01*
D13*
X1960610Y906780D02*
G03*
X1958610Y906780I-1000J0D01*
G01*
D02*
G03*
X1960610Y906780I1000J0D01*
G01*
X2103610Y753378D02*
X2166910D01*
X2135260D02*
X2166910D01*
X2103610D02*
X2135260D01*
D14*
X1945610Y919220D02*
Y950220D01*
X1973610Y919220D02*
Y950220D01*
D15*
X2217760Y753378D02*
G03*
X2217760Y753378I-82500J0D01*
G01*
D144*
X2128520Y1578610D02*
D03*
D145*
X1301242Y2090674D02*
X1303020D01*
X1299464Y2088896D02*
X1303020D01*
X1297686Y2087118D02*
X1304798D01*
X1297686Y2085340D02*
X1304798D01*
X1295908Y2083562D02*
X1306576D01*
X1295908Y2081784D02*
X1306576D01*
X1294130Y2080006D02*
X1308354D01*
X1295908Y2078228D02*
X1308354D01*
X1292352Y2076450D02*
X1310132D01*
X1292352Y2074672D02*
X1310132D01*
X1290574Y2072894D02*
X1311910D01*
X1290574Y2071116D02*
X1313688D01*
X1290574Y2069338D02*
X1313688D01*
X1288796Y2067560D02*
X1315466D01*
X1288796Y2065782D02*
X1315466D01*
X1287018Y2064004D02*
X1317244D01*
X1285240Y2062226D02*
X1317244D01*
X1285240Y2060448D02*
X1317244D01*
X1285240Y2058670D02*
X1319022D01*
X1283462Y2056892D02*
X1320800D01*
X1281684Y2055114D02*
X1320800D01*
X1281684Y2053336D02*
X1322578D01*
X1279906Y2051558D02*
X1322578D01*
X1279906Y2049780D02*
X1324356D01*
X1278128Y2048002D02*
X1324356D01*
X1278128Y2046224D02*
X1326134D01*
X1276350Y2044446D02*
X1326134D01*
X1276350Y2042668D02*
X1327912D01*
X1274572Y2040890D02*
X1327912D01*
X1274572Y2039112D02*
X1329690D01*
X1272794Y2037334D02*
X1331468D01*
X1272794Y2035556D02*
X1331468D01*
X1271016Y2033778D02*
X1331468D01*
X1271016Y2032000D02*
X1333246D01*
X1269238Y2030222D02*
X1335024D01*
X1269238Y2028444D02*
X1335024D01*
X1267460Y2026666D02*
X1335024D01*
X1267460Y2024888D02*
X1336802D01*
X1265682Y2023110D02*
X1338580D01*
X1265682Y2021332D02*
X1338580D01*
X1263904Y2019554D02*
X1340358D01*
X1262126Y2017776D02*
X1340358D01*
X1262126Y2015998D02*
X1340358D01*
X1260348Y2014220D02*
X1342136D01*
X1260348Y2012442D02*
X1343914D01*
X1260348Y2010664D02*
X1343914D01*
X1258570Y2008886D02*
X1345692D01*
X1258570Y2007108D02*
X1345692D01*
X1258570Y2005330D02*
X1345692D01*
X1255014Y2003552D02*
X1347470D01*
X1255014Y2001774D02*
X1347470D01*
X1253236Y1999996D02*
X1349248D01*
X1253236Y1998218D02*
X1351026D01*
X1253236Y1996440D02*
X1351026D01*
X1249680Y1994662D02*
X1352804D01*
X1249680Y1992884D02*
X1352804D01*
X1249680Y1991106D02*
X1352804D01*
X1247902Y1989328D02*
X1356360D01*
X1247902Y1987550D02*
X1356360D01*
X1247902Y1985772D02*
X1356360D01*
X1244346Y1983994D02*
X1358138D01*
X1244346Y1982216D02*
X1358138D01*
X1244346Y1980438D02*
X1358138D01*
X1242568Y1978660D02*
X1359916D01*
X1242568Y1976882D02*
X1359916D01*
X1242568Y1975104D02*
X1359916D01*
X1240790Y1973326D02*
X1363472D01*
X1240790Y1971548D02*
X1363472D01*
X1237234Y1969770D02*
X1365250D01*
X1237234Y1967992D02*
X1365250D01*
X1237234Y1966214D02*
X1365250D01*
X1235456Y1964436D02*
X1368806D01*
X1235456Y1962658D02*
X1368806D01*
X1235456Y1960880D02*
X1368806D01*
X1231900Y1959102D02*
X1370584D01*
X1231900Y1957324D02*
X1370584D01*
X1231900Y1955546D02*
X1370584D01*
X1230122Y1953768D02*
X1374140D01*
X1230122Y1951990D02*
X1374140D01*
X1230122Y1950212D02*
X1374140D01*
X1228344Y1948434D02*
X1375918D01*
X1228344Y1946656D02*
X1375918D01*
X1226566Y1944878D02*
X1377696D01*
X1224788Y1943100D02*
X1377696D01*
X1224788Y1941322D02*
X1377696D01*
X1223010Y1939544D02*
X1381252D01*
X1223010Y1937766D02*
X1381252D01*
X1223010Y1935988D02*
X1381252D01*
X1219454Y1934210D02*
X1383030D01*
X1219454Y1932432D02*
X1383030D01*
X1219454Y1930654D02*
X1383030D01*
X1217676Y1928876D02*
X1386586D01*
X1217676Y1927098D02*
X1386586D01*
X1217676Y1925320D02*
X1386586D01*
X1045210Y1923542D02*
X1048766D01*
X1215898D02*
X1388364D01*
X1555496D02*
X1559052D01*
X1046988Y1921764D02*
X1052322D01*
X1215898D02*
X1388364D01*
X1551940D02*
X1557274D01*
X1046988Y1919986D02*
X1052322D01*
X1215898D02*
X1388364D01*
X1551940D02*
X1557274D01*
X1046988Y1918208D02*
X1057656D01*
X1212342D02*
X1390142D01*
X1546606D02*
X1557274D01*
X1046988Y1916430D02*
X1061212D01*
X1212342D02*
X1393698D01*
X1541272D02*
X1557274D01*
X1046988Y1914652D02*
X1064768D01*
X1210564D02*
X1393698D01*
X1539494D02*
X1557274D01*
X1046988Y1912874D02*
X1064768D01*
X1210564D02*
X1393698D01*
X1539494D02*
X1557274D01*
X1046988Y1911096D02*
X1068324D01*
X1210564D02*
X1393698D01*
X1534160D02*
X1555496D01*
X1048766Y1909318D02*
X1070102D01*
X1207008D02*
X1395476D01*
X1532382D02*
X1553718D01*
X1048766Y1907540D02*
X1073658D01*
X1207008D02*
X1395476D01*
X1528826D02*
X1553718D01*
X1048766Y1905762D02*
X1077214D01*
X1207008D02*
X1397254D01*
X1527048D02*
X1553718D01*
X1048766Y1903984D02*
X1080770D01*
X1205230D02*
X1399032D01*
X1521714D02*
X1553718D01*
X1048766Y1902206D02*
X1082548D01*
X1205230D02*
X1399032D01*
X1521714D02*
X1553718D01*
X1048766Y1900428D02*
X1087882D01*
X1203452D02*
X1400810D01*
X1516380D02*
X1553718D01*
X1052322Y1898650D02*
X1089660D01*
X1201674D02*
X1400810D01*
X1514602D02*
X1551940D01*
X1052322Y1896872D02*
X1093216D01*
X1201674D02*
X1402588D01*
X1511046D02*
X1551940D01*
X1052322Y1895094D02*
X1094994D01*
X1201674D02*
X1402588D01*
X1509268D02*
X1551940D01*
X1052322Y1893316D02*
X1096772D01*
X1199896D02*
X1402588D01*
X1505712D02*
X1551940D01*
X1052322Y1891538D02*
X1102106D01*
X1198118D02*
X1404366D01*
X1502156D02*
X1551940D01*
X1052322Y1889760D02*
X1102106D01*
X1198118D02*
X1404366D01*
X1502156D02*
X1551940D01*
X1052322Y1887982D02*
X1105662D01*
X1198118D02*
X1406144D01*
X1496822D02*
X1551940D01*
X1052322Y1886204D02*
X1109218D01*
X1196340D02*
X1406144D01*
X1493266D02*
X1551940D01*
X1054100Y1884426D02*
X1112774D01*
X1194562D02*
X1407922D01*
X1489710D02*
X1548384D01*
X1054100Y1882648D02*
X1114552D01*
X1194562D02*
X1407922D01*
X1487932D02*
X1548384D01*
X1054100Y1880870D02*
X1118108D01*
X1194562D02*
X1409700D01*
X1486154D02*
X1548384D01*
X1054100Y1879092D02*
X1121664D01*
X1192784D02*
X1409700D01*
X1480820D02*
X1548384D01*
X1054100Y1877314D02*
X1121664D01*
X1192784D02*
X1411478D01*
X1480820D02*
X1548384D01*
X1054100Y1875536D02*
X1126998D01*
X1191006D02*
X1413256D01*
X1477264D02*
X1548384D01*
X1057656Y1873758D02*
X1132332D01*
X1189228D02*
X1413256D01*
X1471930D02*
X1546606D01*
X1057656Y1871980D02*
X1134110D01*
X1187450D02*
X1416812D01*
X1468374D02*
X1546606D01*
X1057656Y1870202D02*
X1134110D01*
X1187450D02*
X1416812D01*
X1468374D02*
X1546606D01*
X1057656Y1868424D02*
X1139444D01*
X1187450D02*
X1416812D01*
X1463040D02*
X1546606D01*
X1057656Y1866646D02*
X1144778D01*
X1185672D02*
X1418590D01*
X1459484D02*
X1546606D01*
X1057656Y1864868D02*
X1144778D01*
X1185672D02*
X1418590D01*
X1459484D02*
X1546606D01*
X1057656Y1863090D02*
X1150112D01*
X1182116D02*
X1420368D01*
X1454150D02*
X1546606D01*
X1059434Y1861312D02*
X1155446D01*
X1182116D02*
X1420368D01*
X1448816D02*
X1544828D01*
X1059434Y1859534D02*
X1155446D01*
X1182116D02*
X1420368D01*
X1422146D02*
X1423924D01*
X1448816D02*
X1544828D01*
X1059434Y1857756D02*
X1162558D01*
X1178560D02*
X1425702D01*
X1441704D02*
X1544828D01*
X1059434Y1855978D02*
X1544828D01*
X1059434Y1854200D02*
X1544828D01*
X1059434Y1852422D02*
X1544828D01*
X1059434Y1850644D02*
X1544828D01*
X1061212Y1848866D02*
X1541272D01*
X1061212Y1847088D02*
X1541272D01*
X1061212Y1845310D02*
X1541272D01*
X1061212Y1843532D02*
X1541272D01*
X1061212Y1841754D02*
X1541272D01*
X1061212Y1839976D02*
X1541272D01*
X1062990Y1838198D02*
X1539494D01*
X1064768Y1836420D02*
X1539494D01*
X1064768Y1834642D02*
X1539494D01*
X1064768Y1832864D02*
X1539494D01*
X1064768Y1831086D02*
X1539494D01*
X1064768Y1829308D02*
X1539494D01*
X1064768Y1827530D02*
X1539494D01*
X1066546Y1825752D02*
X1539494D01*
X1066546Y1823974D02*
X1535938D01*
X1066546Y1822196D02*
X1535938D01*
X1066546Y1820418D02*
X1535938D01*
X1066546Y1818640D02*
X1535938D01*
X1068324Y1816862D02*
X1535938D01*
X1068324Y1815084D02*
X1535938D01*
X1070102Y1813306D02*
X1535938D01*
X1070102Y1811528D02*
X1534160D01*
X1070102Y1809750D02*
X1534160D01*
X1070102Y1807972D02*
X1534160D01*
X1070102Y1806194D02*
X1534160D01*
X1070102Y1804416D02*
X1534160D01*
X1070102Y1802638D02*
X1534160D01*
X1070102Y1800860D02*
X1532382D01*
X1071880Y1799082D02*
X1530604D01*
X1071880Y1797304D02*
X1530604D01*
X1071880Y1795526D02*
X1530604D01*
X1071880Y1793748D02*
X1530604D01*
X1071880Y1791970D02*
X1530604D01*
X1071880Y1790192D02*
X1530604D01*
X1073658Y1788414D02*
X1528826D01*
X1073658Y1786636D02*
X1528826D01*
X1073658Y1784858D02*
X1528826D01*
X1073658Y1783080D02*
X1528826D01*
X1073658Y1781302D02*
X1528826D01*
X1073658Y1779524D02*
X1528826D01*
X1075436Y1777746D02*
X1528826D01*
X1075436Y1775968D02*
X1527048D01*
X1075436Y1774190D02*
X1527048D01*
X1077214Y1772412D02*
X1527048D01*
X1077214Y1770634D02*
X1527048D01*
X1077214Y1768856D02*
X1527048D01*
X1077214Y1767078D02*
X1525270D01*
X1077214Y1765300D02*
X1525270D01*
X1078992Y1763522D02*
X1523492D01*
X1078992Y1761744D02*
X1523492D01*
X1078992Y1759966D02*
X1523492D01*
X1078992Y1758188D02*
X1523492D01*
X1078992Y1756410D02*
X1523492D01*
X1078992Y1754632D02*
X1523492D01*
X1080770Y1752854D02*
X1523492D01*
X1082548Y1751076D02*
X1521714D01*
X1082548Y1749298D02*
X1521714D01*
X1082548Y1747520D02*
X1521714D01*
X1082548Y1745742D02*
X1521714D01*
X1082548Y1743964D02*
X1521714D01*
X1082548Y1742186D02*
X1521714D01*
X1084326Y1740408D02*
X1521714D01*
X1084326Y1738630D02*
X1519936D01*
X1084326Y1736852D02*
X1518158D01*
X1084326Y1735074D02*
X1518158D01*
X1084326Y1733296D02*
X1518158D01*
X1084326Y1731518D02*
X1518158D01*
X1084326Y1729740D02*
X1518158D01*
X1084326Y1727962D02*
X1518158D01*
X1087882Y1726184D02*
X1516380D01*
X1087882Y1724406D02*
X1516380D01*
X1087882Y1722628D02*
X1516380D01*
X1087882Y1720850D02*
X1516380D01*
X1087882Y1719072D02*
X1516380D01*
X1087882Y1717294D02*
X1516380D01*
X1087882Y1715516D02*
X1516380D01*
X926084Y1713738D02*
X927862D01*
X1089660D02*
X1514602D01*
X924306Y1711960D02*
X927862D01*
X1089660D02*
X1514602D01*
X1674622D02*
X1679956D01*
X924306Y1710182D02*
X929640D01*
X1089660D02*
X1514602D01*
X1672844D02*
X1679956D01*
X924306Y1708404D02*
X931418D01*
X1089660D02*
X1514602D01*
X1671066D02*
X1679956D01*
X924306Y1706626D02*
X933196D01*
X1089660D02*
X1514602D01*
X1669288D02*
X1679956D01*
X920750Y1704848D02*
X936752D01*
X1089660D02*
X1514602D01*
X1667510D02*
X1681734D01*
X920750Y1703070D02*
X938530D01*
X1089660D02*
X1512824D01*
X1665732D02*
X1681734D01*
X920750Y1701292D02*
X938530D01*
X1091438D02*
X1511046D01*
X1663954D02*
X1683512D01*
X918972Y1699514D02*
X938530D01*
X1091438D02*
X1511046D01*
X1663954D02*
X1683512D01*
X918972Y1697736D02*
X942086D01*
X1091438D02*
X1511046D01*
X1662176D02*
X1685290D01*
X918972Y1695958D02*
X943864D01*
X1091438D02*
X1511046D01*
X1660398D02*
X1685290D01*
X918972Y1694180D02*
X943864D01*
X1091438D02*
X1511046D01*
X1660398D02*
X1685290D01*
X917194Y1692402D02*
X945642D01*
X1091438D02*
X1511046D01*
X1656842D02*
X1687068D01*
X915416Y1690624D02*
X947420D01*
X1093216D02*
X1511046D01*
X1656842D02*
X1687068D01*
X915416Y1688846D02*
X949198D01*
X1093216D02*
X1511046D01*
X1655064D02*
X1687068D01*
X913638Y1687068D02*
X950976D01*
X1094994D02*
X1509268D01*
X1651508D02*
X1688846D01*
X913638Y1685290D02*
X952754D01*
X1094994D02*
X1509268D01*
X1649730D02*
X1688846D01*
X913638Y1683512D02*
X954532D01*
X1094994D02*
X1509268D01*
X1647952D02*
X1688846D01*
X911860Y1681734D02*
X956310D01*
X1094994D02*
X1509268D01*
X1646174D02*
X1692402D01*
X911860Y1679956D02*
X958088D01*
X1094994D02*
X1507490D01*
X1646174D02*
X1692402D01*
X911860Y1678178D02*
X958088D01*
X1094994D02*
X1507490D01*
X1644396D02*
X1692402D01*
X911860Y1676400D02*
X958088D01*
X1094994D02*
X1507490D01*
X1644396D02*
X1692402D01*
X908304Y1674622D02*
X961644D01*
X1096772D02*
X1505712D01*
X1642618D02*
X1694180D01*
X908304Y1672844D02*
X963422D01*
X1096772D02*
X1505712D01*
X1639062D02*
X1694180D01*
X908304Y1671066D02*
X966978D01*
X1096772D02*
X1505712D01*
X1637284D02*
X1695958D01*
X906526Y1669288D02*
X966978D01*
X1096772D02*
X1505712D01*
X1637284D02*
X1695958D01*
X906526Y1667510D02*
X968756D01*
X1096772D02*
X1505712D01*
X1635506D02*
X1697736D01*
X906526Y1665732D02*
X970534D01*
X1098550D02*
X1505712D01*
X1633728D02*
X1697736D01*
X906526Y1663954D02*
X972312D01*
X1098550D02*
X1505712D01*
X1631950D02*
X1697736D01*
X902970Y1662176D02*
X974090D01*
X1100328D02*
X1503934D01*
X1630172D02*
X1699514D01*
X902970Y1660398D02*
X975868D01*
X1100328D02*
X1503934D01*
X1628394D02*
X1699514D01*
X902970Y1658620D02*
X977646D01*
X1100328D02*
X1503934D01*
X1626616D02*
X1703070D01*
X689610Y1656842D02*
X693166D01*
X901192D02*
X977646D01*
X1100328D02*
X1503934D01*
X1624838D02*
X1703070D01*
X1911096D02*
X1912874D01*
X689610Y1655064D02*
X698500D01*
X901192D02*
X979424D01*
X1100328D02*
X1503934D01*
X1624838D02*
X1703070D01*
X1903984D02*
X1912874D01*
X689610Y1653286D02*
X707390D01*
X899414D02*
X981202D01*
X1102106D02*
X1502156D01*
X1621282D02*
X1704848D01*
X1896872D02*
X1912874D01*
X689610Y1651508D02*
X710946D01*
X899414D02*
X981202D01*
X1102106D02*
X1502156D01*
X1621282D02*
X1704848D01*
X1893316D02*
X1912874D01*
X691388Y1649730D02*
X718058D01*
X899414D02*
X984758D01*
X1102106D02*
X1502156D01*
X1619504D02*
X1704848D01*
X1886204D02*
X1911096D01*
X693166Y1647952D02*
X725170D01*
X895858D02*
X984758D01*
X1102106D02*
X1217676D01*
X1386586D02*
X1502156D01*
X1617726D02*
X1706626D01*
X1877314D02*
X1911096D01*
X693166Y1646174D02*
X725170D01*
X895858D02*
X986536D01*
X1102106D02*
X1217676D01*
X1386586D02*
X1502156D01*
X1617726D02*
X1706626D01*
X1877314D02*
X1911096D01*
X693166Y1644396D02*
X735838D01*
X895858D02*
X988314D01*
X1102106D02*
X1217676D01*
X1386586D02*
X1502156D01*
X1614170D02*
X1710182D01*
X1868424D02*
X1911096D01*
X693166Y1642618D02*
X742950D01*
X894080D02*
X990092D01*
X1102106D02*
X1217676D01*
X1386586D02*
X1502156D01*
X1612392D02*
X1710182D01*
X1861312D02*
X1911096D01*
X694944Y1640840D02*
X750062D01*
X892302D02*
X991870D01*
X1102106D02*
X1217676D01*
X1386586D02*
X1500378D01*
X1608836D02*
X1710182D01*
X1852422D02*
X1907540D01*
X694944Y1639062D02*
X751840D01*
X890524D02*
X993648D01*
X1102106D02*
X1217676D01*
X1386586D02*
X1500378D01*
X1608836D02*
X1711960D01*
X1852422D02*
X1907540D01*
X694944Y1637284D02*
X760730D01*
X888746D02*
X995426D01*
X1103884D02*
X1217676D01*
X1386586D02*
X1498600D01*
X1607058D02*
X1715516D01*
X1843532D02*
X1907540D01*
X694944Y1635506D02*
X767842D01*
X886968D02*
X997204D01*
X1103884D02*
X1217676D01*
X1386586D02*
X1498600D01*
X1607058D02*
X1715516D01*
X1832864D02*
X1907540D01*
X696722Y1633728D02*
X771398D01*
X886968D02*
X997204D01*
X1103884D02*
X1217676D01*
X1386586D02*
X1498600D01*
X1607058D02*
X1717294D01*
X1832864D02*
X1907540D01*
X696722Y1631950D02*
X778510D01*
X885190D02*
X998982D01*
X1103884D02*
X1217676D01*
X1386586D02*
X1498600D01*
X1603502D02*
X1719072D01*
X1825752D02*
X1907540D01*
X698500Y1630172D02*
X787400D01*
X883412D02*
X1002538D01*
X1103884D02*
X1217676D01*
X1386586D02*
X1498600D01*
X1601724D02*
X1720850D01*
X1815084D02*
X1905762D01*
X698500Y1628394D02*
X794512D01*
X881634D02*
X1004316D01*
X1105662D02*
X1217676D01*
X1386586D02*
X1498600D01*
X1599946D02*
X1722628D01*
X1804416D02*
X1806194D01*
X1809750D02*
X1905762D01*
X698500Y1626616D02*
X798068D01*
X878078D02*
X1004316D01*
X1105662D02*
X1217676D01*
X1386586D02*
X1498600D01*
X1599946D02*
X1724406D01*
X1804416D02*
X1905762D01*
X698500Y1624838D02*
X808736D01*
X874522D02*
X1006094D01*
X1107440D02*
X1217676D01*
X1386586D02*
X1496822D01*
X1596390D02*
X1729740D01*
X1791970D02*
X1905762D01*
X700278Y1623060D02*
X819404D01*
X869188D02*
X1007872D01*
X1107440D02*
X1217676D01*
X1386586D02*
X1496822D01*
X1594612D02*
X1733296D01*
X1779524D02*
X1903984D01*
X698500Y1621282D02*
X826516D01*
X865632D02*
X1009650D01*
X1107440D02*
X1217676D01*
X1386586D02*
X1496822D01*
X1594612D02*
X1736852D01*
X1777746D02*
X1905762D01*
X700278Y1619504D02*
X1011428D01*
X1107440D02*
X1217676D01*
X1386586D02*
X1496822D01*
X1591056D02*
X1903984D01*
X700278Y1617726D02*
X1013206D01*
X1107440D02*
X1217676D01*
X1386586D02*
X1496822D01*
X1591056D02*
X1903984D01*
X700278Y1615948D02*
X1014984D01*
X1107440D02*
X1217676D01*
X1386586D02*
X1495044D01*
X1589278D02*
X1902206D01*
X700278Y1614170D02*
X1016762D01*
X1109218D02*
X1217676D01*
X1386586D02*
X1493266D01*
X1587500D02*
X1903984D01*
X702056Y1612392D02*
X1016762D01*
X1109218D02*
X1217676D01*
X1386586D02*
X1493266D01*
X1587500D02*
X1900428D01*
X702056Y1610614D02*
X1018540D01*
X1109218D02*
X1217676D01*
X1386586D02*
X1493266D01*
X1583944D02*
X1900428D01*
X702056Y1608836D02*
X1018540D01*
X1109218D02*
X1217676D01*
X1386586D02*
X1493266D01*
X1583944D02*
X1900428D01*
X702056Y1607058D02*
X1022096D01*
X1109218D02*
X1217676D01*
X1386586D02*
X1493266D01*
X1582166D02*
X1900428D01*
X703834Y1605280D02*
X1023874D01*
X1109218D02*
X1217676D01*
X1386586D02*
X1493266D01*
X1578610D02*
X1900428D01*
X703834Y1603502D02*
X1023874D01*
X1110996D02*
X1217676D01*
X1386586D02*
X1493266D01*
X1578610D02*
X1900428D01*
X705612Y1601724D02*
X1025652D01*
X1110996D02*
X1217676D01*
X1386586D02*
X1491488D01*
X1576832D02*
X1898650D01*
X705612Y1599946D02*
X1027430D01*
X1112774D02*
X1217676D01*
X1386586D02*
X1491488D01*
X1575054D02*
X1896872D01*
X705612Y1598168D02*
X1030986D01*
X1112774D02*
X1217676D01*
X1386586D02*
X1491488D01*
X1571498D02*
X1896872D01*
X705612Y1596390D02*
X1030986D01*
X1112774D02*
X1217676D01*
X1386586D02*
X1491488D01*
X1571498D02*
X1896872D01*
X707390Y1594612D02*
X1034542D01*
X1112774D02*
X1217676D01*
X1386586D02*
X1491488D01*
X1569720D02*
X1895094D01*
X707390Y1592834D02*
X1034542D01*
X1112774D02*
X1217676D01*
X1386586D02*
X1491488D01*
X1569720D02*
X1895094D01*
X707390Y1591056D02*
X1034542D01*
X1112774D02*
X1217676D01*
X1386586D02*
X1491488D01*
X1569720D02*
X1895094D01*
X709168Y1589278D02*
X1036320D01*
X1114552D02*
X1217676D01*
X1386586D02*
X1487932D01*
X1566164D02*
X1895094D01*
X709168Y1587500D02*
X1039876D01*
X1114552D02*
X1217676D01*
X1386586D02*
X1487932D01*
X1564386D02*
X1895094D01*
X710946Y1585722D02*
X1041654D01*
X1114552D02*
X1217676D01*
X1386586D02*
X1487932D01*
X1560830D02*
X1893316D01*
X710946Y1583944D02*
X1041654D01*
X1114552D02*
X1217676D01*
X1386586D02*
X1487932D01*
X1560830D02*
X1893316D01*
X710946Y1582166D02*
X1045210D01*
X1114552D02*
X1217676D01*
X1386586D02*
X1487932D01*
X1559052D02*
X1893316D01*
X710946Y1580388D02*
X1045210D01*
X1116330D02*
X1217676D01*
X1386586D02*
X1487932D01*
X1557274D02*
X1893316D01*
X710946Y1578610D02*
X1046988D01*
X1116330D02*
X1217676D01*
X1386586D02*
X1487932D01*
X1557274D02*
X1893316D01*
X710946Y1576832D02*
X1048766D01*
X1116330D02*
X1217676D01*
X1386586D02*
X1487932D01*
X1553718D02*
X1891538D01*
X712724Y1575054D02*
X1050544D01*
X1116330D02*
X1217676D01*
X1386586D02*
X1486154D01*
X1551940D02*
X1889760D01*
X712724Y1573276D02*
X1052322D01*
X1118108D02*
X1217676D01*
X1386586D02*
X1486154D01*
X1551940D02*
X1889760D01*
X712724Y1571498D02*
X1054100D01*
X1118108D02*
X1217676D01*
X1386586D02*
X1486154D01*
X1550162D02*
X1889760D01*
X714502Y1569720D02*
X1054100D01*
X1118108D02*
X1217676D01*
X1386586D02*
X1486154D01*
X1548384D02*
X1889760D01*
X716280Y1567942D02*
X1057656D01*
X1118108D02*
X1217676D01*
X1386586D02*
X1486154D01*
X1546606D02*
X1887982D01*
X716280Y1566164D02*
X1057656D01*
X1118108D02*
X1217676D01*
X1386586D02*
X1486154D01*
X1546606D02*
X1887982D01*
X716280Y1564386D02*
X1059434D01*
X1118108D02*
X1217676D01*
X1386586D02*
X1486154D01*
X1544828D02*
X1887982D01*
X716280Y1562608D02*
X1061212D01*
X1118108D02*
X1217676D01*
X1386586D02*
X1484376D01*
X1543050D02*
X1887982D01*
X716280Y1560830D02*
X1061212D01*
X1116330D02*
X1217676D01*
X1386586D02*
X1486154D01*
X1541272D02*
X1886204D01*
X716280Y1559052D02*
X1064768D01*
X1116330D02*
X1217676D01*
X1386586D02*
X1486154D01*
X1539494D02*
X1886204D01*
X718058Y1557274D02*
X1064768D01*
X1116330D02*
X1217676D01*
X1386586D02*
X1486154D01*
X1537716D02*
X1886204D01*
X718058Y1555496D02*
X1068324D01*
X1114552D02*
X1217676D01*
X1386586D02*
X1487932D01*
X1535938D02*
X1886204D01*
X718058Y1553718D02*
X1070102D01*
X1114552D02*
X1217676D01*
X1386586D02*
X1487932D01*
X1534160D02*
X1886204D01*
X718058Y1551940D02*
X1071880D01*
X1114552D02*
X1217676D01*
X1386586D02*
X1487932D01*
X1532382D02*
X1884426D01*
X719836Y1550162D02*
X1073658D01*
X1112774D02*
X1217676D01*
X1386586D02*
X1489710D01*
X1530604D02*
X1882648D01*
X719836Y1548384D02*
X1073658D01*
X1112774D02*
X1217676D01*
X1386586D02*
X1491488D01*
X1528826D02*
X1882648D01*
X719836Y1546606D02*
X1077214D01*
X1112774D02*
X1217676D01*
X1386586D02*
X1491488D01*
X1528826D02*
X1882648D01*
X719836Y1544828D02*
X1078992D01*
X1107440D02*
X1217676D01*
X1386586D02*
X1495044D01*
X1523492D02*
X1882648D01*
X719836Y1543050D02*
X1082548D01*
X1103884D02*
X1217676D01*
X1386586D02*
X1498600D01*
X1521714D02*
X1882648D01*
X719836Y1541272D02*
X1082548D01*
X1103884D02*
X1217676D01*
X1386586D02*
X1498600D01*
X1521714D02*
X1882648D01*
X723392Y1539494D02*
X1091438D01*
X1096772D02*
X1217676D01*
X1386586D02*
X1505712D01*
X1511046D02*
X1880870D01*
X723392Y1537716D02*
X1217676D01*
X1386586D02*
X1880870D01*
X723392Y1535938D02*
X1217676D01*
X1386586D02*
X1880870D01*
X723392Y1534160D02*
X1217676D01*
X1386586D02*
X1879092D01*
X723392Y1532382D02*
X1217676D01*
X1386586D02*
X1879092D01*
X723392Y1530604D02*
X1217676D01*
X1386586D02*
X1879092D01*
X725170Y1528826D02*
X1217676D01*
X1386586D02*
X1877314D01*
X725170Y1527048D02*
X1217676D01*
X1386586D02*
X1877314D01*
X726948Y1525270D02*
X1217676D01*
X1386586D02*
X1877314D01*
X726948Y1523492D02*
X1217676D01*
X1386586D02*
X1877314D01*
X728726Y1521714D02*
X1217676D01*
X1386586D02*
X1875536D01*
X728726Y1519936D02*
X1217676D01*
X1386586D02*
X1875536D01*
X728726Y1518158D02*
X1217676D01*
X1386586D02*
X1875536D01*
X728726Y1516380D02*
X1217676D01*
X1386586D02*
X1875536D01*
X728726Y1514602D02*
X1217676D01*
X1386586D02*
X1873758D01*
X730504Y1512824D02*
X1217676D01*
X1386586D02*
X1873758D01*
X730504Y1511046D02*
X1217676D01*
X1386586D02*
X1873758D01*
X730504Y1509268D02*
X1217676D01*
X1386586D02*
X1873758D01*
X730504Y1507490D02*
X1217676D01*
X1386586D02*
X1873758D01*
X730504Y1505712D02*
X1217676D01*
X1386586D02*
X1873758D01*
X730504Y1503934D02*
X1217676D01*
X1386586D02*
X1871980D01*
X732282Y1502156D02*
X1217676D01*
X1386586D02*
X1870202D01*
X732282Y1500378D02*
X1217676D01*
X1386586D02*
X1870202D01*
X732282Y1498600D02*
X1217676D01*
X1386586D02*
X1870202D01*
X734060Y1496822D02*
X1217676D01*
X1386586D02*
X1870202D01*
X734060Y1495044D02*
X1217676D01*
X1386586D02*
X1870202D01*
X734060Y1493266D02*
X1217676D01*
X1386586D02*
X1870202D01*
X735838Y1491488D02*
X1217676D01*
X1386586D02*
X1868424D01*
X735838Y1489710D02*
X1059434D01*
X1551940D02*
X1868424D01*
X735838Y1487932D02*
X1059434D01*
X1551940D02*
X1868424D01*
X735838Y1486154D02*
X1057656D01*
X1553718D02*
X1866646D01*
X735838Y1484376D02*
X1057656D01*
X1553718D02*
X1868424D01*
X735838Y1482598D02*
X1057656D01*
X1553718D02*
X1866646D01*
X735838Y1480820D02*
X1057656D01*
X1553718D02*
X1866646D01*
X737616Y1479042D02*
X1057656D01*
X1553718D02*
X1864868D01*
X737616Y1477264D02*
X1057656D01*
X1553718D02*
X1864868D01*
X737616Y1475486D02*
X1057656D01*
X1553718D02*
X1864868D01*
X737616Y1473708D02*
X1057656D01*
X1553718D02*
X1864868D01*
X737616Y1471930D02*
X1057656D01*
X1553718D02*
X1864868D01*
X737616Y1470152D02*
X1057656D01*
X1553718D02*
X1864868D01*
X737616Y1468374D02*
X1057656D01*
X1553718D02*
X1864868D01*
X739394Y1466596D02*
X1057656D01*
X1553718D02*
X1864868D01*
X741172Y1464818D02*
X1057656D01*
X1553718D02*
X1863090D01*
X741172Y1463040D02*
X1057656D01*
X1553718D02*
X1863090D01*
X741172Y1461262D02*
X1057656D01*
X1553718D02*
X1863090D01*
X741172Y1459484D02*
X1057656D01*
X1553718D02*
X1863090D01*
X741172Y1457706D02*
X1057656D01*
X1553718D02*
X1863090D01*
X741172Y1455928D02*
X1057656D01*
X1553718D02*
X1863090D01*
X741172Y1454150D02*
X1057656D01*
X1553718D02*
X1863090D01*
X741172Y1452372D02*
X1057656D01*
X1553718D02*
X1863090D01*
X741172Y1450594D02*
X1057656D01*
X1553718D02*
X1863090D01*
X741172Y1448816D02*
X1057656D01*
X1553718D02*
X1863090D01*
X741172Y1447038D02*
X1057656D01*
X1553718D02*
X1863090D01*
X741172Y1445260D02*
X1057656D01*
X1553718D02*
X1863090D01*
X741172Y1443482D02*
X1057656D01*
X1553718D02*
X1863090D01*
X741172Y1441704D02*
X1057656D01*
X1553718D02*
X1863090D01*
X739394Y1439926D02*
X1057656D01*
X1553718D02*
X1864868D01*
X739394Y1438148D02*
X1057656D01*
X1553718D02*
X1864868D01*
X737616Y1436370D02*
X1057656D01*
X1553718D02*
X1864868D01*
X737616Y1434592D02*
X1057656D01*
X1553718D02*
X1864868D01*
X737616Y1432814D02*
X1057656D01*
X1553718D02*
X1864868D01*
X735838Y1431036D02*
X1057656D01*
X1553718D02*
X1868424D01*
X735838Y1429258D02*
X1057656D01*
X1553718D02*
X1870202D01*
X732282Y1427480D02*
X1057656D01*
X1553718D02*
X1870202D01*
X732282Y1425702D02*
X1057656D01*
X1553718D02*
X1870202D01*
X730504Y1423924D02*
X1057656D01*
X1553718D02*
X1873758D01*
X728726Y1422146D02*
X1057656D01*
X1553718D02*
X1875536D01*
X728726Y1420368D02*
X1057656D01*
X1553718D02*
X1875536D01*
X723392Y1418590D02*
X1057656D01*
X1553718D02*
X1880870D01*
X721614Y1416812D02*
X1057656D01*
X1553718D02*
X1882648D01*
X716280Y1415034D02*
X1057656D01*
X1553718D02*
X1886204D01*
X716280Y1413256D02*
X1057656D01*
X1553718D02*
X1887982D01*
X707390Y1411478D02*
X1057656D01*
X1553718D02*
X1893316D01*
X702056Y1409700D02*
X1057656D01*
X1553718D02*
X1896872D01*
X702056Y1407922D02*
X1057656D01*
X1553718D02*
X1900428D01*
X694944Y1406144D02*
X1057656D01*
X1553718D02*
X1907540D01*
X689610Y1404366D02*
X1057656D01*
X1553718D02*
X1914652D01*
X687832Y1402588D02*
X1057656D01*
X1553718D02*
X1914652D01*
X680720Y1400810D02*
X1057656D01*
X1553718D02*
X1923542D01*
X675386Y1399032D02*
X1057656D01*
X1553718D02*
X1927098D01*
X668274Y1397254D02*
X1057656D01*
X1553718D02*
X1932432D01*
X668274Y1395476D02*
X1057656D01*
X1553718D02*
X1935988D01*
X670052Y1393698D02*
X1057656D01*
X1553718D02*
X1932432D01*
X671830Y1391920D02*
X1057656D01*
X1553718D02*
X1930654D01*
X673608Y1390142D02*
X1057656D01*
X1553718D02*
X1928876D01*
X675386Y1388364D02*
X1057656D01*
X1553718D02*
X1927098D01*
X677164Y1386586D02*
X1057656D01*
X1553718D02*
X1925320D01*
X682498Y1384808D02*
X1057656D01*
X1553718D02*
X1919986D01*
X682498Y1383030D02*
X1057656D01*
X1553718D02*
X1919986D01*
X686054Y1381252D02*
X1057656D01*
X1553718D02*
X1918208D01*
X687832Y1379474D02*
X1057656D01*
X1553718D02*
X1914652D01*
X687832Y1377696D02*
X1057656D01*
X1553718D02*
X1914652D01*
X691388Y1375918D02*
X1057656D01*
X1553718D02*
X1912874D01*
X694944Y1374140D02*
X1057656D01*
X1553718D02*
X1911096D01*
X698500Y1372362D02*
X1057656D01*
X1553718D02*
X1905762D01*
X698500Y1370584D02*
X1057656D01*
X1553718D02*
X1905762D01*
X700278Y1368806D02*
X1057656D01*
X1553718D02*
X1903984D01*
X703834Y1367028D02*
X1057656D01*
X1553718D02*
X1900428D01*
X703834Y1365250D02*
X1057656D01*
X1553718D02*
X1898650D01*
X705612Y1363472D02*
X1057656D01*
X1553718D02*
X1896872D01*
X707390Y1361694D02*
X1057656D01*
X1553718D02*
X1895094D01*
X709168Y1359916D02*
X1057656D01*
X1553718D02*
X1893316D01*
X712724Y1358138D02*
X1057656D01*
X1553718D02*
X1889760D01*
X716280Y1356360D02*
X1057656D01*
X1553718D02*
X1887982D01*
X718058Y1354582D02*
X1057656D01*
X1553718D02*
X1886204D01*
X719836Y1352804D02*
X1057656D01*
X1553718D02*
X1884426D01*
X721614Y1351026D02*
X1057656D01*
X1553718D02*
X1882648D01*
X723392Y1349248D02*
X1057656D01*
X1553718D02*
X1880870D01*
X725170Y1347470D02*
X1057656D01*
X1553718D02*
X1879092D01*
X728726Y1345692D02*
X1057656D01*
X1553718D02*
X1875536D01*
X730504Y1343914D02*
X1057656D01*
X1553718D02*
X1873758D01*
X732282Y1342136D02*
X1057656D01*
X1553718D02*
X1870202D01*
X732282Y1340358D02*
X1057656D01*
X1553718D02*
X1870202D01*
X735838Y1338580D02*
X1057656D01*
X1553718D02*
X1866646D01*
X737616Y1336802D02*
X1057656D01*
X1553718D02*
X1864868D01*
X739394Y1335024D02*
X1057656D01*
X1553718D02*
X1864868D01*
X742950Y1333246D02*
X1057656D01*
X1553718D02*
X1861312D01*
X744728Y1331468D02*
X1057656D01*
X1553718D02*
X1857756D01*
X744728Y1329690D02*
X1057656D01*
X1553718D02*
X1857756D01*
X748284Y1327912D02*
X1057656D01*
X1553718D02*
X1855978D01*
X751840Y1326134D02*
X1057656D01*
X1553718D02*
X1852422D01*
X753618Y1324356D02*
X1057656D01*
X1553718D02*
X1850644D01*
X753618Y1322578D02*
X1057656D01*
X1553718D02*
X1850644D01*
X758952Y1320800D02*
X1217676D01*
X1388364D02*
X1847088D01*
X760730Y1319022D02*
X1217676D01*
X1386586D02*
X1843532D01*
X762508Y1317244D02*
X1217676D01*
X1386586D02*
X1843532D01*
X764286Y1315466D02*
X1217676D01*
X1386586D02*
X1839976D01*
X766064Y1313688D02*
X1217676D01*
X1386586D02*
X1836420D01*
X767842Y1311910D02*
X1217676D01*
X1386586D02*
X1834642D01*
X769620Y1310132D02*
X1217676D01*
X1386586D02*
X1834642D01*
X771398Y1308354D02*
X1217676D01*
X1386586D02*
X1832864D01*
X774954Y1306576D02*
X1217676D01*
X1386586D02*
X1827530D01*
X774954Y1304798D02*
X1217676D01*
X1386586D02*
X1827530D01*
X778510Y1303020D02*
X1217676D01*
X1386586D02*
X1825752D01*
X782066Y1301242D02*
X1217676D01*
X1386586D02*
X1822196D01*
X783844Y1299464D02*
X1217676D01*
X1386586D02*
X1820418D01*
X783844Y1297686D02*
X1217676D01*
X1386586D02*
X1818640D01*
X785622Y1295908D02*
X1217676D01*
X1386586D02*
X1816862D01*
X790956Y1294130D02*
X1217676D01*
X1386586D02*
X1813306D01*
X790956Y1292352D02*
X1217676D01*
X1386586D02*
X1813306D01*
X792734Y1290574D02*
X1217676D01*
X1386586D02*
X1809750D01*
X796290Y1288796D02*
X1217676D01*
X1386586D02*
X1807972D01*
X798068Y1287018D02*
X1217676D01*
X1386586D02*
X1806194D01*
X799846Y1285240D02*
X1217676D01*
X1386586D02*
X1804416D01*
X801624Y1283462D02*
X1217676D01*
X1386586D02*
X1802638D01*
X805180Y1281684D02*
X1217676D01*
X1386586D02*
X1797304D01*
X805180Y1279906D02*
X1217676D01*
X1386586D02*
X1797304D01*
X808736Y1278128D02*
X1217676D01*
X1386586D02*
X1795526D01*
X810514Y1276350D02*
X1217676D01*
X1386586D02*
X1791970D01*
X812292Y1274572D02*
X1217676D01*
X1386586D02*
X1790192D01*
X814070Y1272794D02*
X1217676D01*
X1386586D02*
X1788414D01*
X815848Y1271016D02*
X1217676D01*
X1386586D02*
X1786636D01*
X821182Y1269238D02*
X1217676D01*
X1386586D02*
X1783080D01*
X821182Y1267460D02*
X1217676D01*
X1386586D02*
X1783080D01*
X822960Y1265682D02*
X1217676D01*
X1386586D02*
X1779524D01*
X826516Y1263904D02*
X1217676D01*
X1386586D02*
X1777746D01*
X828294Y1262126D02*
X1217676D01*
X1386586D02*
X1775968D01*
X830072Y1260348D02*
X1217676D01*
X1386586D02*
X1774190D01*
X830072Y1258570D02*
X1217676D01*
X1386586D02*
X1772412D01*
X835406Y1256792D02*
X1217676D01*
X1386586D02*
X1767078D01*
X835406Y1255014D02*
X1217676D01*
X1386586D02*
X1768856D01*
X838962Y1253236D02*
X1217676D01*
X1386586D02*
X1765300D01*
X840740Y1251458D02*
X1217676D01*
X1386586D02*
X1761744D01*
X842518Y1249680D02*
X1217676D01*
X1386586D02*
X1759966D01*
X844296Y1247902D02*
X1217676D01*
X1386586D02*
X1759966D01*
X846074Y1246124D02*
X1217676D01*
X1386586D02*
X1758188D01*
X847852Y1244346D02*
X1217676D01*
X1386586D02*
X1756410D01*
X851408Y1242568D02*
X1217676D01*
X1386586D02*
X1752854D01*
X853186Y1240790D02*
X1217676D01*
X1386586D02*
X1749298D01*
X856742Y1239012D02*
X1217676D01*
X1386586D02*
X1747520D01*
X856742Y1237234D02*
X1217676D01*
X1386586D02*
X1747520D01*
X860298Y1235456D02*
X1217676D01*
X1386586D02*
X1743964D01*
X860298Y1233678D02*
X1217676D01*
X1386586D02*
X1742186D01*
X862076Y1231900D02*
X1217676D01*
X1386586D02*
X1740408D01*
X865632Y1230122D02*
X1217676D01*
X1386586D02*
X1736852D01*
X869188Y1228344D02*
X1217676D01*
X1357070D02*
X1705558D01*
X870966Y1226566D02*
X1217676D01*
X1386586D02*
X1731518D01*
X872744Y1224788D02*
X1217676D01*
X1386586D02*
X1731518D01*
X872744Y1223010D02*
X1217676D01*
X1386586D02*
X1729740D01*
X876300Y1221232D02*
X1217676D01*
X1386586D02*
X1727962D01*
X876300Y1219454D02*
X1217676D01*
X1386586D02*
X1727962D01*
X881634Y1217676D02*
X1217676D01*
X1386586D02*
X1722628D01*
X883412Y1215898D02*
X1217676D01*
X1386586D02*
X1719072D01*
X886968Y1214120D02*
X1217676D01*
X1386586D02*
X1717294D01*
X886968Y1212342D02*
X1217676D01*
X1386586D02*
X1717294D01*
X888746Y1210564D02*
X1217676D01*
X1386586D02*
X1713738D01*
X890524Y1208786D02*
X1217676D01*
X1386586D02*
X1711960D01*
X892302Y1207008D02*
X1217676D01*
X1386586D02*
X1710182D01*
X894080Y1205230D02*
X1217676D01*
X1386586D02*
X1708404D01*
X899414Y1203452D02*
X1217676D01*
X1386586D02*
X1704848D01*
X901192Y1201674D02*
X1217676D01*
X1386586D02*
X1704848D01*
X902970Y1199896D02*
X1217676D01*
X1386586D02*
X1703070D01*
X904748Y1198118D02*
X1217676D01*
X1386586D02*
X1699514D01*
X906526Y1196340D02*
X1217676D01*
X1386586D02*
X1697736D01*
X906526Y1194562D02*
X1217676D01*
X1386586D02*
X1695958D01*
X910082Y1192784D02*
X1217676D01*
X1386586D02*
X1694180D01*
X913638Y1191006D02*
X1217676D01*
X1386586D02*
X1688846D01*
X913638Y1189228D02*
X1217676D01*
X1386586D02*
X1688846D01*
X917194Y1187450D02*
X1217676D01*
X1386586D02*
X1687068D01*
X918972Y1185672D02*
X1217676D01*
X1386586D02*
X1685290D01*
X920750Y1183894D02*
X1217676D01*
X1386586D02*
X1681734D01*
X922528Y1182116D02*
X1217676D01*
X1386586D02*
X1681734D01*
X926084Y1180338D02*
X1217676D01*
X1386586D02*
X1678178D01*
X929640Y1178560D02*
X1217676D01*
X1386586D02*
X1674622D01*
X929640Y1176782D02*
X1217676D01*
X1386586D02*
X1674622D01*
X931418Y1175004D02*
X1217676D01*
X1386586D02*
X1672844D01*
X933196Y1173226D02*
X1217676D01*
X1386586D02*
X1669288D01*
X936752Y1171448D02*
X1217676D01*
X1386586D02*
X1667510D01*
X938530Y1169670D02*
X1217676D01*
X1386586D02*
X1665732D01*
X942086Y1167892D02*
X1217676D01*
X1386586D02*
X1662176D01*
X943864Y1166114D02*
X1217676D01*
X1386586D02*
X1658620D01*
X945642Y1164336D02*
X1217676D01*
X1386586D02*
X1658620D01*
X949198Y1162558D02*
X1217676D01*
X1386586D02*
X1655064D01*
X950976Y1160780D02*
X1217676D01*
X1386586D02*
X1651508D01*
X950976Y1159002D02*
X1217676D01*
X1386586D02*
X1651508D01*
X954532Y1157224D02*
X1217676D01*
X1386586D02*
X1647952D01*
X958088Y1155446D02*
X1217676D01*
X1386586D02*
X1644396D01*
X961644Y1153668D02*
X1642618D01*
X961644Y1151890D02*
X1642618D01*
X963422Y1150112D02*
X1639062D01*
X966978Y1148334D02*
X1637284D01*
X966978Y1146556D02*
X1637284D01*
X968756Y1144778D02*
X1633728D01*
X972312Y1143000D02*
X1631950D01*
X972312Y1141222D02*
X1630172D01*
X974090Y1139444D02*
X1630172D01*
X974090Y1137666D02*
X1628394D01*
X975868Y1135888D02*
X1626616D01*
X975868Y1134110D02*
X1626616D01*
X977646Y1132332D02*
X1626616D01*
X979424Y1130554D02*
X1624838D01*
X979424Y1128776D02*
X1624838D01*
X979424Y1126998D02*
X1624838D01*
X981202Y1125220D02*
X1623060D01*
X981202Y1123442D02*
X1621282D01*
X982980Y1121664D02*
X1621282D01*
X982980Y1119886D02*
X1621282D01*
X982980Y1118108D02*
X1621282D01*
X982980Y1116330D02*
X1621282D01*
X982980Y1114552D02*
X1619504D01*
X984758Y1112774D02*
X1619504D01*
X984758Y1110996D02*
X1619504D01*
X984758Y1109218D02*
X1619504D01*
X984758Y1107440D02*
X1619504D01*
X984758Y1105662D02*
X1619504D01*
X984758Y1103884D02*
X1619504D01*
X984758Y1102106D02*
X1619504D01*
X982980Y1100328D02*
X1621282D01*
X981202Y1098550D02*
X1621282D01*
X981202Y1096772D02*
X1621282D01*
X981202Y1094994D02*
X1621282D01*
X981202Y1093216D02*
X1621282D01*
X981202Y1091438D02*
X1621282D01*
X981202Y1089660D02*
X1621282D01*
X981202Y1087882D02*
X1621282D01*
X979424Y1086104D02*
X1624838D01*
X979424Y1084326D02*
X1624838D01*
X979424Y1082548D02*
X1624838D01*
X979424Y1080770D02*
X1624838D01*
X979424Y1078992D02*
X1624838D01*
X979424Y1077214D02*
X1624838D01*
X977646Y1075436D02*
X1624838D01*
X977646Y1073658D02*
X1626616D01*
X977646Y1071880D02*
X1626616D01*
X977646Y1070102D02*
X1626616D01*
X975868Y1068324D02*
X1626616D01*
X974090Y1066546D02*
X1628394D01*
X974090Y1064768D02*
X1630172D01*
X974090Y1062990D02*
X1630172D01*
X974090Y1061212D02*
X1630172D01*
X972312Y1059434D02*
X1631950D01*
X972312Y1057656D02*
X1631950D01*
X972312Y1055878D02*
X1631950D01*
X972312Y1054100D02*
X1631950D01*
X968756Y1052322D02*
X1633728D01*
X968756Y1050544D02*
X1235456D01*
X1267460D02*
X1335024D01*
X1368806D02*
X1633728D01*
X968756Y1048766D02*
X1223010D01*
X1228344D02*
X1230122D01*
X1267460D02*
X1335024D01*
X1374140D02*
X1377696D01*
X1379474D02*
X1633728D01*
X966978Y1046988D02*
X1215898D01*
X1274572D02*
X1327912D01*
X1388364D02*
X1637284D01*
X966978Y1045210D02*
X1201674D01*
X1278128D02*
X1326134D01*
X1400810D02*
X1637284D01*
X966978Y1043432D02*
X1198118D01*
X1278128D02*
X1324356D01*
X1406144D02*
X1637284D01*
X966978Y1041654D02*
X1185672D01*
X1279906D02*
X1322578D01*
X1418590D02*
X1637284D01*
X963422Y1039876D02*
X1169670D01*
X1281684D02*
X1320800D01*
X1432814D02*
X1639062D01*
X963422Y1038098D02*
X1151890D01*
X1283462D02*
X1320800D01*
X1450594D02*
X1639062D01*
X963422Y1036320D02*
X1148334D01*
X1283462D02*
X1320800D01*
X1455928D02*
X1639062D01*
X961644Y1034542D02*
X1137666D01*
X1283462D02*
X1320800D01*
X1466596D02*
X1640840D01*
X961644Y1032764D02*
X1119886D01*
X1285240D02*
X1317244D01*
X1484376D02*
X1640840D01*
X961644Y1030986D02*
X1118108D01*
X1285240D02*
X1317244D01*
X1484376D02*
X1642618D01*
X959866Y1029208D02*
X1105662D01*
X1285240D02*
X1317244D01*
X1498600D02*
X1644396D01*
X959866Y1027430D02*
X1087882D01*
X1285240D02*
X1317244D01*
X1516380D02*
X1644396D01*
X958088Y1025652D02*
X1071880D01*
X1285240D02*
X1317244D01*
X1530604D02*
X1644396D01*
X958088Y1023874D02*
X1070102D01*
X1285240D02*
X1317244D01*
X1534160D02*
X1646174D01*
X956310Y1022096D02*
X1055878D01*
X1285240D02*
X1317244D01*
X1546606D02*
X1646174D01*
X956310Y1020318D02*
X1039876D01*
X1285240D02*
X1317244D01*
X1564386D02*
X1647952D01*
X954532Y1018540D02*
X1038098D01*
X1285240D02*
X1317244D01*
X1566164D02*
X1647952D01*
X954532Y1016762D02*
X1023874D01*
X1285240D02*
X1317244D01*
X1578610D02*
X1649730D01*
X952754Y1014984D02*
X1006094D01*
X1285240D02*
X1317244D01*
X1596390D02*
X1651508D01*
X950976Y1013206D02*
X991870D01*
X1285240D02*
X1317244D01*
X1612392D02*
X1651508D01*
X950976Y1011428D02*
X991870D01*
X1285240D02*
X1317244D01*
X1612392D02*
X1651508D01*
X950976Y1009650D02*
X974090D01*
X1285240D02*
X1317244D01*
X1630172D02*
X1653286D01*
X949198Y1007872D02*
X956310D01*
X1285240D02*
X1317244D01*
X1646174D02*
X1653286D01*
X949198Y1006094D02*
X952754D01*
X1285240D02*
X1317244D01*
X1651508D02*
X1653286D01*
X1285240Y1004316D02*
X1317244D01*
X1285240Y1002538D02*
X1317244D01*
X1285240Y1000760D02*
X1317244D01*
X1285240Y998982D02*
X1317244D01*
X1285240Y997204D02*
X1320800D01*
X1283462Y995426D02*
X1320800D01*
X1283462Y993648D02*
X1320800D01*
X1283462Y991870D02*
X1320800D01*
X1283462Y990092D02*
X1320800D01*
X1283462Y988314D02*
X1320800D01*
X1283462Y986536D02*
X1320800D01*
X1283462Y984758D02*
X1320800D01*
X1283462Y982980D02*
X1320800D01*
X1283462Y981202D02*
X1320800D01*
X1283462Y979424D02*
X1320800D01*
X1283462Y977646D02*
X1320800D01*
X1283462Y975868D02*
X1320800D01*
X1283462Y974090D02*
X1320800D01*
X1283462Y972312D02*
X1320800D01*
X1283462Y970534D02*
X1320800D01*
X1283462Y968756D02*
X1320800D01*
X1283462Y966978D02*
X1320800D01*
X1283462Y965200D02*
X1320800D01*
X1283462Y963422D02*
X1320800D01*
X1283462Y961644D02*
X1320800D01*
X1283462Y959866D02*
X1320800D01*
X1283462Y958088D02*
X1320800D01*
X1283462Y956310D02*
X1320800D01*
X1283462Y954532D02*
X1320800D01*
X1283462Y952754D02*
X1320800D01*
X1283462Y950976D02*
X1320800D01*
X1283462Y949198D02*
X1320800D01*
X1283462Y947420D02*
X1320800D01*
X1283462Y945642D02*
X1320800D01*
X1283462Y943864D02*
X1320800D01*
X1283462Y942086D02*
X1320800D01*
X1283462Y940308D02*
X1322578D01*
X1281684Y938530D02*
X1322578D01*
X1281684Y936752D02*
X1322578D01*
X1281684Y934974D02*
X1322578D01*
X1281684Y933196D02*
X1322578D01*
X1281684Y931418D02*
X1322578D01*
X1281684Y929640D02*
X1322578D01*
X1281684Y927862D02*
X1322578D01*
X1281684Y926084D02*
X1322578D01*
X1281684Y924306D02*
X1322578D01*
X1279906Y922528D02*
X1322578D01*
X1279906Y920750D02*
X1322578D01*
X1279906Y918972D02*
X1322578D01*
X1279906Y917194D02*
X1322578D01*
X1279906Y915416D02*
X1322578D01*
X1279906Y913638D02*
X1322578D01*
X1279906Y911860D02*
X1322578D01*
X1279906Y910082D02*
X1322578D01*
X1279906Y908304D02*
X1322578D01*
X1279906Y906526D02*
X1322578D01*
X1279906Y904748D02*
X1322578D01*
X1279906Y902970D02*
X1322578D01*
X1281684Y901192D02*
X1322578D01*
X1279906Y899414D02*
X1322578D01*
X1279906Y897636D02*
X1322578D01*
X1279906Y895858D02*
X1322578D01*
X1279906Y894080D02*
X1322578D01*
X1279906Y892302D02*
X1322578D01*
X1279906Y890524D02*
X1322578D01*
X1279906Y888746D02*
X1322578D01*
X1279906Y886968D02*
X1322578D01*
X1279906Y885190D02*
X1322578D01*
X1279906Y883412D02*
X1322578D01*
X1279906Y881634D02*
X1324356D01*
X1279906Y879856D02*
X1324356D01*
X1279906Y878078D02*
X1324356D01*
X1279906Y876300D02*
X1324356D01*
X1279906Y874522D02*
X1324356D01*
X1279906Y872744D02*
X1324356D01*
X1279906Y870966D02*
X1324356D01*
X1279906Y869188D02*
X1324356D01*
X1279906Y867410D02*
X1324356D01*
X1279906Y865632D02*
X1324356D01*
X1279906Y863854D02*
X1324356D01*
X1279906Y862076D02*
X1324356D01*
X1279906Y860298D02*
X1324356D01*
X1279906Y858520D02*
X1324356D01*
X1279906Y856742D02*
X1324356D01*
X1279906Y854964D02*
X1324356D01*
X1279906Y853186D02*
X1324356D01*
X1279906Y851408D02*
X1324356D01*
X1279906Y849630D02*
X1324356D01*
X1278128Y847852D02*
X1324356D01*
X1278128Y846074D02*
X1324356D01*
X1278128Y844296D02*
X1324356D01*
X1278128Y842518D02*
X1326134D01*
X1278128Y840740D02*
X1326134D01*
X1278128Y838962D02*
X1326134D01*
X1278128Y837184D02*
X1326134D01*
X1278128Y835406D02*
X1326134D01*
X1278128Y833628D02*
X1326134D01*
X1278128Y831850D02*
X1326134D01*
X1278128Y830072D02*
X1326134D01*
X1278128Y828294D02*
X1326134D01*
X1276350Y826516D02*
X1327912D01*
X1276350Y824738D02*
X1327912D01*
X1276350Y822960D02*
X1327912D01*
X1276350Y821182D02*
X1327912D01*
X1276350Y819404D02*
X1327912D01*
X1276350Y817626D02*
X1327912D01*
X1276350Y815848D02*
X1327912D01*
X1274572Y814070D02*
X1327912D01*
X1274572Y812292D02*
X1327912D01*
X1274572Y810514D02*
X1327912D01*
X1274572Y808736D02*
X1327912D01*
X1276350Y806958D02*
X1327912D01*
X1274572Y805180D02*
X1327912D01*
X1274572Y803402D02*
X1327912D01*
X1274572Y801624D02*
X1327912D01*
X1274572Y799846D02*
X1327912D01*
X1274572Y798068D02*
X1327912D01*
X1274572Y796290D02*
X1327912D01*
X1274572Y794512D02*
X1327912D01*
X1274572Y792734D02*
X1327912D01*
X1274572Y790956D02*
X1327912D01*
X1274572Y789178D02*
X1327912D01*
X1274572Y787400D02*
X1327912D01*
X1274572Y785622D02*
X1329690D01*
X1272794Y783844D02*
X1331468D01*
X1272794Y782066D02*
X1331468D01*
X1272794Y780288D02*
X1331468D01*
X1272794Y778510D02*
X1331468D01*
X1272794Y776732D02*
X1331468D01*
X1272794Y774954D02*
X1331468D01*
X1272794Y773176D02*
X1331468D01*
X1272794Y771398D02*
X1331468D01*
X1272794Y769620D02*
X1331468D01*
X1272794Y767842D02*
X1331468D01*
X1272794Y766064D02*
X1331468D01*
X1272794Y764286D02*
X1331468D01*
X1272794Y762508D02*
X1331468D01*
X1272794Y760730D02*
X1331468D01*
X1272794Y758952D02*
X1331468D01*
X1272794Y757174D02*
X1331468D01*
X1272794Y755396D02*
X1331468D01*
X1272794Y753618D02*
X1331468D01*
X1272794Y751840D02*
X1331468D01*
X1272794Y750062D02*
X1331468D01*
X1272794Y748284D02*
X1331468D01*
X1272794Y746506D02*
X1331468D01*
X1272794Y744728D02*
X1331468D01*
X1272794Y742950D02*
X1331468D01*
X1272794Y741172D02*
X1331468D01*
X1271016Y739394D02*
X1331468D01*
X1271016Y737616D02*
X1331468D01*
X1271016Y735838D02*
X1331468D01*
X1271016Y734060D02*
X1331468D01*
X1271016Y732282D02*
X1331468D01*
X1271016Y730504D02*
X1331468D01*
X1271016Y728726D02*
X1331468D01*
X1271016Y726948D02*
X1333246D01*
X1271016Y725170D02*
X1333246D01*
X1271016Y723392D02*
X1333246D01*
X1271016Y721614D02*
X1333246D01*
X1271016Y719836D02*
X1333246D01*
X1271016Y718058D02*
X1333246D01*
M02*
