*
%LPD*%
%LNLeVentilateur.GTP*%
%FSLAX25Y25*%
%MOIN*%
%AD*%
%AD*%
%ADD147R,0.094488189X0.050393701*%
%ADD148R,0.211023622X0.211023622*%
%ADD149R,0.062992126X0.018897638*%
%ADD150C,0.062992126*%
%ADD151R,0.037795276X0.051968504*%
%ADD152R,0.107086614X0.116535433*%
%ADD153R,0.018897638X0.037795276*%
%ADD154R,0.026771654X0.02992126*%
%ADD155R,0.014488189X0.020314961*%
%ADD156R,0.051968504X0.037795276*%
%ADD157R,0.028346457X0.031496063*%
%ADD158R,0.108661417X0.058267717*%
%ADD159R,0.031496063X0.028346457*%
%ADD160R,0.050393701X0.100787402*%
%ADD161R,0.02992126X0.026771654*%
%ADD162R,0.072440945X0.096062992*%
%ADD163R,0.048031496X0.020472441*%
%ADD164R,0.058267717X0.094488189*%
%ADD165R,0.013543307X0.0136*%
%ADD166R,0.011023622X0.0144*%
%ADD167R,0.011023622X0.0136*%
%ADD168R,0.044094488X0.014173228*%
%ADD169R,0.132283465X0.066141732*%
%ADD170R,0.014173228X0.044094488*%
%ADD171R,0.045669291X0.062992126*%
%ADD172R,0.022047244X0.023622047*%
%ADD173R,0.037795276X0.012598425*%
%ADD174R,0.037795276X0.0104*%
%ADD175R,0.026771654X0.031496063*%
%ADD176R,0.013385827X0.009448819*%
%ADD177R,0.031496063X0.022047244*%
%ADD178R,0.009448819X0.046456693*%
%ADD179R,0.046456693X0.009448819*%
%ADD180R,0.042519685X0.036220472*%
%ADD181R,0.179527559X0.050393701*%
%ADD182R,0.017322835X0.033070866*%
%ADD183R,0.056692913X0.040944882*%
%ADD184R,0.067716535X0.069291339*%
%ADD185R,0.081889764X0.037795276*%
%ADD186R,0.018897638X0.039370079*%
G54D147*
%SRX1Y1I0.0J0.0*%
G1X193547Y822500D3*
G1X193547Y840500D3*
G54D148*
G1X224453Y831500D3*
G54D149*
G1X854866Y615643D3*
G1X854866Y610643D3*
G1X854866Y600643D3*
G1X854866Y585643D3*
G1X854866Y575643D3*
G1X854866Y570643D3*
G1X838134Y615643D3*
G1X838134Y610643D3*
G1X838134Y600643D3*
G1X838134Y585643D3*
G1X838134Y575643D3*
G1X838134Y570643D3*
G1X854866Y605643D3*
G1X854866Y595643D3*
G1X854866Y590643D3*
G1X854866Y580643D3*
G1X838134Y605643D3*
G1X838134Y595643D3*
G1X838134Y590643D3*
G1X838134Y580643D3*
G54D150*
G1X115000Y385000D3*
G1X115000Y672000D3*
G1X904000Y668500D3*
G1X904000Y339500D3*
G54D151*
G1X532976Y594815D3*
G1X544000Y594815D3*
G1X796988Y381539D3*
G1X808012Y381539D3*
G54D152*
G1X553831Y368828D3*
G54D153*
G1X561331Y326898D3*
G1X556331Y326898D3*
G1X546331Y326898D3*
G1X551331Y326898D3*
G54D154*
G1X670559Y290000D3*
G1X665441Y290000D3*
G1X670575Y267500D3*
G1X665457Y267500D3*
G1X560890Y297500D3*
G1X555772Y297500D3*
G1X422559Y283396D3*
G1X417441Y283396D3*
G1X480559Y661500D3*
G1X475441Y661500D3*
G1X881500Y601500D3*
G1X886618Y601500D3*
G54D155*
G1X789213Y384961D3*
G1X785276Y384961D3*
G1X787244Y379039D3*
G1X832031Y334539D3*
G1X835969Y334539D3*
G1X834000Y340461D3*
G54D156*
G1X771500Y395488D3*
G1X771500Y406512D3*
G1X787500Y394976D3*
G1X787500Y406000D3*
G1X855500Y333988D3*
G1X855500Y345012D3*
G1X696000Y790488D3*
G1X696000Y801512D3*
G1X608035Y789488D3*
G1X608035Y800512D3*
G1X785315Y788476D3*
G1X785315Y799500D3*
G1X874315Y790488D3*
G1X874315Y801512D3*
G1X518500Y790488D3*
G1X518500Y801512D3*
G1X429500Y789988D3*
G1X429500Y801012D3*
G1X269500Y419012D3*
G1X269500Y407988D3*
G1X249500Y419012D3*
G1X249500Y407988D3*
G1X230000Y419012D3*
G1X230000Y407988D3*
G1X230000Y439012D3*
G1X230000Y427988D3*
G1X209500Y419012D3*
G1X209500Y407988D3*
G1X209500Y439012D3*
G1X209500Y427988D3*
G1X436669Y431012D3*
G1X436669Y419988D3*
G1X412000Y619012D3*
G1X412000Y607988D3*
G1X269500Y427988D3*
G1X269500Y439012D3*
G1X249500Y427988D3*
G1X249500Y439012D3*
G1X698169Y406488D3*
G1X698169Y417512D3*
G1X338500Y787000D3*
G1X338500Y775976D3*
G54D157*
G1X553343Y319500D3*
G1X558657Y319500D3*
G1X620685Y290500D3*
G1X626000Y290500D3*
G1X555343Y263500D3*
G1X560657Y263500D3*
G1X417343Y264465D3*
G1X422657Y264465D3*
G1X525343Y631000D3*
G1X530657Y631000D3*
G1X461843Y660500D3*
G1X467157Y660500D3*
G1X461843Y653000D3*
G1X467157Y653000D3*
G1X517017Y568500D3*
G1X511702Y568500D3*
G1X517017Y576000D3*
G1X511702Y576000D3*
G1X464157Y568500D3*
G1X458843Y568500D3*
G1X464157Y576000D3*
G1X458843Y576000D3*
G1X284157Y792000D3*
G1X278843Y792000D3*
G54D158*
G1X301083Y517000D3*
G1X323917Y517000D3*
G54D159*
G1X608500Y778157D3*
G1X608500Y772843D3*
G1X504000Y569343D3*
G1X504000Y574657D3*
G1X339000Y702657D3*
G1X339000Y697343D3*
G1X868000Y593300D3*
G1X868000Y587985D3*
G1X824000Y610657D3*
G1X824000Y605343D3*
G1X696045Y778157D3*
G1X696045Y772843D3*
G1X784740Y776657D3*
G1X784740Y771343D3*
G1X874315Y776657D3*
G1X874315Y771343D3*
G1X518500Y778157D3*
G1X518500Y772843D3*
G1X429500Y778157D3*
G1X429500Y772843D3*
G1X670207Y282657D3*
G1X670207Y277343D3*
G1X663104Y282798D3*
G1X663104Y277483D3*
G1X620000Y283298D3*
G1X620000Y277983D3*
G1X545831Y266343D3*
G1X545831Y271657D3*
G1X431000Y309343D3*
G1X431000Y314657D3*
G1X534000Y331657D3*
G1X534000Y326343D3*
G1X413500Y322157D3*
G1X413500Y316843D3*
G1X431500Y271685D3*
G1X431500Y277000D3*
G1X446347Y579657D3*
G1X446347Y574343D3*
G1X439244Y579657D3*
G1X439244Y574343D3*
G1X421000Y607343D3*
G1X421000Y612657D3*
G1X524293Y616157D3*
G1X524293Y610843D3*
G1X531396Y616157D3*
G1X531396Y610843D3*
G1X538500Y616157D3*
G1X538500Y610843D3*
G1X524396Y643517D3*
G1X524396Y638202D3*
G1X531500Y643517D3*
G1X531500Y638202D3*
G1X440000Y605657D3*
G1X440000Y600343D3*
G1X447104Y605657D3*
G1X447104Y600343D3*
G1X439500Y617343D3*
G1X439500Y622657D3*
G1X447000Y617343D3*
G1X447000Y622657D3*
G1X869500Y614017D3*
G1X869500Y608702D3*
G1X379500Y696185D3*
G1X379500Y701500D3*
G54D160*
G1X164000Y826343D3*
G1X164000Y806657D3*
G54D161*
G1X445000Y630441D3*
G1X445000Y635559D3*
G1X655500Y277941D3*
G1X655500Y283059D3*
G1X619500Y270978D3*
G1X619500Y265860D3*
G1X421000Y316382D3*
G1X421000Y321500D3*
G1X549831Y311559D3*
G1X549831Y306441D3*
G1X564037Y311559D3*
G1X564037Y306441D3*
G1X423481Y271371D3*
G1X423481Y276489D3*
G1X416000Y271371D3*
G1X416000Y276489D3*
G1X477500Y704057D3*
G1X477500Y709175D3*
G1X466500Y704057D3*
G1X466500Y709175D3*
G1X476000Y673441D3*
G1X476000Y678559D3*
G1X425000Y573059D3*
G1X425000Y567941D3*
G1X446000Y592059D3*
G1X446000Y586941D3*
G1X591500Y277581D3*
G1X591500Y282700D3*
G1X487500Y709175D3*
G1X487500Y704057D3*
G1X507500Y709175D3*
G1X507500Y704057D3*
G1X367500Y781441D3*
G1X367500Y786559D3*
G1X184500Y381000D3*
G1X184500Y375882D3*
G54D162*
G1X348720Y729500D3*
G1X376280Y729500D3*
G1X248780Y630000D3*
G1X221220Y630000D3*
G1X158720Y534354D3*
G1X186280Y534354D3*
G54D163*
G1X348823Y703000D3*
G1X348823Y698000D3*
G1X348823Y693000D3*
G1X348823Y688000D3*
G1X370177Y688000D3*
G1X370177Y693000D3*
G1X370177Y698000D3*
G1X370177Y703000D3*
G1X838177Y525500D3*
G1X838177Y520500D3*
G1X838177Y515500D3*
G1X838177Y510500D3*
G1X816823Y510500D3*
G1X816823Y515500D3*
G1X816823Y520500D3*
G1X816823Y525500D3*
G54D164*
G1X799000Y509413D3*
G1X799000Y523587D3*
G1X855500Y489413D3*
G1X855500Y503587D3*
G54D165*
G1X824705Y597976D3*
G54D166*
G1X820138Y597976D3*
G1X820138Y595024D3*
G54D167*
G1X824862Y595024D3*
G54D168*
G1X629677Y274424D3*
G1X629677Y276983D3*
G1X629677Y279543D3*
G1X629677Y282102D3*
G1X647000Y282102D3*
G1X647000Y279543D3*
G1X647000Y276983D3*
G1X647000Y274424D3*
G54D169*
G1X297933Y660500D3*
G1X327067Y660500D3*
G54D170*
G1X561169Y271924D3*
G1X558610Y271924D3*
G1X556051Y271924D3*
G1X553492Y271924D3*
G1X553492Y289247D3*
G1X556051Y289247D3*
G1X558610Y289247D3*
G1X561169Y289247D3*
G1X415661Y308609D3*
G1X418220Y308609D3*
G1X420780Y308609D3*
G1X423339Y308609D3*
G1X423339Y291286D3*
G1X420780Y291286D3*
G1X418220Y291286D3*
G1X415661Y291286D3*
G54D171*
G1X270000Y393110D3*
G1X260000Y393110D3*
G1X250000Y393110D3*
G1X240000Y393110D3*
G1X230000Y393110D3*
G1X220000Y393110D3*
G1X210000Y393110D3*
G1X200000Y393110D3*
G1X200000Y356890D3*
G1X210000Y356890D3*
G1X220000Y356890D3*
G1X230000Y356890D3*
G1X240000Y356890D3*
G1X250000Y356890D3*
G1X260000Y356890D3*
G1X270000Y356890D3*
G54D172*
G1X697169Y395453D3*
G1X697169Y389547D3*
G1X435669Y408953D3*
G1X435669Y403047D3*
G1X348500Y787000D3*
G1X348500Y781094D3*
G54D173*
G1X503461Y678059D3*
G1X503461Y672941D3*
G54D174*
G1X495980Y672941D3*
G1X495980Y675500D3*
G1X495980Y678059D3*
G54D175*
G1X425350Y580000D3*
G1X431650Y580000D3*
G54D176*
G1X399083Y546500D3*
G1X396622Y546500D3*
G54D177*
G1X403311Y558217D3*
G1X379689Y558217D3*
G1X403311Y572783D3*
G1X379689Y572783D3*
G54D178*
G1X461982Y644965D3*
G1X463951Y644965D3*
G1X465919Y644965D3*
G1X467888Y644965D3*
G1X469856Y644965D3*
G1X471825Y644965D3*
G1X473793Y644965D3*
G1X475762Y644965D3*
G1X477730Y644965D3*
G1X479699Y644965D3*
G1X481667Y644965D3*
G1X483636Y644965D3*
G1X485604Y644965D3*
G1X487573Y644965D3*
G1X489541Y644965D3*
G1X491510Y644965D3*
G1X493478Y644965D3*
G1X495447Y644965D3*
G1X497415Y644965D3*
G1X499384Y644965D3*
G1X501352Y644965D3*
G1X503321Y644965D3*
G1X505289Y644965D3*
G1X507258Y644965D3*
G1X509226Y644965D3*
G1X509226Y584035D3*
G1X507258Y584035D3*
G1X505289Y584035D3*
G1X503321Y584035D3*
G1X501352Y584035D3*
G1X499384Y584035D3*
G1X497415Y584035D3*
G1X495447Y584035D3*
G1X493478Y584035D3*
G1X491510Y584035D3*
G1X489541Y584035D3*
G1X487573Y584035D3*
G1X485604Y584035D3*
G1X483636Y584035D3*
G1X481667Y584035D3*
G1X479699Y584035D3*
G1X477730Y584035D3*
G1X475762Y584035D3*
G1X473793Y584035D3*
G1X471825Y584035D3*
G1X469856Y584035D3*
G1X467888Y584035D3*
G1X465919Y584035D3*
G1X463951Y584035D3*
G1X461982Y584035D3*
G54D179*
G1X516069Y638122D3*
G1X516069Y636154D3*
G1X516069Y634185D3*
G1X516069Y632217D3*
G1X516069Y630248D3*
G1X516069Y628280D3*
G1X516069Y626311D3*
G1X516069Y624343D3*
G1X516069Y622374D3*
G1X516069Y620406D3*
G1X516069Y618437D3*
G1X516069Y616469D3*
G1X516069Y614500D3*
G1X516069Y612531D3*
G1X516069Y610563D3*
G1X516069Y608594D3*
G1X516069Y606626D3*
G1X516069Y604657D3*
G1X516069Y602689D3*
G1X516069Y600720D3*
G1X516069Y598752D3*
G1X516069Y596783D3*
G1X516069Y594815D3*
G1X516069Y592846D3*
G1X516069Y590878D3*
G1X455140Y590878D3*
G1X455140Y592846D3*
G1X455140Y594815D3*
G1X455140Y596783D3*
G1X455140Y598752D3*
G1X455140Y600720D3*
G1X455140Y602689D3*
G1X455140Y604657D3*
G1X455140Y606626D3*
G1X455140Y608594D3*
G1X455140Y610563D3*
G1X455140Y612531D3*
G1X455140Y614500D3*
G1X455140Y616469D3*
G1X455140Y618437D3*
G1X455140Y620406D3*
G1X455140Y622374D3*
G1X455140Y624343D3*
G1X455140Y626311D3*
G1X455140Y628280D3*
G1X455140Y630248D3*
G1X455140Y632217D3*
G1X455140Y634185D3*
G1X455140Y636154D3*
G1X455140Y638122D3*
G54D180*
G1X346500Y767445D3*
G1X346500Y760555D3*
G1X337822Y767445D3*
G1X337822Y760555D3*
G54D181*
G1X316928Y768248D3*
G1X316928Y786752D3*
G54D182*
G1X278607Y784618D3*
G1X282347Y784618D3*
G1X286088Y784618D3*
G1X286088Y774382D3*
G1X282347Y774382D3*
G1X278607Y774382D3*
G54D183*
G1X295258Y773291D3*
G1X295258Y784709D3*
G54D184*
G1X265500Y775839D3*
G1X265500Y793161D3*
G54D185*
G1X681020Y297000D3*
G1X681020Y287000D3*
G1X681020Y277000D3*
G1X681020Y267000D3*
G1X745980Y297000D3*
G1X745980Y287000D3*
G1X745980Y277000D3*
G1X745980Y267000D3*
G54D186*
G1X162260Y507634D3*
G1X154740Y507634D3*
G1X158500Y499366D3*
M2*
