G04*
G04 #@! TF.GenerationSoftware,Altium Limited,Altium Designer,20.0.1 (14)*
G04*
G04 Layer_Physical_Order=1*
G04 Layer_Color=255*
%FSLAX44Y44*%
%MOMM*%
G71*
G01*
G75*
%ADD10C,0.2540*%
%ADD21R,3.0000X1.6000*%
%ADD22R,6.7000X6.7000*%
%ADD23R,2.0000X0.6000*%
%ADD24C,2.0000*%
%ADD25R,1.2000X1.6500*%
%ADD26R,3.4000X3.7000*%
%ADD27R,0.6000X1.2000*%
%ADD28R,0.8500X0.9500*%
%ADD29R,0.4600X0.6450*%
%ADD30R,1.6500X1.2000*%
%ADD31R,0.9000X1.0000*%
%ADD32R,3.4500X1.8500*%
%ADD33R,1.0000X0.9000*%
%ADD34R,1.6000X3.2000*%
%ADD35R,0.9500X0.8500*%
%ADD36R,2.3000X3.0500*%
%ADD37R,1.5250X0.6500*%
%ADD38R,1.8500X3.0000*%
%ADD39R,0.4300X0.4318*%
%ADD40R,0.3500X0.4572*%
%ADD41R,0.3500X0.4318*%
%ADD42R,1.4000X0.4500*%
%ADD43R,4.2000X2.1000*%
%ADD44R,0.4500X1.4000*%
%ADD45R,1.4500X2.0000*%
%ADD46R,0.7000X0.7500*%
%ADD47R,1.2000X0.4000*%
%ADD48R,1.2000X0.3302*%
%ADD49R,0.8500X1.0000*%
%ADD50R,0.4250X0.3000*%
%ADD51R,1.0000X0.7000*%
%ADD52R,0.3000X1.4750*%
%ADD53R,1.4750X0.3000*%
%ADD54R,1.3500X1.1500*%
%ADD55R,5.7000X1.6000*%
%ADD56R,0.5500X1.0500*%
%ADD57R,1.8000X1.3000*%
%ADD58R,2.1500X2.2000*%
%ADD59R,2.6000X1.2000*%
%ADD60R,0.6000X1.2500*%
%ADD115C,2.0000*%
%ADD116C,1.2700*%
%ADD117C,0.8890*%
%ADD118C,0.2032*%
%ADD119C,0.3810*%
%ADD120C,0.7620*%
%ADD121C,1.0160*%
%ADD122C,0.5080*%
%ADD123C,0.6350*%
%ADD124C,1.1430*%
%ADD125C,5.0000*%
%ADD126R,1.9500X1.9500*%
%ADD127C,1.9500*%
%ADD128C,3.0000*%
%ADD129R,3.0000X3.0000*%
%ADD130R,1.9500X1.9500*%
%ADD131C,1.5000*%
%ADD132R,1.5000X1.5000*%
%ADD133C,1.6000*%
%ADD134R,1.6000X1.6000*%
%ADD135C,2.1000*%
%ADD136C,3.2900*%
%ADD137C,1.7700*%
%ADD138C,0.5080*%
%ADD139C,1.0160*%
G36*
X524510Y2150110D02*
Y2072640D01*
X258715D01*
X257824Y2073545D01*
X259080Y2152650D01*
X521970D01*
X524510Y2150110D01*
D02*
G37*
G36*
X901700Y1993160D02*
X901170Y1992630D01*
X850900D01*
Y2005288D01*
X850930Y2005300D01*
X901700D01*
Y1993160D01*
D02*
G37*
G36*
X2312670Y2061210D02*
X2311400Y2059940D01*
X1065530D01*
X1061720Y2056130D01*
X930910D01*
X924560Y2049780D01*
Y1991360D01*
X939614D01*
X939800Y1990910D01*
Y1977390D01*
X892810D01*
Y1944370D01*
X890270Y1941830D01*
X842010D01*
Y1891030D01*
X838200Y1887220D01*
X704485D01*
X703594Y1888125D01*
X704850Y1972310D01*
X713142Y1972310D01*
Y1960410D01*
X717655D01*
X717655Y1925320D01*
X773430D01*
Y1969770D01*
X778510Y1974850D01*
X842010D01*
Y1960880D01*
X868680D01*
X871220Y1963420D01*
Y1987550D01*
X874925Y1991255D01*
X901170D01*
X901170Y1991255D01*
X901423Y1991360D01*
X907640D01*
Y2152650D01*
X908910Y2153920D01*
X1051560D01*
X1052830Y2155190D01*
X2312670D01*
Y2061210D01*
D02*
G37*
G36*
X839470Y1979930D02*
X773430D01*
X766503Y1986857D01*
X774054Y1994408D01*
X775228Y1993922D01*
Y1989080D01*
X834768D01*
Y2007620D01*
X775228D01*
Y2000681D01*
X774700D01*
X773808Y2000503D01*
X773052Y1999998D01*
X765713Y1992660D01*
X764540Y1993146D01*
Y2004060D01*
X753839D01*
Y2005330D01*
X753544Y2006817D01*
X752702Y2008077D01*
X751441Y2008919D01*
X749955Y2009215D01*
X748468Y2008919D01*
X747208Y2008077D01*
X746366Y2006817D01*
X746070Y2005330D01*
Y2004060D01*
X729085D01*
Y2020570D01*
X728682Y2021542D01*
X727710Y2021945D01*
X716385D01*
X715413Y2021542D01*
X715010Y2020570D01*
Y2004060D01*
Y2002790D01*
X712470D01*
X711200Y2001520D01*
Y1987550D01*
X698500D01*
Y2004060D01*
X698500Y2045970D01*
X839470D01*
X839470Y1979930D01*
D02*
G37*
G36*
X727710Y2002760D02*
X725200Y2000250D01*
X722630D01*
Y1987550D01*
X712575D01*
Y2000951D01*
X713039Y2001415D01*
X715010D01*
X715982Y2001818D01*
X716385Y2002790D01*
Y2020570D01*
X727710D01*
Y2002760D01*
D02*
G37*
G36*
X655896Y2111084D02*
Y1991200D01*
X654786Y1990090D01*
X692620D01*
X695160Y1987550D01*
Y1985360D01*
X695160D01*
X701040Y1984860D01*
X715112D01*
X715514Y1984258D01*
X717046Y1982726D01*
X717802Y1982220D01*
X718694Y1982043D01*
X734897D01*
X737870Y1979070D01*
Y1973580D01*
X760730D01*
Y1954530D01*
X739140D01*
X734060Y1959610D01*
X719029D01*
Y1960410D01*
X718627Y1961382D01*
X717655Y1961784D01*
X714517D01*
Y1972310D01*
X714172Y1973142D01*
X714610Y1973580D01*
X713431Y1973580D01*
X713427Y1973580D01*
X713143Y1973685D01*
X713142Y1973685D01*
X713127Y1973685D01*
X704850Y1973685D01*
X704597Y1973580D01*
X696395D01*
X695160Y1972345D01*
Y1954864D01*
X690407D01*
Y1893208D01*
X700205Y1883410D01*
X839470D01*
X855980Y1899920D01*
X971550D01*
X986790Y1884680D01*
Y1777220D01*
X976630D01*
Y1776730D01*
X956310D01*
X955145Y1775565D01*
X954935D01*
X953280Y1777220D01*
X952684D01*
X952202Y1777702D01*
X951230Y1778105D01*
X951230Y1778105D01*
X932180D01*
X931208Y1777702D01*
X931008Y1777220D01*
X921691D01*
X920566Y1776095D01*
X914400Y1782261D01*
Y1873250D01*
X869950D01*
X854710Y1858010D01*
X676910D01*
Y1954864D01*
X639603D01*
X636375Y1958092D01*
Y2011680D01*
X636375Y2011680D01*
X635972Y2012652D01*
X631190Y2017434D01*
Y2107506D01*
X634424Y2110740D01*
X654972Y2111955D01*
X655896Y2111084D01*
D02*
G37*
G36*
X603785Y2042895D02*
X635000Y2011680D01*
Y1931810D01*
X537210D01*
Y2148840D01*
X603785D01*
Y2042895D01*
D02*
G37*
G36*
X896620Y1799590D02*
X899160Y1797050D01*
Y1779270D01*
X894754D01*
X893782Y1780242D01*
X892810Y1780645D01*
X892810Y1780645D01*
X867330D01*
X866629Y1780354D01*
X855491D01*
X854790Y1780645D01*
X850930D01*
X850449Y1780445D01*
X849959Y1780243D01*
X849959Y1780242D01*
X849958Y1780242D01*
X849758Y1779758D01*
X849555Y1779272D01*
X849552Y1776652D01*
X803910Y1731010D01*
X803910Y1694729D01*
X802538Y1671401D01*
X802552Y1671360D01*
X802535Y1671320D01*
Y1642110D01*
X802535Y1642110D01*
X802938Y1641138D01*
X862628Y1581448D01*
X863600Y1581045D01*
X863600Y1581045D01*
X869747D01*
X881380Y1569413D01*
X881380Y1510030D01*
X866763D01*
X866510Y1510135D01*
X748030D01*
Y1577235D01*
X749955D01*
X750927Y1577638D01*
X751330Y1578610D01*
Y1620606D01*
X784562Y1653838D01*
X784965Y1654810D01*
X784965Y1654810D01*
Y1700530D01*
X784562Y1701502D01*
X783590Y1701905D01*
X778510D01*
Y1797050D01*
X853982Y1799176D01*
X854369Y1799590D01*
X874925D01*
Y1869440D01*
X896620D01*
Y1799590D01*
D02*
G37*
G36*
X897890Y1774190D02*
Y1755140D01*
X851799D01*
X850901Y1756039D01*
X850930Y1779270D01*
X854790D01*
Y1778980D01*
X867330D01*
Y1779270D01*
X892810D01*
X897890Y1774190D01*
D02*
G37*
G36*
X953770D02*
X975236D01*
Y1755016D01*
X974090Y1753870D01*
X932180D01*
Y1776730D01*
X951230D01*
X953770Y1774190D01*
D02*
G37*
G36*
X929640Y1681480D02*
Y1582420D01*
X863600D01*
X803910Y1642110D01*
Y1671320D01*
X805575Y1699627D01*
X911493D01*
X929640Y1681480D01*
D02*
G37*
G36*
X783590Y1654810D02*
X749955Y1621175D01*
Y1578610D01*
X679450D01*
X675640Y1582420D01*
X674380Y1699627D01*
X675273Y1700530D01*
X783590D01*
Y1654810D01*
D02*
G37*
G36*
X521970Y1927860D02*
X533400Y1916430D01*
X674170D01*
Y1808480D01*
X674086Y1808396D01*
Y1714500D01*
X655320D01*
Y1503086D01*
X650834Y1498600D01*
X599440D01*
X593090Y1504950D01*
Y1612340D01*
X544830Y1660600D01*
Y1731010D01*
X545009Y1731055D01*
X545979Y1807210D01*
X516890D01*
X450850Y1873250D01*
X394970D01*
Y1866900D01*
X360680Y1832610D01*
X260350D01*
Y2005330D01*
X262640Y2007620D01*
X521970D01*
Y1927860D01*
D02*
G37*
G36*
X461264Y1617726D02*
X461264Y1391158D01*
X384810D01*
Y1324610D01*
X261802Y1324610D01*
X260911Y1325515D01*
X265450Y1620520D01*
X458470Y1620520D01*
X461264Y1617726D01*
D02*
G37*
G36*
X791210Y1417320D02*
Y1295400D01*
X734060D01*
Y1423670D01*
X784860D01*
X791210Y1417320D01*
D02*
G37*
G36*
X542278Y1586596D02*
X540868Y1480820D01*
X657860D01*
X685800Y1508760D01*
X866510D01*
Y1409903D01*
X866756Y1408664D01*
X867458Y1407614D01*
X876300Y1398772D01*
Y1379220D01*
X875030D01*
Y1280160D01*
X810260D01*
X803910Y1286510D01*
Y1324792D01*
X806450Y1327332D01*
Y1410970D01*
X807720Y1427480D01*
Y1436370D01*
X801370Y1442720D01*
X601980D01*
X570230Y1410970D01*
X539936D01*
X539750Y1397000D01*
Y1327150D01*
X447040Y1327150D01*
X440690Y1333500D01*
Y1388110D01*
X441960Y1389380D01*
X468630D01*
X472440Y1587500D01*
X541386D01*
X542278Y1586596D01*
D02*
G37*
G36*
X953770Y654050D02*
X955040Y652780D01*
X944880Y642620D01*
X284121D01*
X283236Y643531D01*
X287020Y774700D01*
X288290Y775970D01*
X420647D01*
X421133Y774797D01*
X374868Y728531D01*
X373850Y728665D01*
X370973Y728286D01*
X368292Y727176D01*
X365990Y725409D01*
X364224Y723108D01*
X363114Y720427D01*
X362735Y717550D01*
X363114Y714673D01*
X364224Y711992D01*
X365990Y709690D01*
X368292Y707924D01*
X370973Y706814D01*
X373850Y706435D01*
X376727Y706814D01*
X379407Y707924D01*
X381709Y709690D01*
X383476Y711992D01*
X384586Y714673D01*
X384965Y717550D01*
X384831Y718568D01*
X442233Y775970D01*
X535245D01*
Y726034D01*
X534431Y725409D01*
X532664Y723108D01*
X531554Y720427D01*
X531175Y717550D01*
X531554Y714673D01*
X532664Y711992D01*
X534431Y709690D01*
X536732Y707924D01*
X539413Y706814D01*
X542290Y706435D01*
X545167Y706814D01*
X547848Y707924D01*
X550149Y709690D01*
X551916Y711992D01*
X553026Y714673D01*
X553405Y717550D01*
X553026Y720427D01*
X551916Y723108D01*
X550149Y725409D01*
X549335Y726034D01*
Y775970D01*
X739715D01*
Y726034D01*
X738901Y725409D01*
X737134Y723108D01*
X736024Y720427D01*
X735645Y717550D01*
X736024Y714673D01*
X737134Y711992D01*
X738901Y709690D01*
X741202Y707924D01*
X743883Y706814D01*
X746760Y706435D01*
X749637Y706814D01*
X752318Y707924D01*
X754620Y709690D01*
X756386Y711992D01*
X757496Y714673D01*
X757875Y717550D01*
X757496Y720427D01*
X756386Y723108D01*
X754620Y725409D01*
X753805Y726034D01*
Y775970D01*
X856177D01*
X913579Y718568D01*
X913445Y717550D01*
X913824Y714673D01*
X914934Y711992D01*
X916701Y709690D01*
X919003Y707924D01*
X921683Y706814D01*
X924560Y706435D01*
X927437Y706814D01*
X930117Y707924D01*
X932420Y709690D01*
X934186Y711992D01*
X935296Y714673D01*
X935675Y717550D01*
X935296Y720427D01*
X934186Y723108D01*
X932420Y725409D01*
X930117Y727176D01*
X927437Y728286D01*
X924560Y728665D01*
X923542Y728531D01*
X877277Y774797D01*
X877763Y775970D01*
X953770D01*
Y654050D01*
D02*
G37*
G36*
X1767840Y650240D02*
X1767937Y650143D01*
X1767451Y648970D01*
X1590040D01*
Y696400D01*
X1592140Y698500D01*
X1620873Y699731D01*
X1621790Y698852D01*
Y671830D01*
X1715520D01*
Y670910D01*
X1740952D01*
X1743842Y668020D01*
X1745330Y669508D01*
Y696207D01*
X1717870D01*
X1717040Y697038D01*
Y710038D01*
X1767840D01*
Y650240D01*
D02*
G37*
G36*
X1429810Y662940D02*
X1418870D01*
Y676510D01*
X1418990Y679450D01*
X1421130D01*
X1422400Y680720D01*
Y690771D01*
X1422452Y691032D01*
Y699770D01*
X1429810D01*
Y662940D01*
D02*
G37*
%LPC*%
G36*
X2055720Y2114952D02*
X2033680D01*
Y2092912D01*
X2055720D01*
Y2114952D01*
D02*
G37*
G36*
X1829660D02*
X1807620D01*
Y2092912D01*
X1829660D01*
Y2114952D01*
D02*
G37*
G36*
X1603600D02*
X1581560D01*
Y2092912D01*
X1603600D01*
Y2114952D01*
D02*
G37*
G36*
X2281780Y2114140D02*
X2259740D01*
Y2092100D01*
X2281780D01*
Y2114140D01*
D02*
G37*
G36*
X1377540D02*
X1355500D01*
Y2092100D01*
X1377540D01*
Y2114140D01*
D02*
G37*
G36*
X1151480D02*
X1129440D01*
Y2092100D01*
X1151480D01*
Y2114140D01*
D02*
G37*
G36*
X798360Y1617096D02*
X795171Y1616782D01*
X792104Y1615852D01*
X789277Y1614341D01*
X786800Y1612308D01*
X784767Y1609830D01*
X783256Y1607004D01*
X782326Y1603937D01*
X782011Y1600748D01*
X782326Y1597558D01*
X783256Y1594491D01*
X784767Y1591665D01*
X786800Y1589187D01*
X789277Y1587154D01*
X792104Y1585643D01*
X795171Y1584713D01*
X798360Y1584399D01*
X801550Y1584713D01*
X804616Y1585643D01*
X807443Y1587154D01*
X809920Y1589187D01*
X811954Y1591665D01*
X813464Y1594491D01*
X814395Y1597558D01*
X814709Y1600748D01*
X814395Y1603937D01*
X813464Y1607004D01*
X811954Y1609830D01*
X809920Y1612308D01*
X807443Y1614341D01*
X804616Y1615852D01*
X801550Y1616782D01*
X798360Y1617096D01*
D02*
G37*
G36*
X309880Y1901675D02*
X307003Y1901297D01*
X304322Y1900186D01*
X302020Y1898420D01*
X300254Y1896118D01*
X299144Y1893437D01*
X298765Y1890560D01*
X299144Y1887683D01*
X300254Y1885003D01*
X302020Y1882701D01*
X304322Y1880934D01*
X307003Y1879824D01*
X309880Y1879445D01*
X312757Y1879824D01*
X315438Y1880934D01*
X317740Y1882701D01*
X319506Y1885003D01*
X320616Y1887683D01*
X320995Y1890560D01*
X320616Y1893437D01*
X319506Y1896118D01*
X317740Y1898420D01*
X315438Y1900186D01*
X312757Y1901297D01*
X309880Y1901675D01*
D02*
G37*
G36*
X387350Y1459672D02*
X384277Y1459267D01*
X381414Y1458081D01*
X378955Y1456194D01*
X377069Y1453736D01*
X375883Y1450873D01*
X375478Y1447800D01*
X375883Y1444727D01*
X377069Y1441864D01*
X378955Y1439406D01*
X381414Y1437519D01*
X384277Y1436333D01*
X387350Y1435928D01*
X390423Y1436333D01*
X393286Y1437519D01*
X395745Y1439406D01*
X397631Y1441864D01*
X398817Y1444727D01*
X399222Y1447800D01*
X398817Y1450873D01*
X397631Y1453736D01*
X395745Y1456194D01*
X393286Y1458081D01*
X390423Y1459267D01*
X387350Y1459672D01*
D02*
G37*
%LPD*%
D10*
X1367790Y1535830D02*
X1373220Y1530400D01*
Y1499370D02*
Y1530400D01*
Y1499370D02*
X1381760Y1490830D01*
X1562100Y1544320D02*
Y1592580D01*
X1581467Y1544320D02*
Y1592580D01*
X1600835Y1544320D02*
Y1592580D01*
X1620202Y1544320D02*
Y1592580D01*
X1639570Y1544320D02*
Y1592580D01*
X1186580Y1677670D02*
Y1689097D01*
X1188435Y1690953D01*
Y1691640D01*
X2172970Y876330D02*
X2174597Y874703D01*
X2190260D01*
X1255790Y1715770D02*
X1259790D01*
X1253829Y1717730D02*
X1255790Y1715770D01*
X1252738Y1717730D02*
X1253829D01*
X1248435Y1722033D02*
X1252738Y1717730D01*
X1248435Y1722033D02*
Y1722270D01*
X1207770D02*
X1209040Y1723540D01*
X1195070Y1722270D02*
X1207770D01*
X1289050Y1801305D02*
X1300494D01*
X2061330Y1309370D02*
X2074730D01*
X1310815Y1620830D02*
X1316690D01*
X1313223Y1443990D02*
Y1463540D01*
X1178960Y1463040D02*
X1182190Y1466270D01*
X1143682Y1530830D02*
X1156055D01*
X1117600Y1538370D02*
X1136143D01*
X1143682Y1530830D01*
X1391080Y1541910D02*
Y1565040D01*
Y1541910D02*
X1407160Y1525830D01*
Y1503569D02*
Y1525830D01*
X1386840Y1483220D02*
Y1483249D01*
X1407160Y1503569D01*
X1335898Y1430195D02*
X1372870Y1467167D01*
Y1468120D01*
X1313223Y1434217D02*
Y1443990D01*
Y1434217D02*
X1314880Y1432560D01*
X1350010Y1621033D02*
X1358970D01*
X1360753Y1619250D01*
X1361440D01*
X381000Y1289390D02*
X393040D01*
X2113360Y849730D02*
Y850655D01*
X2121710Y859005D01*
X2121712D01*
X2137410Y874703D01*
Y890270D01*
X2124390Y848330D02*
X2172970D01*
X2123360Y849360D02*
X2124390Y848330D01*
X2123360Y849360D02*
Y849730D01*
X2061210Y1525364D02*
Y1550830D01*
X2090992Y1511360D02*
X2095150D01*
X2085952Y1506320D02*
X2090992Y1511360D01*
X2080255Y1506320D02*
X2085952D01*
X2061210Y1525364D02*
X2080255Y1506320D01*
X1117600Y1515830D02*
Y1524870D01*
X1135380Y1524608D02*
X1135643Y1524870D01*
X1135380Y1515830D02*
Y1524608D01*
Y1581550D02*
Y1590040D01*
X2083066Y1518944D02*
X2083150Y1518860D01*
X2074814Y1518944D02*
X2083066D01*
X2074730Y1519029D02*
X2074814Y1518944D01*
X2080260Y1537570D02*
X2092960D01*
X1717040Y720440D02*
X1743842D01*
X1704816D02*
X1717040D01*
Y715010D02*
Y720440D01*
X1725580Y754380D02*
X1729790D01*
X1720850Y759110D02*
X1725580Y754380D01*
X1720850Y759110D02*
Y768350D01*
X1560830Y719577D02*
X1574800D01*
X1563370Y737870D02*
X1576540D01*
X1387157Y663418D02*
X1388110D01*
X1393982Y669290D01*
X1386410Y676510D02*
X1386910D01*
X1393982Y669438D01*
Y669290D02*
Y669438D01*
X1386010Y689610D02*
X1386410Y690010D01*
X1372870Y689610D02*
X1386010D01*
X1356360Y817140D02*
Y828910D01*
X859790Y1970980D02*
Y1981965D01*
X880110Y1931810D02*
X891049D01*
X893095Y1929765D01*
X893782D01*
X739140Y1940560D02*
X742225Y1943645D01*
Y1958930D01*
X747455Y1964160D01*
X749955D01*
X1299723Y1443990D02*
Y1463040D01*
X1298455Y1442722D02*
X1299723Y1443990D01*
X1298455Y1430195D02*
Y1442722D01*
X1280160Y1446130D02*
X1282300Y1443990D01*
Y1432560D02*
Y1443990D01*
X1349747Y1551540D02*
X1350010Y1551278D01*
Y1535830D02*
Y1551278D01*
X1331705Y1551540D02*
X1331967Y1551278D01*
Y1535830D02*
Y1551278D01*
X1316490Y1963020D02*
X1316990D01*
X1313260Y1959790D02*
X1316490Y1963020D01*
X1311910Y1949450D02*
X1313260Y1950800D01*
X1992630Y1958600D02*
X1993240Y1959210D01*
X1767955Y1963020D02*
X1768640Y1962335D01*
X1165460Y1443990D02*
Y1444490D01*
X1162230Y1447720D02*
X1165460Y1444490D01*
X1161730Y1447720D02*
X1162230D01*
X1161042Y1448409D02*
X1161730Y1447720D01*
X1153160Y1448409D02*
X1161042D01*
X1036320Y818280D02*
X1050290D01*
X1102360Y806850D02*
Y810260D01*
X1094740Y799230D02*
X1102360Y806850D01*
X1094740Y775970D02*
Y785730D01*
X1092200Y1555830D02*
X1093470D01*
X1156055D01*
X1314450Y1620830D02*
X1316690D01*
X1013670Y1388110D02*
X1024410D01*
X1133222Y1458830D02*
X1133722D01*
X1125198Y1450806D02*
X1133222Y1458830D01*
X1125198Y1448409D02*
Y1450806D01*
X1124712Y1447923D02*
X1125198Y1448409D01*
X1165360Y1463519D02*
X1165460Y1463540D01*
X1165360Y1463519D02*
X1165360D01*
X1358787Y828388D02*
X1358900Y828910D01*
X1358787Y828386D02*
X1358787Y828388D01*
X1165360Y1463519D02*
X1165360Y1463519D01*
X1069660Y1555830D02*
X1092200D01*
X1386410Y676510D02*
X1388110Y674810D01*
X1393982Y669290D02*
X1410570D01*
X1405870Y690687D02*
X1412370D01*
X1405193Y690010D02*
X1405870Y690687D01*
X1386410Y690010D02*
X1405193D01*
X1068780Y783867D02*
X1075280D01*
X1092877D01*
X1094740Y785730D01*
X1075280Y783867D02*
Y788617D01*
X1091510Y796000D02*
X1094740Y799230D01*
X1367790Y1535830D02*
Y1551540D01*
X1702325Y717950D02*
X1704816Y720440D01*
X1743842D02*
X1745330Y721928D01*
Y745840D01*
X1736790Y754380D02*
X1745330Y745840D01*
X1729790Y754380D02*
X1736790D01*
X1574800Y736130D02*
X1576540Y737870D01*
X1590040D01*
X1096010Y703580D02*
X1096390Y703200D01*
X1121444D01*
X1127618Y709374D01*
Y728600D01*
X1117078Y739140D02*
X1127618Y728600D01*
X1116330Y1450495D02*
Y1458180D01*
X1115680Y1458830D02*
X1116330Y1458180D01*
X1607820Y726918D02*
Y728980D01*
X1605110Y724208D02*
X1607820Y726918D01*
X1605110Y717517D02*
Y724208D01*
X1604130Y716538D02*
X1605110Y717517D01*
X1599380Y716538D02*
X1604130D01*
X1599380Y710038D02*
Y716538D01*
X1153160Y1461770D02*
X1164190D01*
X1165460Y1463040D01*
X1358900Y828910D02*
X1386268D01*
X1387680Y830322D01*
X1410570Y669290D02*
Y684137D01*
X1412370Y685938D01*
Y690687D01*
X1046480Y1544290D02*
X1048120Y1542650D01*
X1069340Y1556150D02*
X1069660Y1555830D01*
X1132840Y1503830D02*
X1133340D01*
X1142339Y1512829D01*
Y1514581D01*
X1148358Y1520600D01*
X1155825D01*
X1156055Y1520830D01*
X1133722Y1472330D02*
Y1489948D01*
X1132840Y1490830D02*
X1133722Y1489948D01*
X1115680Y1472330D02*
X1133722D01*
X1114810Y1473200D02*
X1115680Y1472330D01*
X1096390Y1473200D02*
X1114810D01*
X1079500Y1455570D02*
Y1472310D01*
X1080390Y1473200D01*
X1136290Y1595830D02*
X1156055D01*
X1130800Y1601320D02*
X1136290Y1595830D01*
X1130300Y1601320D02*
X1130800D01*
X1186580Y1658620D02*
Y1677670D01*
X1178435Y1638210D02*
Y1649975D01*
X1186580Y1658120D01*
Y1658620D01*
X1173435Y1638210D02*
Y1658265D01*
X1173080Y1658620D02*
X1173435Y1658265D01*
X1331967Y1621033D02*
X1350010D01*
X1310815Y1615830D02*
X1326265D01*
X1331467Y1621033D01*
X1331967D01*
X1316690Y1620830D02*
X1327163Y1631303D01*
X1328737D01*
X1331967Y1634533D01*
X1350010D01*
X1293435Y1477575D02*
Y1483450D01*
Y1477575D02*
X1293665Y1477345D01*
X1299418D01*
X1313223Y1463540D01*
X1288435Y1483450D02*
X1288665Y1483220D01*
Y1474598D02*
Y1483220D01*
Y1474598D02*
X1299723Y1463540D01*
Y1463040D02*
Y1463540D01*
X1178205Y1483220D02*
X1178435Y1483450D01*
X1178205Y1475753D02*
Y1483220D01*
X1165460Y1463540D02*
X1173181Y1471261D01*
X1173714D02*
X1178205Y1475753D01*
X1183205Y1472265D02*
Y1483220D01*
X1183435Y1483450D01*
X1173181Y1471261D02*
X1173714D01*
X1136602Y1525830D02*
X1156055D01*
X1135643Y1524870D02*
X1136602Y1525830D01*
X1135380Y1581550D02*
X1138610Y1578320D01*
X1142970D02*
X1145460Y1575830D01*
X1156055D01*
X1138610Y1578320D02*
X1142970D01*
X1138160Y1570830D02*
X1156055D01*
X1135380Y1568050D02*
X1138160Y1570830D01*
D21*
X491610Y2089150D02*
D03*
Y2134870D02*
D03*
D22*
X570110Y2112010D02*
D03*
D23*
X2171360Y1563732D02*
D03*
Y1551033D02*
D03*
Y1525632D02*
D03*
Y1487533D02*
D03*
Y1462133D02*
D03*
Y1449433D02*
D03*
X2128860Y1563732D02*
D03*
Y1551033D02*
D03*
Y1525632D02*
D03*
Y1487533D02*
D03*
Y1462133D02*
D03*
Y1449433D02*
D03*
X2171360Y1538333D02*
D03*
Y1512932D02*
D03*
Y1500233D02*
D03*
Y1474832D02*
D03*
X2128860Y1538333D02*
D03*
Y1512932D02*
D03*
Y1500233D02*
D03*
Y1474832D02*
D03*
D24*
X292100Y977900D02*
D03*
Y1706880D02*
D03*
X2296160Y1697990D02*
D03*
Y862330D02*
D03*
D25*
X1353760Y1510830D02*
D03*
X1381760D02*
D03*
X2024350Y969110D02*
D03*
X2052350D02*
D03*
D26*
X1406730Y936823D02*
D03*
D27*
X1425780Y830322D02*
D03*
X1413080D02*
D03*
X1387680D02*
D03*
X1400380D02*
D03*
D28*
X1703220Y736600D02*
D03*
X1690220D02*
D03*
X1703260Y679450D02*
D03*
X1690260D02*
D03*
X1424660Y755650D02*
D03*
X1411660D02*
D03*
X1073300Y719825D02*
D03*
X1060300D02*
D03*
X1220620Y1680210D02*
D03*
X1207620D02*
D03*
X2239010Y1527810D02*
D03*
X2252010D02*
D03*
D29*
X2004600Y977800D02*
D03*
X1994600D02*
D03*
X1999600Y962760D02*
D03*
X2113360Y849730D02*
D03*
X2123360D02*
D03*
X2118360Y864770D02*
D03*
D30*
X1959610Y1004540D02*
D03*
Y1032540D02*
D03*
X2000250Y1003240D02*
D03*
Y1031240D02*
D03*
X2172970Y848330D02*
D03*
Y876330D02*
D03*
X1767840Y2007840D02*
D03*
Y2035840D02*
D03*
X1544409Y2005300D02*
D03*
Y2033300D02*
D03*
X1994700Y2002730D02*
D03*
Y2030730D02*
D03*
X2220760Y2007840D02*
D03*
Y2035840D02*
D03*
X1316990Y2007840D02*
D03*
Y2035840D02*
D03*
X1090930Y2006570D02*
D03*
Y2034570D02*
D03*
X684530Y1064290D02*
D03*
Y1036290D02*
D03*
X633730Y1064290D02*
D03*
Y1036290D02*
D03*
X584200Y1064290D02*
D03*
Y1036290D02*
D03*
Y1115090D02*
D03*
Y1087090D02*
D03*
X532130Y1064290D02*
D03*
Y1036290D02*
D03*
Y1115090D02*
D03*
Y1087090D02*
D03*
X1109140Y1094770D02*
D03*
Y1066770D02*
D03*
X1046480Y1572290D02*
D03*
Y1544290D02*
D03*
X684530Y1087090D02*
D03*
Y1115090D02*
D03*
X633730Y1087090D02*
D03*
Y1115090D02*
D03*
X1773350Y1032480D02*
D03*
Y1060480D02*
D03*
X859790Y1998980D02*
D03*
Y1970980D02*
D03*
D31*
X1405490Y811530D02*
D03*
X1418990D02*
D03*
X1576540Y737870D02*
D03*
X1590040D02*
D03*
X1410570Y669290D02*
D03*
X1424070D02*
D03*
X1060050Y671740D02*
D03*
X1073550D02*
D03*
X1334370Y1602740D02*
D03*
X1347870D02*
D03*
X1173080Y1677670D02*
D03*
X1186580D02*
D03*
X1173080Y1658620D02*
D03*
X1186580D02*
D03*
X1313223Y1443990D02*
D03*
X1299723D02*
D03*
X1313223Y1463040D02*
D03*
X1299723D02*
D03*
X1178960Y1443990D02*
D03*
X1165460D02*
D03*
X1178960Y1463040D02*
D03*
X1165460D02*
D03*
X721760Y2011680D02*
D03*
X708260D02*
D03*
D32*
X764750Y1313180D02*
D03*
X822750D02*
D03*
D33*
X1545590Y1976520D02*
D03*
Y1963020D02*
D03*
X1280160Y1446130D02*
D03*
Y1459630D02*
D03*
X861060Y1784750D02*
D03*
Y1771250D02*
D03*
X2204720Y1506983D02*
D03*
Y1493483D02*
D03*
X2092960Y1551070D02*
D03*
Y1537570D02*
D03*
X1767955Y1976520D02*
D03*
Y1963020D02*
D03*
X1993240Y1972710D02*
D03*
Y1959210D02*
D03*
X2220760Y1972710D02*
D03*
Y1959210D02*
D03*
X1316990Y1976520D02*
D03*
Y1963020D02*
D03*
X1090930Y1976520D02*
D03*
Y1963020D02*
D03*
X1702325Y717950D02*
D03*
Y704450D02*
D03*
X1684283Y718307D02*
D03*
Y704807D02*
D03*
X1574800Y719577D02*
D03*
Y706077D02*
D03*
X1386410Y676510D02*
D03*
Y690010D02*
D03*
X1094740Y785730D02*
D03*
Y799230D02*
D03*
X1356360Y842410D02*
D03*
Y828910D02*
D03*
X1050290Y818280D02*
D03*
Y804780D02*
D03*
X1096010Y690080D02*
D03*
Y703580D02*
D03*
X1133722Y1472330D02*
D03*
Y1458830D02*
D03*
X1115680Y1472330D02*
D03*
Y1458830D02*
D03*
X1069340Y1542650D02*
D03*
Y1556150D02*
D03*
X1331705Y1565040D02*
D03*
Y1551540D02*
D03*
X1349747Y1565040D02*
D03*
Y1551540D02*
D03*
X1367790Y1565040D02*
D03*
Y1551540D02*
D03*
X1331967Y1634533D02*
D03*
Y1621033D02*
D03*
X1350010Y1634533D02*
D03*
Y1621033D02*
D03*
X1117600Y1538370D02*
D03*
Y1524870D02*
D03*
X1135643Y1538370D02*
D03*
Y1524870D02*
D03*
X1116330Y1568050D02*
D03*
Y1581550D02*
D03*
X1135380Y1568050D02*
D03*
Y1581550D02*
D03*
X2208530Y1559603D02*
D03*
Y1546103D02*
D03*
X963930Y1768310D02*
D03*
Y1781810D02*
D03*
D34*
X416560Y2098910D02*
D03*
Y2048910D02*
D03*
D35*
X1130300Y1601320D02*
D03*
Y1614320D02*
D03*
X1664970Y705970D02*
D03*
Y718970D02*
D03*
X1573530Y688285D02*
D03*
Y675285D02*
D03*
X1069340Y803610D02*
D03*
Y816610D02*
D03*
X1396570Y791360D02*
D03*
Y778360D02*
D03*
X1432655Y791360D02*
D03*
Y778360D02*
D03*
X1075643Y689282D02*
D03*
Y702283D02*
D03*
X1056640Y689282D02*
D03*
Y702283D02*
D03*
X1212850Y1788305D02*
D03*
Y1801305D02*
D03*
X1184910Y1788305D02*
D03*
Y1801305D02*
D03*
X1209040Y1710540D02*
D03*
Y1723540D02*
D03*
X1079500Y1455570D02*
D03*
Y1442570D02*
D03*
X1132840Y1503830D02*
D03*
Y1490830D02*
D03*
X1502410Y705057D02*
D03*
Y718057D02*
D03*
X1238250Y1801305D02*
D03*
Y1788305D02*
D03*
X1289050Y1801305D02*
D03*
Y1788305D02*
D03*
X933450Y1984860D02*
D03*
Y1997860D02*
D03*
X468630Y967740D02*
D03*
Y954740D02*
D03*
D36*
X885750Y1852930D02*
D03*
X955750D02*
D03*
X631900Y1600200D02*
D03*
X561900D02*
D03*
X403150Y1357258D02*
D03*
X473150D02*
D03*
D37*
X886010Y1785620D02*
D03*
Y1772920D02*
D03*
Y1760220D02*
D03*
Y1747520D02*
D03*
X940250D02*
D03*
Y1760220D02*
D03*
Y1772920D02*
D03*
Y1785620D02*
D03*
X2128970Y1334770D02*
D03*
Y1322070D02*
D03*
Y1309370D02*
D03*
Y1296670D02*
D03*
X2074730D02*
D03*
Y1309370D02*
D03*
Y1322070D02*
D03*
Y1334770D02*
D03*
D38*
X2029460Y1293910D02*
D03*
Y1329910D02*
D03*
X2172970Y1243110D02*
D03*
Y1279110D02*
D03*
D39*
X2094750Y1518860D02*
D03*
D40*
X2083150D02*
D03*
Y1511360D02*
D03*
D41*
X2095150D02*
D03*
D42*
X1599380Y697038D02*
D03*
Y703537D02*
D03*
Y710038D02*
D03*
Y716538D02*
D03*
X1643380D02*
D03*
Y710038D02*
D03*
Y703537D02*
D03*
Y697038D02*
D03*
D43*
X756750Y1677670D02*
D03*
X830750D02*
D03*
D44*
X1425370Y690687D02*
D03*
X1418870D02*
D03*
X1412370D02*
D03*
X1405870D02*
D03*
Y734687D02*
D03*
X1412370D02*
D03*
X1418870D02*
D03*
X1425370D02*
D03*
X1055780Y783867D02*
D03*
X1062280D02*
D03*
X1068780D02*
D03*
X1075280D02*
D03*
Y739867D02*
D03*
X1068780D02*
D03*
X1062280D02*
D03*
X1055780D02*
D03*
D45*
X685800Y998500D02*
D03*
X660400D02*
D03*
X635000D02*
D03*
X609600D02*
D03*
X584200D02*
D03*
X558800D02*
D03*
X533400D02*
D03*
X508000D02*
D03*
Y906500D02*
D03*
X533400D02*
D03*
X558800D02*
D03*
X584200D02*
D03*
X609600D02*
D03*
X635000D02*
D03*
X660400D02*
D03*
X685800D02*
D03*
D46*
X1770810Y1004450D02*
D03*
Y989450D02*
D03*
X1106600Y1038740D02*
D03*
Y1023740D02*
D03*
X885190Y1998980D02*
D03*
Y1983980D02*
D03*
D47*
X1278790Y1722270D02*
D03*
Y1709270D02*
D03*
D48*
X1259790D02*
D03*
Y1715770D02*
D03*
Y1722270D02*
D03*
D49*
X1080390Y1473200D02*
D03*
X1096390D02*
D03*
D50*
X1013670Y1388110D02*
D03*
X1007420D02*
D03*
D51*
X1024410Y1417870D02*
D03*
X964410D02*
D03*
X1024410Y1454870D02*
D03*
X964410D02*
D03*
D52*
X1173435Y1638210D02*
D03*
X1178435D02*
D03*
X1183435D02*
D03*
X1188435D02*
D03*
X1193435D02*
D03*
X1198435D02*
D03*
X1203435D02*
D03*
X1208435D02*
D03*
X1213435D02*
D03*
X1218435D02*
D03*
X1223435D02*
D03*
X1228435D02*
D03*
X1233435D02*
D03*
X1238435D02*
D03*
X1243435D02*
D03*
X1248435D02*
D03*
X1253435D02*
D03*
X1258435D02*
D03*
X1263435D02*
D03*
X1268435D02*
D03*
X1273435D02*
D03*
X1278435D02*
D03*
X1283435D02*
D03*
X1288435D02*
D03*
X1293435D02*
D03*
Y1483450D02*
D03*
X1288435D02*
D03*
X1283435D02*
D03*
X1278435D02*
D03*
X1273435D02*
D03*
X1268435D02*
D03*
X1263435D02*
D03*
X1258435D02*
D03*
X1253435D02*
D03*
X1248435D02*
D03*
X1243435D02*
D03*
X1238435D02*
D03*
X1233435D02*
D03*
X1228435D02*
D03*
X1223435D02*
D03*
X1218435D02*
D03*
X1213435D02*
D03*
X1208435D02*
D03*
X1203435D02*
D03*
X1198435D02*
D03*
X1193435D02*
D03*
X1188435D02*
D03*
X1183435D02*
D03*
X1178435D02*
D03*
X1173435D02*
D03*
D53*
X1310815Y1620830D02*
D03*
Y1615830D02*
D03*
Y1610830D02*
D03*
Y1605830D02*
D03*
Y1600830D02*
D03*
Y1595830D02*
D03*
Y1590830D02*
D03*
Y1585830D02*
D03*
Y1580830D02*
D03*
Y1575830D02*
D03*
Y1570830D02*
D03*
Y1565830D02*
D03*
Y1560830D02*
D03*
Y1555830D02*
D03*
Y1550830D02*
D03*
Y1545830D02*
D03*
Y1540830D02*
D03*
Y1535830D02*
D03*
Y1530830D02*
D03*
Y1525830D02*
D03*
Y1520830D02*
D03*
Y1515830D02*
D03*
Y1510830D02*
D03*
Y1505830D02*
D03*
Y1500830D02*
D03*
X1156055D02*
D03*
Y1505830D02*
D03*
Y1510830D02*
D03*
Y1515830D02*
D03*
Y1520830D02*
D03*
Y1525830D02*
D03*
Y1530830D02*
D03*
Y1535830D02*
D03*
Y1540830D02*
D03*
Y1545830D02*
D03*
Y1550830D02*
D03*
Y1555830D02*
D03*
Y1560830D02*
D03*
Y1565830D02*
D03*
Y1570830D02*
D03*
Y1575830D02*
D03*
Y1580830D02*
D03*
Y1585830D02*
D03*
Y1590830D02*
D03*
Y1595830D02*
D03*
Y1600830D02*
D03*
Y1605830D02*
D03*
Y1610830D02*
D03*
Y1615830D02*
D03*
Y1620830D02*
D03*
D54*
X880110Y1949310D02*
D03*
Y1931810D02*
D03*
X858067Y1949310D02*
D03*
Y1931810D02*
D03*
D55*
X804998Y1951350D02*
D03*
Y1998350D02*
D03*
D56*
X707662Y1992930D02*
D03*
X717162D02*
D03*
X726663D02*
D03*
Y1966930D02*
D03*
X717162D02*
D03*
X707662D02*
D03*
D57*
X749955Y1964160D02*
D03*
Y1993160D02*
D03*
D58*
X674370Y1970630D02*
D03*
Y2014630D02*
D03*
D59*
X1729790Y754380D02*
D03*
Y728980D02*
D03*
Y703580D02*
D03*
Y678180D02*
D03*
X1894790Y754380D02*
D03*
Y728980D02*
D03*
Y703580D02*
D03*
Y678180D02*
D03*
D60*
X412140Y1289390D02*
D03*
X393040D02*
D03*
X402590Y1268390D02*
D03*
D115*
X2239010Y1500877D02*
D03*
X317500Y1404620D02*
D03*
X345440Y2139950D02*
D03*
X2061210Y1550830D02*
D03*
X1595120Y779780D02*
D03*
X1092200Y822960D02*
D03*
X557530Y2023110D02*
D03*
X962660Y1938020D02*
D03*
X739140Y1940560D02*
D03*
X838200Y1844040D02*
D03*
X1455420Y689610D02*
D03*
X2207260Y1314450D02*
D03*
D116*
X2221484Y1653286D02*
X2313940Y1560830D01*
Y1317630D02*
Y1560830D01*
X2027550Y1031240D02*
X2313940Y1317630D01*
X2023364Y1653286D02*
X2221484D01*
X696760Y1533657D02*
Y1600748D01*
X654083Y1490980D02*
X696760Y1533657D01*
X439420Y962479D02*
Y1211580D01*
X642620Y1414780D01*
X464640Y937260D02*
X468630D01*
X439420Y962479D02*
X464640Y937260D01*
X1905650Y1046160D02*
X1983780D01*
X468630Y937260D02*
Y954740D01*
X1705145Y1023740D02*
X1739435Y989450D01*
X2014220Y2004060D02*
X2099310Y2089150D01*
X1739435Y989450D02*
X1848940D01*
X1106600Y1023740D02*
X1488320D01*
X1488440Y1023620D01*
X1572260Y1023740D02*
X1705145D01*
X1848940Y989450D02*
X1905650Y1046160D01*
X2014220Y1662430D02*
Y2004060D01*
Y1662430D02*
X2023364Y1653286D01*
X1983780Y1046160D02*
X1998350Y1031590D01*
X2000250Y1031240D02*
X2027550D01*
X2015490Y1597105D02*
X2061210Y1551385D01*
D117*
X2258060Y1365250D02*
Y1527810D01*
X2252010D02*
X2258060D01*
X2207260Y1314450D02*
X2258060Y1365250D01*
X2172970Y1284860D02*
X2200435Y1312324D01*
X2205134D01*
X2207260Y1314450D01*
X2172970Y1279110D02*
Y1284860D01*
X2128970Y1296670D02*
X2161160D01*
X2172970Y1284860D01*
X2029460Y1293910D02*
X2032220Y1296670D01*
X2029460Y1329415D02*
Y1329910D01*
X2032220Y1296670D02*
X2074730D01*
X2036805Y1322070D02*
X2074730D01*
X2029460Y1329415D02*
X2036805Y1322070D01*
D118*
X2128860Y1538333D02*
X2136032D01*
X2136140Y1538440D01*
X802102Y1103502D02*
X1148334Y1449734D01*
X1175359Y1493111D02*
X1208078Y1525830D01*
X1169649Y1491771D02*
Y1491772D01*
X603831Y1127506D02*
X627835Y1103502D01*
X802715Y1115090D02*
X1141009Y1453383D01*
X684530Y1115090D02*
X802715D01*
X1141009Y1453383D02*
Y1472471D01*
X1141730Y1490830D02*
X1146706Y1495806D01*
X1157790Y1669509D02*
X1161288Y1673007D01*
X1157790Y1665511D02*
X1161288Y1662013D01*
Y1656080D02*
Y1662013D01*
Y1673007D02*
Y1731518D01*
X1157790Y1665511D02*
Y1669509D01*
X1161288Y1656080D02*
X1169244Y1648124D01*
X1161288Y1731518D02*
X1187450Y1757680D01*
X1169244Y1634019D02*
Y1648124D01*
Y1634019D02*
X1169649D01*
Y1629685D02*
Y1634019D01*
X1381760Y1510830D02*
X1382560Y1510030D01*
X1398270D01*
X1423200Y1510830D02*
X1528725D01*
X1422400Y1510030D02*
X1423200Y1510830D01*
X1530541Y1509014D02*
X1530541Y910145D01*
X1531366Y909320D01*
X1528725Y1510830D02*
X1530541Y1509014D01*
X1320800Y1530830D02*
X1329889Y1521741D01*
Y1508031D02*
Y1521741D01*
X1326896Y1505038D02*
X1329889Y1508031D01*
X1326896Y1281684D02*
Y1505038D01*
X1319263Y1515830D02*
X1325063Y1510030D01*
X1352960D02*
X1353760Y1510830D01*
X1336942Y1510030D02*
X1352960D01*
X760724Y1984374D02*
X774700Y1998350D01*
X718694Y1984374D02*
X760724D01*
X717162Y1985906D02*
X718694Y1984374D01*
X1367028Y1493012D02*
X1515110Y1344930D01*
X1515110Y712677D01*
X1507490Y705057D02*
X1515110Y712677D01*
X1979520Y949470D02*
X1979948Y949898D01*
Y955058D01*
X1994600Y969710D02*
Y977800D01*
X1979948Y955058D02*
X1994600Y969710D01*
X1999600Y962760D02*
Y1003890D01*
X2012365Y969110D02*
X2024350D01*
X2004600Y976875D02*
X2012365Y969110D01*
X2004600Y976875D02*
Y977800D01*
X2052350Y969110D02*
Y1004287D01*
X2056160Y1008097D01*
Y1008380D01*
X2109927Y1563733D02*
X2128860D01*
X2029010Y1644650D02*
X2109927Y1563733D01*
X1859280Y1644650D02*
X2029010D01*
X2116727Y1551033D02*
X2128860D01*
X2028437Y1639323D02*
X2116727Y1551033D01*
X1856075Y1639323D02*
X2028437D01*
X1123992Y1430062D02*
Y1430195D01*
X534380Y1115090D02*
X546796Y1127506D01*
X1141009Y1472471D02*
X1209368Y1540830D01*
X1295882Y1593692D02*
X1303020Y1600830D01*
X1144311Y1450514D02*
Y1471102D01*
X1123992Y1430195D02*
X1144311Y1450514D01*
X1295882Y1628549D02*
X1342596Y1675264D01*
X1270988Y1628549D02*
X1295882D01*
X1342596Y1675264D02*
X1786864D01*
X1310640Y1484884D02*
Y1500830D01*
X1209040Y1680210D02*
Y1710540D01*
X1092520Y1555830D02*
X1093470Y1554880D01*
X1092200Y1556150D02*
X1092520Y1555830D01*
X1007364Y1388110D02*
Y1412240D01*
X1293435Y1644650D02*
X1305560D01*
X1278890Y1722270D02*
Y1747520D01*
X1271928Y1709270D02*
Y1716890D01*
X1255776Y1722270D02*
Y1740154D01*
X684530Y998500D02*
Y999770D01*
X532130Y998500D02*
Y999770D01*
X717162Y1985906D02*
Y1992930D01*
X774700Y1998350D02*
X804998D01*
X1310815Y1610830D02*
X1318806D01*
X1326896Y1602740D01*
X1334370D01*
X1280160Y1459630D02*
Y1469898D01*
X1283435Y1473173D01*
Y1483450D01*
X1132840Y1490830D02*
X1141730D01*
X1156055Y1515830D02*
X1169670D01*
X1310640Y1500830D02*
X1310815D01*
X1773174Y1447292D02*
X1773350Y1447116D01*
Y1060480D02*
Y1447116D01*
X1109140Y1094770D02*
X1133094D01*
X1305052Y1266728D01*
Y1371346D01*
X1320800Y1387094D01*
Y1503290D01*
X1318260Y1505830D02*
X1320800Y1503290D01*
X1310815Y1505830D02*
X1318260D01*
X1303020Y1510830D02*
X1310815D01*
X1300988Y1508798D02*
X1303020Y1510830D01*
X1300988Y1484884D02*
Y1508798D01*
X1310815Y1515830D02*
X1319263D01*
X412140Y1289390D02*
Y1309116D01*
X1278636Y1505204D02*
X1294262Y1520830D01*
X1310815D01*
X1203435Y1638210D02*
Y1657096D01*
X1207620Y1661281D01*
Y1680210D01*
X1209040D01*
X1106600Y1038740D02*
Y1051306D01*
X1109140Y1053846D01*
Y1066770D01*
X1007364Y1388110D02*
X1007420D01*
X1007364Y1412240D02*
X1012994Y1417870D01*
X1024410D01*
X964410D02*
X1012994D01*
X1024410D02*
X1029970D01*
X1031748Y1419648D01*
Y1490726D01*
X1093470Y1552448D01*
Y1554880D01*
X1069340Y1556150D02*
X1092200D01*
X1212850Y1749956D02*
Y1757680D01*
Y1749956D02*
X1253536Y1709270D01*
X1259790D01*
X1278790Y1722270D02*
X1278890D01*
Y1747520D02*
X1289050Y1757680D01*
Y1670558D02*
X1308518Y1651090D01*
Y1647608D02*
Y1651090D01*
X1305560Y1644650D02*
X1308518Y1647608D01*
X1293435Y1638210D02*
Y1644650D01*
X1255776Y1722270D02*
X1259790D01*
X1238250Y1757680D02*
X1255776Y1740154D01*
X1259790Y1722270D02*
X1266548D01*
X1271928Y1716890D01*
Y1709270D02*
X1278790D01*
X1288288Y1613916D02*
X1296374Y1605830D01*
X1310815D01*
X1169649Y1629685D02*
X1170940Y1628394D01*
X1226820D01*
X1228435Y1630009D01*
Y1638210D01*
X1170989Y1493111D02*
X1175359D01*
X1169649Y1491772D02*
X1170989Y1493111D01*
X1148334Y1449734D02*
Y1470456D01*
X532130Y1115090D02*
X534380D01*
X1148334Y1470456D02*
X1169649Y1491771D01*
X1208078Y1525830D02*
X1310815D01*
X546796Y1127506D02*
X603831D01*
X627835Y1103502D02*
X802102D01*
X584200Y1115090D02*
X590834D01*
X598424Y1122680D01*
X1310815Y1530830D02*
X1320800D01*
X633730Y1115090D02*
X635980D01*
X644266Y1106804D01*
X800734D01*
X1123992Y1430062D01*
X1144311Y1471102D02*
X1209037Y1535830D01*
X1310815D01*
X1209368Y1540830D02*
X1310815D01*
X684530Y998500D02*
X685800D01*
X532130D02*
X533400D01*
X964410Y1454870D02*
X1024410D01*
Y1522220D01*
X1046480Y1544290D01*
X1090930Y1976520D02*
X1133202D01*
X1138682Y1971040D01*
Y1670558D02*
Y1971040D01*
Y1670558D02*
X1165942Y1643298D01*
Y1630717D02*
Y1643298D01*
Y1630717D02*
X1166347D01*
Y1610381D02*
Y1630717D01*
Y1610381D02*
X1226820Y1549908D01*
X1274572D01*
X1300494Y1575830D01*
X1310815D01*
Y1580830D02*
X1320546D01*
X1325626Y1585910D01*
X1316990Y1976520D02*
X1325626D01*
X1310815Y1585830D02*
X1318876D01*
X1320546Y1587500D01*
Y1590040D01*
X1322658Y1592152D01*
X1347136D01*
X1348994Y1590294D01*
X1505966Y1747266D02*
Y1961026D01*
X1521460Y1976520D01*
X1545590D01*
X1303302Y1590830D02*
X1310815D01*
X1296708Y1584236D02*
X1303302Y1590830D01*
X2179320Y1972710D02*
X2220760D01*
X1310815Y1595830D02*
X1327282D01*
X1327658Y1595454D01*
X1541714D01*
X1918970Y1972710D02*
X1993240D01*
X1303020Y1600830D02*
X1310815D01*
X1600600Y1976520D02*
X1767955D01*
X1188435Y1483450D02*
Y1499362D01*
X1502410Y705057D02*
X1507490D01*
X1193435Y1483450D02*
Y1503569D01*
X1203198Y1513332D01*
X1536192Y709067D02*
Y1489710D01*
Y709067D02*
X1569974Y675285D01*
X1573530D01*
X1069340Y816610D02*
Y1210564D01*
X1177036Y1318260D01*
Y1424686D01*
X1203435Y1451085D01*
Y1483450D01*
X1283435Y1638210D02*
Y1646147D01*
X1287780Y1650492D01*
X1301750D01*
X2150364Y1529080D02*
Y1551686D01*
Y1529080D02*
X2153811Y1525633D01*
X2171360D01*
X2096262Y1500233D02*
X2128860D01*
X2087263Y1491234D02*
X2096262Y1500233D01*
X1278435Y1638210D02*
Y1664208D01*
X1273435Y1638210D02*
Y1654556D01*
X2114949Y1516380D02*
X2118397Y1512933D01*
X2128860D01*
X1268435Y1638210D02*
X1268919Y1637726D01*
Y1630618D02*
Y1637726D01*
Y1630618D02*
X1270988Y1628549D01*
X1786864Y1675264D02*
X1846330Y1615798D01*
X1930534D01*
X2105487Y1440845D01*
X2179005D01*
X2183646Y1445486D01*
Y1494947D01*
X2178360Y1500233D02*
X2183646Y1494947D01*
X2171360Y1500233D02*
X2178360D01*
X1263435Y1638210D02*
X1263919Y1637726D01*
Y1630618D02*
Y1637726D01*
Y1630618D02*
X1269290Y1625247D01*
X1298455D01*
X1344915Y1671708D01*
X1784875D01*
X1844706Y1611877D01*
X1927952D01*
X2102286Y1437543D01*
X2180373D01*
X2186948Y1444118D01*
Y1500877D01*
X2182307Y1505519D02*
X2186948Y1500877D01*
X2160413Y1505519D02*
X2182307D01*
X2159074Y1504179D02*
X2160413Y1505519D01*
X2159074Y1492819D02*
Y1504179D01*
Y1492819D02*
X2164360Y1487533D01*
X2171360D01*
X1258435Y1638210D02*
X1258919Y1637726D01*
Y1630618D02*
Y1637726D01*
Y1630618D02*
X1267592Y1621945D01*
X1299823D01*
X1345028Y1667150D01*
X1783888D01*
X1844972Y1606065D01*
X1920495D01*
X2092320Y1434241D01*
X2181741D01*
X2212773Y1465273D01*
Y1511663D01*
X2205407Y1519029D02*
X2212773Y1511663D01*
X2161223Y1519029D02*
X2205407D01*
X2155772Y1513577D02*
X2161223Y1519029D01*
X2155772Y1483421D02*
Y1513577D01*
Y1483421D02*
X2164360Y1474833D01*
X2171360D01*
X1253435Y1579173D02*
Y1638210D01*
Y1579173D02*
X1264158Y1568450D01*
X2146808Y1468882D02*
X2153557Y1462133D01*
X2171360D01*
X1248435Y1558265D02*
Y1638210D01*
X2155952Y1455674D02*
X2162193Y1449433D01*
X2171360D01*
X1243435Y1638210D02*
X1243919Y1638694D01*
Y1645802D01*
X1277083Y1678966D01*
X1794251D01*
X1849578Y1623640D01*
X1933054D01*
X2107261Y1449433D01*
X2128860D01*
X1238435Y1638210D02*
X1238919Y1638694D01*
Y1645802D01*
X1275907Y1682789D01*
X1795973D01*
X1851202Y1627560D01*
X1943751D01*
X2109179Y1462133D01*
X2128860D01*
X1233435Y1638210D02*
X1233919Y1638694D01*
Y1645802D01*
X1274208Y1686091D01*
X1798216D01*
X1852826Y1631481D01*
X2025281D01*
X2100246Y1556517D01*
Y1550714D02*
Y1556517D01*
Y1550714D02*
X2117913Y1533047D01*
X2137679D01*
X2144448Y1526277D01*
Y1483421D02*
Y1526277D01*
X2135860Y1474833D02*
X2144448Y1483421D01*
X2128860Y1474833D02*
X2135860D01*
X1218435Y1638210D02*
X1218919Y1638694D01*
Y1645802D01*
X1264757Y1691640D01*
X1798213D01*
X1854450Y1635402D01*
X2026030D01*
X2103548Y1557885D01*
Y1556645D02*
Y1557885D01*
Y1556645D02*
X2121860Y1538333D01*
X2128860D01*
X1208435Y1638210D02*
X1208919Y1638694D01*
Y1645802D01*
X1262599Y1699482D01*
X1804449D01*
X1859280Y1644650D01*
X1213435Y1450495D02*
Y1483450D01*
X1195324Y1358646D02*
Y1420622D01*
X1218435Y1443733D01*
Y1483450D01*
X1200192Y1332738D02*
Y1420156D01*
X1223435Y1443399D01*
Y1483450D01*
X1187880Y1331038D02*
Y1348740D01*
Y1331038D02*
X1193800Y1325118D01*
X1201928D01*
X1205230Y1328420D01*
Y1338834D01*
X1203494Y1340570D02*
X1205230Y1338834D01*
X1203494Y1340570D02*
Y1411012D01*
X1228435Y1435953D01*
Y1483450D01*
X1213280Y1348740D02*
X1233435Y1368895D01*
Y1483450D01*
X1238680Y1348740D02*
Y1415796D01*
X1238435Y1416041D02*
X1238680Y1415796D01*
X1238435Y1416041D02*
Y1483450D01*
X1243435Y1369385D02*
Y1483450D01*
Y1369385D02*
X1264080Y1348740D01*
X1248435Y1389785D02*
X1289480Y1348740D01*
X1248435Y1389785D02*
Y1483450D01*
X1253435Y1463566D02*
Y1483450D01*
Y1463566D02*
X1265936Y1451065D01*
Y1385062D02*
Y1451065D01*
Y1385062D02*
X1280160Y1370838D01*
X1258435Y1469152D02*
Y1483450D01*
Y1469152D02*
X1269238Y1458349D01*
Y1389888D02*
Y1458349D01*
Y1389888D02*
X1284986Y1374140D01*
Y1360558D02*
Y1374140D01*
X1263435Y1473950D02*
Y1483450D01*
Y1473950D02*
X1272540Y1464845D01*
Y1395615D02*
Y1464845D01*
Y1395615D02*
X1289029Y1379126D01*
X1268435Y1483450D02*
Y1493520D01*
X1269705Y1494790D01*
X1287018D01*
X1273435Y1471035D02*
Y1483450D01*
Y1471035D02*
X1275334Y1469136D01*
X1213435Y1638210D02*
X1213919Y1638694D01*
Y1645802D01*
X1263678Y1695561D01*
X1799837D01*
X1856075Y1639323D01*
D119*
X2128860Y1525632D02*
X2136140D01*
X1173080Y1677670D02*
Y1708363D01*
Y1677170D02*
Y1677670D01*
X1166394Y1670484D02*
X1173080Y1677170D01*
X1165928Y1670484D02*
X1166394D01*
X1351940Y838490D02*
Y942340D01*
X1018540Y946150D02*
Y1245870D01*
Y827978D02*
Y946150D01*
X1084580D02*
X1348130D01*
X1351940Y942340D01*
X1018540Y946150D02*
X1059180D01*
X956235Y1391505D02*
X968266Y1379474D01*
X956235Y1505129D02*
X1035558Y1584452D01*
X956235Y1391505D02*
Y1505129D01*
X968266Y1379474D02*
X1040384D01*
X1217862Y1702239D02*
X1220620Y1699482D01*
X1260863Y1703672D02*
X1285682D01*
X1288890Y1706880D01*
X1377950Y1634533D02*
X1538689D01*
X1350010D02*
X1377950D01*
X1195682Y1730965D02*
X1215105D01*
X1220620Y1680210D02*
Y1699482D01*
X1377950Y1634533D02*
Y1651657D01*
X1220620Y1699482D02*
X1256672D01*
X1260863Y1703672D01*
X1173080Y1658620D02*
Y1659120D01*
X1164933Y1667267D02*
X1173080Y1659120D01*
X1162859Y1667267D02*
X1164933D01*
X1162616Y1667510D02*
X1162859Y1667267D01*
X1162954Y1667510D02*
X1165928Y1670484D01*
X1173080Y1708363D02*
X1195682Y1730965D01*
X1048128Y806943D02*
X1050290Y804780D01*
X1039575Y806943D02*
X1048128D01*
X1018540Y827978D02*
X1039575Y806943D01*
X971550Y1308100D02*
X981710D01*
X869747Y1409903D02*
X971550Y1308100D01*
X869747Y1409903D02*
Y1524870D01*
X1314450Y1620830D02*
Y1627632D01*
X1116222Y1537208D02*
X1137384D01*
X1116222D02*
Y1538370D01*
X1088898Y1442570D02*
X1109772D01*
X1079500D02*
X1088898D01*
X1391080Y1565040D02*
X1536192D01*
X1367790D02*
X1391080D01*
X2220760Y1941830D02*
Y1959210D01*
X1313260Y1950800D02*
Y1959790D01*
X1545590Y1949450D02*
Y1963020D01*
X1992630Y1939290D02*
Y1958600D01*
X1768640Y1943100D02*
Y1962335D01*
X1090930Y1944370D02*
Y1963020D01*
X1178760Y1443790D02*
X1178960Y1443990D01*
Y1463040D02*
X1181555Y1465635D01*
Y1470614D01*
X1183205Y1472265D01*
X1178960Y1443990D02*
Y1463040D01*
X1156055Y1555830D02*
X1212850D01*
X1331705Y1565040D02*
X1349747D01*
X1367790D01*
X1536192D02*
X1547622Y1576470D01*
Y1625600D01*
X1538689Y1634533D02*
X1547622Y1625600D01*
X1310815Y1620830D02*
X1314450D01*
X1116330Y1568050D02*
X1135380D01*
X1117600Y1538370D02*
X1135643D01*
X1121052Y1614320D02*
X1130300D01*
X1107948Y1601216D02*
X1121052Y1614320D01*
X1107948Y1572768D02*
Y1601216D01*
Y1572768D02*
X1112666Y1568050D01*
X1035558Y1584452D02*
X1091546D01*
X1040384Y1379474D02*
X1088898Y1427988D01*
Y1439926D01*
X1112666Y1568050D02*
X1116330D01*
X1107948D02*
X1112666D01*
X1091546Y1584452D02*
X1107948Y1568050D01*
X1143762Y1530830D02*
X1156055D01*
X1088898Y1442570D02*
Y1528826D01*
X1109772Y1442570D02*
X1112416Y1439926D01*
X1116222Y1538370D02*
X1117600D01*
X1097280Y1537208D02*
X1116222D01*
X1088898Y1528826D02*
X1097280Y1537208D01*
X1143682Y1530830D02*
X1143762D01*
X1137384Y1537208D02*
X1143762Y1530830D01*
X1136143Y1538370D02*
X1137384Y1537208D01*
X1178760Y1435808D02*
Y1443790D01*
X1178560Y1435608D02*
X1178760Y1435808D01*
X933450Y1997860D02*
X1007214D01*
X1124712Y1880362D01*
Y1666494D02*
Y1880362D01*
X1130300Y1614320D02*
Y1642872D01*
X1142970Y1655542D01*
X1162616Y1667510D02*
X1162954D01*
X1215105Y1730965D02*
X1217862Y1728208D01*
X1288890Y1706880D02*
X1386172D01*
X1217862Y1702239D02*
Y1728208D01*
X1420485Y704807D02*
X1440223D01*
X1419215Y703537D02*
X1420485Y704807D01*
X1419215Y691032D02*
Y703537D01*
X1440223Y704807D02*
X1455420Y689610D01*
X1473463D01*
X1501910Y718057D01*
X1502410D01*
X1418870Y690687D02*
X1419215Y691032D01*
X2188883Y1527810D02*
X2239010D01*
X2178360Y1538333D02*
X2188883Y1527810D01*
X2171360Y1538333D02*
X2178360D01*
X2094750Y1518860D02*
Y1519210D01*
X2101173Y1525633D02*
X2128860D01*
X2094750Y1519210D02*
X2101173Y1525633D01*
X1212850Y1757680D02*
Y1788305D01*
X1184910D02*
X1186180Y1787035D01*
Y1758950D02*
X1187450Y1757680D01*
X1186180Y1758950D02*
Y1787035D01*
X1238250Y1757680D02*
Y1788305D01*
X1289050Y1757680D02*
Y1788305D01*
X1048120Y1542650D02*
X1069340D01*
X1770810Y1004450D02*
Y1029940D01*
X1773350Y1032480D01*
X1589205Y703537D02*
X1592140D01*
X1574030Y688285D02*
X1582790Y697045D01*
X1589205Y706473D02*
Y723045D01*
X1684283Y718307D02*
X1684783D01*
X1684283Y704807D02*
X1684783D01*
X1703260Y679450D02*
X1728520D01*
X1690260D02*
Y679950D01*
X1684783Y718307D02*
X1693804Y727329D01*
X1643380Y703537D02*
X1662037D01*
X1643380Y716538D02*
X1643725Y716882D01*
X1648475D01*
X1684783Y704807D02*
X1700915Y688675D01*
Y681795D02*
X1703260Y679450D01*
X1728520D02*
X1729790Y678180D01*
X1700915Y681795D02*
Y688675D01*
X1694449Y727329D02*
X1703220Y736100D01*
X1710340Y728980D02*
X1729790D01*
X1703220Y736100D02*
Y736600D01*
Y736100D02*
X1710340Y728980D01*
X1693804Y727329D02*
X1694449D01*
X1592140Y703537D02*
X1599380D01*
X1589205Y723045D02*
X1597715Y731555D01*
Y777185D01*
X1582790Y697045D02*
Y697122D01*
X1589205Y703537D01*
Y706473D02*
X1592140Y703537D01*
X1595120Y779780D02*
X1597715Y777185D01*
X1573530Y688285D02*
X1574030D01*
X1668192Y736600D02*
X1690220D01*
X1648475Y716882D02*
X1668192Y736600D01*
X1643380Y710038D02*
X1655538D01*
X1664470Y718970D01*
X1664970D01*
X1664470Y705970D02*
X1664970D01*
X1662037Y703537D02*
X1664470Y705970D01*
X1643380Y697038D02*
X1673172D01*
X1690260Y679950D01*
X1396570Y748737D02*
X1405525Y739783D01*
Y735032D02*
X1405870Y734687D01*
X1425370D02*
X1425715Y735032D01*
X1412025D02*
Y755285D01*
X1425715Y735032D02*
Y739783D01*
X1405525Y735032D02*
Y739783D01*
X1396570Y748737D02*
Y778360D01*
X1411660Y755650D02*
X1412025Y755285D01*
Y735032D02*
X1412370Y734687D01*
X1418870D02*
Y749360D01*
X1424660Y755150D02*
Y755650D01*
X1418870Y749360D02*
X1424660Y755150D01*
X1432655Y746722D02*
Y778360D01*
X1425715Y739783D02*
X1432655Y746722D01*
X1069340Y803610D02*
X1069840D01*
X1068840D02*
X1069340D01*
X1060050Y671740D02*
Y682455D01*
Y671240D02*
Y671740D01*
X1085805Y707365D02*
X1092180Y713740D01*
X1054388Y704536D02*
Y712247D01*
X1055435Y734772D02*
Y739522D01*
X1069840Y803610D02*
X1089190Y822960D01*
X1061935Y739522D02*
X1062280Y739867D01*
X1075280Y735118D02*
Y739867D01*
X1075643Y702283D02*
X1076143D01*
X1060050Y671240D02*
X1068350Y662940D01*
X1052875Y713760D02*
X1054388Y712247D01*
X1073300Y719825D02*
Y720325D01*
X1055435Y739522D02*
X1055780Y739867D01*
X1068350Y662940D02*
X1117078D01*
X1085805Y698944D02*
Y707365D01*
X1076143Y689282D02*
X1085805Y698944D01*
X1073550Y671740D02*
X1074596Y672787D01*
X1092180Y713740D02*
X1117078D01*
X1074596Y688236D02*
X1075643Y689282D01*
X1074596Y672787D02*
Y688236D01*
X1075643Y689282D02*
X1076143D01*
X1056640D02*
X1057140D01*
X1059485Y683020D02*
Y686937D01*
Y683020D02*
X1060050Y682455D01*
X1057140Y689282D02*
X1059485Y686937D01*
X1062280Y797049D02*
X1068840Y803610D01*
X1089190Y822960D02*
X1092200D01*
X1062280Y783867D02*
Y797049D01*
X1075280Y735118D02*
X1080725Y729672D01*
X1076143Y702283D02*
X1080725Y706865D01*
Y729672D01*
X1068780Y724844D02*
X1073300Y720325D01*
X1068780Y724844D02*
Y739867D01*
X1060300Y719825D02*
X1061935Y721460D01*
Y739522D01*
X1052875Y713760D02*
Y732212D01*
X1055435Y734772D01*
X1054388Y704536D02*
X1056640Y702283D01*
X1396570Y791360D02*
X1397070D01*
X1405490Y799780D01*
Y811530D01*
X1432155Y791360D02*
X1432655D01*
X1429810Y793705D02*
X1432155Y791360D01*
X1429810Y793705D02*
Y800210D01*
X1418990Y811030D02*
X1429810Y800210D01*
X1418990Y811030D02*
Y811530D01*
X1425780Y827323D02*
Y830322D01*
X1420703Y822245D02*
X1425780Y827323D01*
X1420703Y813242D02*
Y822245D01*
X1418990Y811530D02*
X1420703Y813242D01*
X1405490Y811530D02*
Y812030D01*
X1400380Y817140D02*
X1405490Y812030D01*
X1400380Y817140D02*
Y830322D01*
D120*
X1413763Y655798D02*
X1604130D01*
X1413763D02*
X1423380Y665416D01*
X1162798Y642620D02*
X2107899D01*
X978517D02*
X1162798D01*
X874560Y717550D02*
X903587D01*
X978517Y642620D01*
X1117078Y688340D02*
X1162798Y642620D01*
X2107899D02*
X2210340Y745060D01*
X2170020Y1375820D02*
X2239010Y1444810D01*
X2132785Y1338585D02*
X2170020Y1375820D01*
X1997710Y1294226D02*
Y1378566D01*
X2002174Y1383030D01*
X2162810D01*
X2170020Y1375820D01*
X2090192Y1237208D02*
X2129790Y1197610D01*
X2054728Y1237208D02*
X2090192D01*
X1997710Y1294226D02*
X2054728Y1237208D01*
X2210340Y745060D02*
Y1111980D01*
X2239010Y1500877D02*
Y1502150D01*
X2224493Y1516667D02*
X2239010Y1502150D01*
X2224493Y1516667D02*
Y1519210D01*
X2208530Y1546103D02*
X2209030D01*
X2216800Y1538333D01*
X2221230D01*
X1362058Y655798D02*
X1413763D01*
X1346280Y671576D02*
X1362058Y655798D01*
X1346280Y671576D02*
Y835514D01*
X1423380Y668600D02*
X1424070Y669290D01*
X1349256Y838490D02*
X1351940D01*
X1423380Y665416D02*
Y668600D01*
X1346280Y835514D02*
X1349256Y838490D01*
X949960Y1289050D02*
Y1310640D01*
X899960Y1398740D02*
Y1600748D01*
Y1398740D02*
X911860Y1386840D01*
X923542Y767080D02*
Y1199132D01*
X929640Y1205230D01*
X2128970Y1334770D02*
X2132225D01*
X2132785Y1335330D01*
Y1338585D01*
X2239010Y1444810D02*
Y1500877D01*
X1935466Y905510D02*
X2002268Y838708D01*
X1807210Y905510D02*
X1935466D01*
X1554480Y1112619D02*
X1615020D01*
X1681480Y1046160D01*
X1935466Y905510D02*
Y1028076D01*
X1186180Y1295400D02*
X1290320D01*
X1120140Y1229360D02*
X1186180Y1295400D01*
X1357630Y1283970D02*
X1488440Y1153160D01*
Y1112520D02*
Y1153160D01*
X1727200Y985520D02*
X1807210Y905510D01*
X2002268Y831370D02*
X2080260Y753378D01*
X989330Y1268730D02*
X1054100D01*
X1076960Y1245870D01*
X822750Y1313180D02*
X925830D01*
X949960Y1289050D01*
X2185670Y1136650D02*
X2210340Y1111980D01*
X1959610Y1004540D02*
X1960260Y1003890D01*
X1999600D01*
X1935466Y1028076D02*
X1939930Y1032540D01*
X1959610D01*
X2105560Y864770D02*
X2118360D01*
X2098040Y857250D02*
X2105560Y864770D01*
X2098040Y807720D02*
Y857250D01*
X2152382Y753378D02*
X2190260D01*
X2098040Y807720D02*
X2152382Y753378D01*
X2061210Y1550830D02*
Y1551385D01*
Y1550830D02*
X2061330Y1550950D01*
X2092840D01*
X2092960Y1551070D01*
X2015490Y1597105D02*
Y1597660D01*
X1702325Y704450D02*
X1702760Y704015D01*
X1729355D01*
X1729790Y703580D01*
X1599380Y685938D02*
Y696207D01*
X1565294Y705387D02*
X1574110D01*
X1560830Y698500D02*
Y700924D01*
X1565294Y705387D01*
X1574110D02*
X1574800Y706077D01*
X1050290Y790987D02*
Y804780D01*
Y790987D02*
X1054220Y787057D01*
X838200Y1844040D02*
X878060D01*
X885750Y1851730D01*
Y1852930D01*
X2002268Y831370D02*
Y838708D01*
X507860Y906640D02*
X508000Y906500D01*
X494170Y906640D02*
X507860D01*
X494030Y906780D02*
X494170Y906640D01*
X558800Y906500D02*
Y930910D01*
X609600Y906500D02*
Y928370D01*
X660400Y906500D02*
Y930910D01*
X1184910Y1801305D02*
X1212850D01*
X1238250D01*
X1167320D02*
X1184910D01*
X1157605Y1811020D02*
X1167320Y1801305D01*
X1003300Y1938020D02*
X1108710Y1832610D01*
X962660Y1938020D02*
X1003300D01*
X2192100Y1512933D02*
X2198270D01*
X2192100D02*
X2194640Y1510393D01*
X2171360Y1512933D02*
X2192100D01*
X2194640Y1479819D02*
Y1481102D01*
Y1479819D02*
X2198270Y1476190D01*
Y1473200D02*
Y1476190D01*
X2221230Y1489710D02*
X2224493D01*
X2235660Y1500877D01*
X2239010D01*
X2194640Y1481102D02*
Y1510393D01*
X1358900Y842410D02*
X1408616D01*
X1413080Y830322D02*
Y837946D01*
X1408616Y842410D02*
X1413080Y837946D01*
X1096010Y690080D02*
X1096700Y689390D01*
X1116028D01*
X1117078Y688340D01*
X2171360Y1551033D02*
X2172170Y1550223D01*
X2188670D01*
X2192100Y1546792D01*
X2207840D01*
X2208530Y1546103D01*
X2198270Y1512933D02*
X2204220Y1506983D01*
X2204720D01*
X1090930Y1976520D02*
Y2006570D01*
X933450Y1967230D02*
Y1984860D01*
X1767897Y1976578D02*
X1767955Y1976520D01*
X1767897Y1976578D02*
Y2007783D01*
X1767840Y2007840D02*
X1767897Y2007783D01*
X1993970Y2002000D02*
X1994700Y2002730D01*
X1993970Y1973400D02*
Y2002000D01*
X1993280Y1972710D02*
X1993970Y1973400D01*
X1993240Y1972710D02*
X1993280D01*
X2220760D02*
Y2007840D01*
X1545000Y1977111D02*
X1545590Y1976520D01*
X1545000Y1977111D02*
Y2004710D01*
X1544409Y2005300D02*
X1545000Y2004710D01*
X1316990Y1976520D02*
Y2007840D01*
X933450Y1967230D02*
X962660Y1938020D01*
X1090460Y2103120D02*
X1090695Y2102885D01*
Y2034805D02*
X1090930Y2034570D01*
X1088790Y2101450D02*
X1090460Y2103120D01*
D121*
X952500Y1344930D02*
Y1383566D01*
X942340Y1563257D02*
X981710Y1602627D01*
X942340Y1393726D02*
Y1563257D01*
Y1393726D02*
X952500Y1383566D01*
X981710Y1602627D02*
Y1785620D01*
X633445Y1036290D02*
X634365Y1035370D01*
Y999135D02*
X635000Y998500D01*
X684530Y999770D02*
Y1036290D01*
X631190D02*
X633445D01*
X634365Y999135D02*
Y1035370D01*
X584200Y998500D02*
Y1036290D01*
X532130Y999770D02*
Y1036290D01*
X684530Y1064290D02*
Y1087090D01*
X633730Y1064290D02*
Y1087090D01*
X584200Y1064290D02*
Y1087090D01*
X532130Y1064290D02*
Y1087090D01*
D122*
X749955Y1993160D02*
Y2005330D01*
X749840Y1993045D02*
X749955Y1993160D01*
X555550Y1606550D02*
X561900Y1600200D01*
X540868Y1606550D02*
X555550D01*
X676910Y2017170D02*
Y2035810D01*
X674370Y2014630D02*
X676910Y2017170D01*
X1116222Y1590294D02*
X1117600Y1588916D01*
Y1582820D02*
Y1588916D01*
X1116330Y1581550D02*
X1117600Y1582820D01*
X1046480Y1572290D02*
X1061720D01*
X2204720Y1493483D02*
X2205407Y1492796D01*
Y1483421D02*
Y1492796D01*
X2208530Y1559603D02*
X2208573Y1559560D01*
X2218690D01*
X2172970Y1219200D02*
Y1243110D01*
X660400Y998500D02*
Y1018540D01*
X609600Y998500D02*
Y1018540D01*
X558800Y998500D02*
Y1018540D01*
X508000Y998500D02*
Y1018540D01*
X452120Y967740D02*
X468630D01*
X402928Y1356360D02*
X425450D01*
X402590Y1356698D02*
X402928Y1356360D01*
X726663Y1992930D02*
X735023D01*
X735137Y1993045D01*
X749840D01*
X858067Y1916430D02*
Y1931810D01*
X1377315Y1603375D02*
X1377950Y1604010D01*
X1348505Y1603375D02*
X1377315D01*
X1347870Y1602740D02*
X1348505Y1603375D01*
X402590Y1268390D02*
Y1356698D01*
X2171360Y1563733D02*
X2203900D01*
X2208030Y1559603D01*
X2208530D01*
X1116330Y1568050D02*
X1135380D01*
D123*
X416560Y2023110D02*
Y2048910D01*
D124*
X635000Y903750D02*
Y906500D01*
X542290Y717550D02*
Y861840D01*
X685800Y906500D02*
X735610D01*
X924560Y717550D01*
X635000Y903750D02*
X746760Y791990D01*
Y717550D02*
Y791990D01*
X584200Y903750D02*
Y906500D01*
X542290Y861840D02*
X584200Y903750D01*
X533400Y877100D02*
Y906500D01*
X373850Y717550D02*
X533400Y877100D01*
X2220760Y2035840D02*
Y2103120D01*
X1994700Y2030730D02*
Y2103932D01*
X1768240Y2103533D02*
X1768640Y2103932D01*
X1768240Y2036125D02*
Y2103533D01*
X1767955Y2035840D02*
X1768240Y2036125D01*
X1767840Y2035840D02*
X1767955D01*
X1544124Y2033585D02*
X1544409Y2033300D01*
X1544124Y2033585D02*
Y2102388D01*
X1542580Y2103932D02*
X1544124Y2102388D01*
X1090695Y2034805D02*
Y2102885D01*
X1316520Y2103120D02*
X1316755Y2102885D01*
Y2036075D02*
Y2102885D01*
Y2036075D02*
X1316990Y2035840D01*
D125*
X2286000Y670560D02*
D03*
Y1817370D02*
D03*
X294640Y1784350D02*
D03*
Y872490D02*
D03*
D126*
X695160Y2098040D02*
D03*
X1140460Y2103120D02*
D03*
X2270760D02*
D03*
X2044700Y2103932D02*
D03*
X1818640D02*
D03*
X1592580D02*
D03*
X1366520Y2103120D02*
D03*
X874560Y717550D02*
D03*
X696760D02*
D03*
X492290D02*
D03*
X323850D02*
D03*
D127*
X645160Y2098040D02*
D03*
X1090460Y2103120D02*
D03*
X2220760D02*
D03*
X1994700Y2103932D02*
D03*
X1768640D02*
D03*
X1542580D02*
D03*
X1316520Y2103120D02*
D03*
X309880Y2045991D02*
D03*
Y1890560D02*
D03*
X313690Y1298740D02*
D03*
X924560Y717550D02*
D03*
X746760D02*
D03*
X542290D02*
D03*
X373850D02*
D03*
D128*
X2190260Y753378D02*
D03*
X696760Y1600748D02*
D03*
X798360D02*
D03*
X899960D02*
D03*
X772960Y1397548D02*
D03*
X823760D02*
D03*
X1479550Y1470152D02*
D03*
X2284000Y1506580D02*
D03*
D129*
X2080260Y753378D02*
D03*
D130*
X309880Y2095992D02*
D03*
Y1940560D02*
D03*
X313690Y1348740D02*
D03*
D131*
X1187450Y1757680D02*
D03*
X1212850D02*
D03*
X1238250D02*
D03*
X1263650D02*
D03*
X1289050D02*
D03*
X1137080Y1348740D02*
D03*
X1162480D02*
D03*
X1187880D02*
D03*
X1213280D02*
D03*
X1238680D02*
D03*
X1264080D02*
D03*
X1289480D02*
D03*
X1314880D02*
D03*
X1340280D02*
D03*
X1365680D02*
D03*
X1391080D02*
D03*
X1416480D02*
D03*
D132*
X1314450Y1757680D02*
D03*
X1111680Y1348740D02*
D03*
D133*
X1247879Y662940D02*
D03*
Y688340D02*
D03*
Y713740D02*
D03*
Y739140D02*
D03*
X1117078Y662940D02*
D03*
Y688340D02*
D03*
Y713740D02*
D03*
D134*
Y739140D02*
D03*
D135*
X447350Y1427800D02*
D03*
X507350Y1447800D02*
D03*
Y1569800D02*
D03*
X387350Y1447800D02*
D03*
D136*
X431800Y1849790D02*
D03*
X609600Y1875190D02*
D03*
Y1951390D02*
D03*
D137*
X469900Y1722790D02*
D03*
X571500D02*
D03*
D138*
X2129790Y1197610D02*
D03*
X2185670Y1136650D02*
D03*
X1381760Y1490830D02*
D03*
X1562100Y1592580D02*
D03*
X1581467D02*
D03*
X1600835D02*
D03*
X1620202D02*
D03*
X1639570D02*
D03*
Y1544320D02*
D03*
X1620202D02*
D03*
X1600835D02*
D03*
X1581467D02*
D03*
X1562100D02*
D03*
X2224493Y1519210D02*
D03*
X2221230Y1538333D02*
D03*
X1084580Y946150D02*
D03*
X1059180D02*
D03*
X1188435Y1691640D02*
D03*
X911860Y1386840D02*
D03*
X929640Y1205230D02*
D03*
X654083Y1490980D02*
D03*
X1146706Y1495806D02*
D03*
X642620Y1414780D02*
D03*
X1386172Y1706880D02*
D03*
X1377950Y1651657D02*
D03*
X1162616Y1667510D02*
D03*
X2190260Y874703D02*
D03*
X1248435Y1722270D02*
D03*
X1195070D02*
D03*
X1300494Y1801305D02*
D03*
X1018540Y1245870D02*
D03*
X981710Y1308100D02*
D03*
X2061330Y1309370D02*
D03*
X1398270Y1510030D02*
D03*
X1422400D02*
D03*
X1386840Y1483220D02*
D03*
X1372870Y1468120D02*
D03*
X1325063Y1510030D02*
D03*
X1336942D02*
D03*
X1335898Y1430195D02*
D03*
X1314880Y1432560D02*
D03*
X1727200Y985520D02*
D03*
X1681480Y1046160D02*
D03*
X1554480Y1112619D02*
D03*
X1488440Y1112520D02*
D03*
X1357630Y1283970D02*
D03*
X1290320Y1295400D02*
D03*
X1120140Y1229360D02*
D03*
X1076960Y1245870D02*
D03*
X989330Y1268730D02*
D03*
X949960Y1289050D02*
D03*
X1361440Y1619250D02*
D03*
X381000Y1289390D02*
D03*
X749955Y2005330D02*
D03*
X1572260Y1023740D02*
D03*
X1488440Y1023620D02*
D03*
X1979520Y949470D02*
D03*
X2056160Y1008380D02*
D03*
X2137410Y890270D02*
D03*
X956310Y1757680D02*
D03*
X967740D02*
D03*
X871870Y1760220D02*
D03*
X862330D02*
D03*
X1135380Y1515830D02*
D03*
X1117600D02*
D03*
X1135380Y1590040D02*
D03*
X1116222Y1590294D02*
D03*
X1061720Y1572290D02*
D03*
X2205407Y1483421D02*
D03*
X2218690Y1559560D02*
D03*
X2128970Y1487533D02*
D03*
X2074730Y1519029D02*
D03*
X2080260Y1537570D02*
D03*
X1717040Y715010D02*
D03*
X1720850Y768350D02*
D03*
X1599380Y685938D02*
D03*
X1560830Y698500D02*
D03*
Y719577D02*
D03*
X1563370Y737870D02*
D03*
X1387157Y663418D02*
D03*
X1372870Y689610D02*
D03*
X1356360Y817140D02*
D03*
X859790Y1981965D02*
D03*
X893782Y1929765D02*
D03*
X1298455Y1430195D02*
D03*
X1282300Y1432560D02*
D03*
X1331967Y1535830D02*
D03*
X1350010D02*
D03*
X1153160Y1448409D02*
D03*
X1036320Y818280D02*
D03*
X1102360Y810260D02*
D03*
X1094740Y775970D02*
D03*
X1295882Y1593692D02*
D03*
X1024410Y1388110D02*
D03*
X1124712Y1447923D02*
D03*
X1153160Y1461770D02*
D03*
X1157605Y1811020D02*
D03*
X1108710Y1832610D02*
D03*
X1367790Y1535830D02*
D03*
X1116330Y1450495D02*
D03*
X858067Y1916430D02*
D03*
X1607820Y728980D02*
D03*
X1377950Y1604010D02*
D03*
X1169670Y1515830D02*
D03*
X425450Y1356360D02*
D03*
X1310640Y1484884D02*
D03*
X1773174Y1447292D02*
D03*
X1300988Y1484884D02*
D03*
X412140Y1309116D02*
D03*
X1278636Y1505204D02*
D03*
X1531366Y909320D02*
D03*
X1212850Y1555830D02*
D03*
X1289050Y1670558D02*
D03*
X1288288Y1613916D02*
D03*
X1314450Y1627632D02*
D03*
X1088898Y1439926D02*
D03*
X1178560Y1435608D02*
D03*
X1112416Y1439926D02*
D03*
X1124712Y1666494D02*
D03*
X1142970Y1655542D02*
D03*
X598424Y1122680D02*
D03*
X1326896Y1281684D02*
D03*
X2198270Y1473200D02*
D03*
X2221230Y1489710D02*
D03*
X1325626Y1585910D02*
D03*
Y1976520D02*
D03*
X1348994Y1590294D02*
D03*
X1505966Y1747266D02*
D03*
X1296708Y1584236D02*
D03*
X2179320Y1972710D02*
D03*
X1541714Y1595454D02*
D03*
X1918970Y1972710D02*
D03*
X1600600Y1976520D02*
D03*
X1188435Y1499362D02*
D03*
X1367028Y1493012D02*
D03*
X1203198Y1513332D02*
D03*
X1536192Y1489710D02*
D03*
X1301750Y1650492D02*
D03*
X2150364Y1551686D02*
D03*
X2087263Y1491234D02*
D03*
X1278435Y1664208D02*
D03*
X1273435Y1654556D02*
D03*
X2114949Y1516380D02*
D03*
X1264158Y1568450D02*
D03*
X2146808Y1468882D02*
D03*
X1248435Y1558265D02*
D03*
X2155952Y1455674D02*
D03*
X1213435Y1450495D02*
D03*
X1195324Y1358646D02*
D03*
X1200192Y1332738D02*
D03*
X1280160Y1370838D02*
D03*
X1284986Y1360558D02*
D03*
X1289029Y1379126D02*
D03*
X1287018Y1494790D02*
D03*
X1275334Y1469136D02*
D03*
D139*
X952500Y1344930D02*
D03*
X949960Y1310640D02*
D03*
X468630Y937260D02*
D03*
X2014220Y1662430D02*
D03*
X2015490Y1597660D02*
D03*
X416560Y2023110D02*
D03*
X540868Y1606550D02*
D03*
X676910Y2035810D02*
D03*
X2172970Y1219200D02*
D03*
X2220760Y1941830D02*
D03*
X1992630Y1939290D02*
D03*
X1768640Y1943100D02*
D03*
X1545590Y1949450D02*
D03*
X1311910D02*
D03*
X1090930Y1944370D02*
D03*
X660400Y930910D02*
D03*
X558800D02*
D03*
X609600Y928370D02*
D03*
X494030Y906780D02*
D03*
X452120Y967740D02*
D03*
X660400Y1018540D02*
D03*
X609600D02*
D03*
X558800D02*
D03*
X508000D02*
D03*
M02*
