G04*
G04 #@! TF.GenerationSoftware,Altium Limited,Altium Designer,20.0.1 (14)*
G04*
G04 Layer_Color=255*
%FSLAX44Y44*%
%MOMM*%
G71*
G01*
G75*
%ADD21R,3.0000X1.6000*%
%ADD22R,6.7000X6.7000*%
%ADD23R,2.0000X0.6000*%
%ADD24C,2.0000*%
%ADD25R,1.2000X1.6500*%
%ADD26R,3.4000X3.7000*%
%ADD27R,0.6000X1.2000*%
%ADD28R,0.8500X0.9500*%
%ADD29R,0.4600X0.6450*%
%ADD30R,1.6500X1.2000*%
%ADD31R,0.9000X1.0000*%
%ADD32R,3.4500X1.8500*%
%ADD33R,1.0000X0.9000*%
%ADD34R,1.6000X3.2000*%
%ADD35R,0.9500X0.8500*%
%ADD36R,2.3000X3.0500*%
%ADD37R,1.5250X0.6500*%
%ADD38R,1.8500X3.0000*%
%ADD39R,0.4300X0.4318*%
%ADD40R,0.3500X0.4572*%
%ADD41R,0.3500X0.4318*%
%ADD42R,1.4000X0.4500*%
%ADD43R,4.2000X2.1000*%
%ADD44R,0.4500X1.4000*%
%ADD45R,1.4500X2.0000*%
%ADD46R,0.7000X0.7500*%
%ADD47R,1.2000X0.4000*%
%ADD48R,1.2000X0.3302*%
%ADD49R,0.8500X1.0000*%
%ADD50R,0.4250X0.3000*%
%ADD51R,1.0000X0.7000*%
%ADD52R,0.3000X1.4750*%
%ADD53R,1.4750X0.3000*%
%ADD54R,1.3500X1.1500*%
%ADD55R,5.7000X1.6000*%
%ADD56R,0.5500X1.0500*%
%ADD57R,1.8000X1.3000*%
%ADD58R,2.1500X2.2000*%
%ADD59R,2.6000X1.2000*%
%ADD60R,0.6000X1.2500*%
%ADD115C,2.0000*%
%ADD125C,5.0000*%
%ADD126R,1.9500X1.9500*%
%ADD127C,1.9500*%
%ADD128C,3.0000*%
%ADD129R,3.0000X3.0000*%
%ADD130R,1.9500X1.9500*%
%ADD131C,1.5000*%
%ADD132R,1.5000X1.5000*%
%ADD133C,1.6000*%
%ADD134R,1.6000X1.6000*%
%ADD135C,2.1000*%
%ADD136C,3.2900*%
%ADD137C,1.7700*%
D21*
X491610Y2089150D02*
D03*
Y2134870D02*
D03*
D22*
X570110Y2112010D02*
D03*
D23*
X2171360Y1563732D02*
D03*
Y1551033D02*
D03*
Y1525632D02*
D03*
Y1487533D02*
D03*
Y1462133D02*
D03*
Y1449433D02*
D03*
X2128860Y1563732D02*
D03*
Y1551033D02*
D03*
Y1525632D02*
D03*
Y1487533D02*
D03*
Y1462133D02*
D03*
Y1449433D02*
D03*
X2171360Y1538333D02*
D03*
Y1512932D02*
D03*
Y1500233D02*
D03*
Y1474832D02*
D03*
X2128860Y1538333D02*
D03*
Y1512932D02*
D03*
Y1500233D02*
D03*
Y1474832D02*
D03*
D24*
X292100Y977900D02*
D03*
Y1706880D02*
D03*
X2296160Y1697990D02*
D03*
Y862330D02*
D03*
D25*
X1353760Y1510830D02*
D03*
X1381760D02*
D03*
X2024350Y969110D02*
D03*
X2052350D02*
D03*
D26*
X1406730Y936823D02*
D03*
D27*
X1425780Y830322D02*
D03*
X1413080D02*
D03*
X1387680D02*
D03*
X1400380D02*
D03*
D28*
X1703220Y736600D02*
D03*
X1690220D02*
D03*
X1703260Y679450D02*
D03*
X1690260D02*
D03*
X1424660Y755650D02*
D03*
X1411660D02*
D03*
X1073300Y719825D02*
D03*
X1060300D02*
D03*
X1220620Y1680210D02*
D03*
X1207620D02*
D03*
X2239010Y1527810D02*
D03*
X2252010D02*
D03*
D29*
X2004600Y977800D02*
D03*
X1994600D02*
D03*
X1999600Y962760D02*
D03*
X2113360Y849730D02*
D03*
X2123360D02*
D03*
X2118360Y864770D02*
D03*
D30*
X1959610Y1004540D02*
D03*
Y1032540D02*
D03*
X2000250Y1003240D02*
D03*
Y1031240D02*
D03*
X2172970Y848330D02*
D03*
Y876330D02*
D03*
X1767840Y2007840D02*
D03*
Y2035840D02*
D03*
X1544409Y2005300D02*
D03*
Y2033300D02*
D03*
X1994700Y2002730D02*
D03*
Y2030730D02*
D03*
X2220760Y2007840D02*
D03*
Y2035840D02*
D03*
X1316990Y2007840D02*
D03*
Y2035840D02*
D03*
X1090930Y2006570D02*
D03*
Y2034570D02*
D03*
X684530Y1064290D02*
D03*
Y1036290D02*
D03*
X633730Y1064290D02*
D03*
Y1036290D02*
D03*
X584200Y1064290D02*
D03*
Y1036290D02*
D03*
Y1115090D02*
D03*
Y1087090D02*
D03*
X532130Y1064290D02*
D03*
Y1036290D02*
D03*
Y1115090D02*
D03*
Y1087090D02*
D03*
X1109140Y1094770D02*
D03*
Y1066770D02*
D03*
X1046480Y1572290D02*
D03*
Y1544290D02*
D03*
X684530Y1087090D02*
D03*
Y1115090D02*
D03*
X633730Y1087090D02*
D03*
Y1115090D02*
D03*
X1773350Y1032480D02*
D03*
Y1060480D02*
D03*
X859790Y1998980D02*
D03*
Y1970980D02*
D03*
D31*
X1405490Y811530D02*
D03*
X1418990D02*
D03*
X1576540Y737870D02*
D03*
X1590040D02*
D03*
X1410570Y669290D02*
D03*
X1424070D02*
D03*
X1060050Y671740D02*
D03*
X1073550D02*
D03*
X1334370Y1602740D02*
D03*
X1347870D02*
D03*
X1173080Y1677670D02*
D03*
X1186580D02*
D03*
X1173080Y1658620D02*
D03*
X1186580D02*
D03*
X1313223Y1443990D02*
D03*
X1299723D02*
D03*
X1313223Y1463040D02*
D03*
X1299723D02*
D03*
X1178960Y1443990D02*
D03*
X1165460D02*
D03*
X1178960Y1463040D02*
D03*
X1165460D02*
D03*
X721760Y2011680D02*
D03*
X708260D02*
D03*
D32*
X764750Y1313180D02*
D03*
X822750D02*
D03*
D33*
X1545590Y1976520D02*
D03*
Y1963020D02*
D03*
X1280160Y1446130D02*
D03*
Y1459630D02*
D03*
X861060Y1784750D02*
D03*
Y1771250D02*
D03*
X2204720Y1506983D02*
D03*
Y1493483D02*
D03*
X2092960Y1551070D02*
D03*
Y1537570D02*
D03*
X1767955Y1976520D02*
D03*
Y1963020D02*
D03*
X1993240Y1972710D02*
D03*
Y1959210D02*
D03*
X2220760Y1972710D02*
D03*
Y1959210D02*
D03*
X1316990Y1976520D02*
D03*
Y1963020D02*
D03*
X1090930Y1976520D02*
D03*
Y1963020D02*
D03*
X1702325Y717950D02*
D03*
Y704450D02*
D03*
X1684283Y718307D02*
D03*
Y704807D02*
D03*
X1574800Y719577D02*
D03*
Y706077D02*
D03*
X1386410Y676510D02*
D03*
Y690010D02*
D03*
X1094740Y785730D02*
D03*
Y799230D02*
D03*
X1356360Y842410D02*
D03*
Y828910D02*
D03*
X1050290Y818280D02*
D03*
Y804780D02*
D03*
X1096010Y690080D02*
D03*
Y703580D02*
D03*
X1133722Y1472330D02*
D03*
Y1458830D02*
D03*
X1115680Y1472330D02*
D03*
Y1458830D02*
D03*
X1069340Y1542650D02*
D03*
Y1556150D02*
D03*
X1331705Y1565040D02*
D03*
Y1551540D02*
D03*
X1349747Y1565040D02*
D03*
Y1551540D02*
D03*
X1367790Y1565040D02*
D03*
Y1551540D02*
D03*
X1331967Y1634533D02*
D03*
Y1621033D02*
D03*
X1350010Y1634533D02*
D03*
Y1621033D02*
D03*
X1117600Y1538370D02*
D03*
Y1524870D02*
D03*
X1135643Y1538370D02*
D03*
Y1524870D02*
D03*
X1116330Y1568050D02*
D03*
Y1581550D02*
D03*
X1135380Y1568050D02*
D03*
Y1581550D02*
D03*
X2208530Y1559603D02*
D03*
Y1546103D02*
D03*
X963930Y1768310D02*
D03*
Y1781810D02*
D03*
D34*
X416560Y2098910D02*
D03*
Y2048910D02*
D03*
D35*
X1130300Y1601320D02*
D03*
Y1614320D02*
D03*
X1664970Y705970D02*
D03*
Y718970D02*
D03*
X1573530Y688285D02*
D03*
Y675285D02*
D03*
X1069340Y803610D02*
D03*
Y816610D02*
D03*
X1396570Y791360D02*
D03*
Y778360D02*
D03*
X1432655Y791360D02*
D03*
Y778360D02*
D03*
X1075643Y689282D02*
D03*
Y702283D02*
D03*
X1056640Y689282D02*
D03*
Y702283D02*
D03*
X1212850Y1788305D02*
D03*
Y1801305D02*
D03*
X1184910Y1788305D02*
D03*
Y1801305D02*
D03*
X1209040Y1710540D02*
D03*
Y1723540D02*
D03*
X1079500Y1455570D02*
D03*
Y1442570D02*
D03*
X1132840Y1503830D02*
D03*
Y1490830D02*
D03*
X1502410Y705057D02*
D03*
Y718057D02*
D03*
X1238250Y1801305D02*
D03*
Y1788305D02*
D03*
X1289050Y1801305D02*
D03*
Y1788305D02*
D03*
X933450Y1984860D02*
D03*
Y1997860D02*
D03*
X468630Y967740D02*
D03*
Y954740D02*
D03*
D36*
X885750Y1852930D02*
D03*
X955750D02*
D03*
X631900Y1600200D02*
D03*
X561900D02*
D03*
X403150Y1357258D02*
D03*
X473150D02*
D03*
D37*
X886010Y1785620D02*
D03*
Y1772920D02*
D03*
Y1760220D02*
D03*
Y1747520D02*
D03*
X940250D02*
D03*
Y1760220D02*
D03*
Y1772920D02*
D03*
Y1785620D02*
D03*
X2128970Y1334770D02*
D03*
Y1322070D02*
D03*
Y1309370D02*
D03*
Y1296670D02*
D03*
X2074730D02*
D03*
Y1309370D02*
D03*
Y1322070D02*
D03*
Y1334770D02*
D03*
D38*
X2029460Y1293910D02*
D03*
Y1329910D02*
D03*
X2172970Y1243110D02*
D03*
Y1279110D02*
D03*
D39*
X2094750Y1518860D02*
D03*
D40*
X2083150D02*
D03*
Y1511360D02*
D03*
D41*
X2095150D02*
D03*
D42*
X1599380Y697038D02*
D03*
Y703537D02*
D03*
Y710038D02*
D03*
Y716538D02*
D03*
X1643380D02*
D03*
Y710038D02*
D03*
Y703537D02*
D03*
Y697038D02*
D03*
D43*
X756750Y1677670D02*
D03*
X830750D02*
D03*
D44*
X1425370Y690687D02*
D03*
X1418870D02*
D03*
X1412370D02*
D03*
X1405870D02*
D03*
Y734687D02*
D03*
X1412370D02*
D03*
X1418870D02*
D03*
X1425370D02*
D03*
X1055780Y783867D02*
D03*
X1062280D02*
D03*
X1068780D02*
D03*
X1075280D02*
D03*
Y739867D02*
D03*
X1068780D02*
D03*
X1062280D02*
D03*
X1055780D02*
D03*
D45*
X685800Y998500D02*
D03*
X660400D02*
D03*
X635000D02*
D03*
X609600D02*
D03*
X584200D02*
D03*
X558800D02*
D03*
X533400D02*
D03*
X508000D02*
D03*
Y906500D02*
D03*
X533400D02*
D03*
X558800D02*
D03*
X584200D02*
D03*
X609600D02*
D03*
X635000D02*
D03*
X660400D02*
D03*
X685800D02*
D03*
D46*
X1770810Y1004450D02*
D03*
Y989450D02*
D03*
X1106600Y1038740D02*
D03*
Y1023740D02*
D03*
X885190Y1998980D02*
D03*
Y1983980D02*
D03*
D47*
X1278790Y1722270D02*
D03*
Y1709270D02*
D03*
D48*
X1259790D02*
D03*
Y1715770D02*
D03*
Y1722270D02*
D03*
D49*
X1080390Y1473200D02*
D03*
X1096390D02*
D03*
D50*
X1013670Y1388110D02*
D03*
X1007420D02*
D03*
D51*
X1024410Y1417870D02*
D03*
X964410D02*
D03*
X1024410Y1454870D02*
D03*
X964410D02*
D03*
D52*
X1173435Y1638210D02*
D03*
X1178435D02*
D03*
X1183435D02*
D03*
X1188435D02*
D03*
X1193435D02*
D03*
X1198435D02*
D03*
X1203435D02*
D03*
X1208435D02*
D03*
X1213435D02*
D03*
X1218435D02*
D03*
X1223435D02*
D03*
X1228435D02*
D03*
X1233435D02*
D03*
X1238435D02*
D03*
X1243435D02*
D03*
X1248435D02*
D03*
X1253435D02*
D03*
X1258435D02*
D03*
X1263435D02*
D03*
X1268435D02*
D03*
X1273435D02*
D03*
X1278435D02*
D03*
X1283435D02*
D03*
X1288435D02*
D03*
X1293435D02*
D03*
Y1483450D02*
D03*
X1288435D02*
D03*
X1283435D02*
D03*
X1278435D02*
D03*
X1273435D02*
D03*
X1268435D02*
D03*
X1263435D02*
D03*
X1258435D02*
D03*
X1253435D02*
D03*
X1248435D02*
D03*
X1243435D02*
D03*
X1238435D02*
D03*
X1233435D02*
D03*
X1228435D02*
D03*
X1223435D02*
D03*
X1218435D02*
D03*
X1213435D02*
D03*
X1208435D02*
D03*
X1203435D02*
D03*
X1198435D02*
D03*
X1193435D02*
D03*
X1188435D02*
D03*
X1183435D02*
D03*
X1178435D02*
D03*
X1173435D02*
D03*
D53*
X1310815Y1620830D02*
D03*
Y1615830D02*
D03*
Y1610830D02*
D03*
Y1605830D02*
D03*
Y1600830D02*
D03*
Y1595830D02*
D03*
Y1590830D02*
D03*
Y1585830D02*
D03*
Y1580830D02*
D03*
Y1575830D02*
D03*
Y1570830D02*
D03*
Y1565830D02*
D03*
Y1560830D02*
D03*
Y1555830D02*
D03*
Y1550830D02*
D03*
Y1545830D02*
D03*
Y1540830D02*
D03*
Y1535830D02*
D03*
Y1530830D02*
D03*
Y1525830D02*
D03*
Y1520830D02*
D03*
Y1515830D02*
D03*
Y1510830D02*
D03*
Y1505830D02*
D03*
Y1500830D02*
D03*
X1156055D02*
D03*
Y1505830D02*
D03*
Y1510830D02*
D03*
Y1515830D02*
D03*
Y1520830D02*
D03*
Y1525830D02*
D03*
Y1530830D02*
D03*
Y1535830D02*
D03*
Y1540830D02*
D03*
Y1545830D02*
D03*
Y1550830D02*
D03*
Y1555830D02*
D03*
Y1560830D02*
D03*
Y1565830D02*
D03*
Y1570830D02*
D03*
Y1575830D02*
D03*
Y1580830D02*
D03*
Y1585830D02*
D03*
Y1590830D02*
D03*
Y1595830D02*
D03*
Y1600830D02*
D03*
Y1605830D02*
D03*
Y1610830D02*
D03*
Y1615830D02*
D03*
Y1620830D02*
D03*
D54*
X880110Y1949310D02*
D03*
Y1931810D02*
D03*
X858067Y1949310D02*
D03*
Y1931810D02*
D03*
D55*
X804998Y1951350D02*
D03*
Y1998350D02*
D03*
D56*
X707662Y1992930D02*
D03*
X717162D02*
D03*
X726663D02*
D03*
Y1966930D02*
D03*
X717162D02*
D03*
X707662D02*
D03*
D57*
X749955Y1964160D02*
D03*
Y1993160D02*
D03*
D58*
X674370Y1970630D02*
D03*
Y2014630D02*
D03*
D59*
X1729790Y754380D02*
D03*
Y728980D02*
D03*
Y703580D02*
D03*
Y678180D02*
D03*
X1894790Y754380D02*
D03*
Y728980D02*
D03*
Y703580D02*
D03*
Y678180D02*
D03*
D60*
X412140Y1289390D02*
D03*
X393040D02*
D03*
X402590Y1268390D02*
D03*
D115*
X2239010Y1500877D02*
D03*
X317500Y1404620D02*
D03*
X345440Y2139950D02*
D03*
X2061210Y1550830D02*
D03*
X1595120Y779780D02*
D03*
X1092200Y822960D02*
D03*
X557530Y2023110D02*
D03*
X962660Y1938020D02*
D03*
X739140Y1940560D02*
D03*
X838200Y1844040D02*
D03*
X1455420Y689610D02*
D03*
X2207260Y1314450D02*
D03*
D125*
X2286000Y670560D02*
D03*
Y1817370D02*
D03*
X294640Y1784350D02*
D03*
Y872490D02*
D03*
D126*
X695160Y2098040D02*
D03*
X1140460Y2103120D02*
D03*
X2270760D02*
D03*
X2044700Y2103932D02*
D03*
X1818640D02*
D03*
X1592580D02*
D03*
X1366520Y2103120D02*
D03*
X874560Y717550D02*
D03*
X696760D02*
D03*
X492290D02*
D03*
X323850D02*
D03*
D127*
X645160Y2098040D02*
D03*
X1090460Y2103120D02*
D03*
X2220760D02*
D03*
X1994700Y2103932D02*
D03*
X1768640D02*
D03*
X1542580D02*
D03*
X1316520Y2103120D02*
D03*
X309880Y2045991D02*
D03*
Y1890560D02*
D03*
X313690Y1298740D02*
D03*
X924560Y717550D02*
D03*
X746760D02*
D03*
X542290D02*
D03*
X373850D02*
D03*
D128*
X2190260Y753378D02*
D03*
X696760Y1600748D02*
D03*
X798360D02*
D03*
X899960D02*
D03*
X772960Y1397548D02*
D03*
X823760D02*
D03*
D129*
X2080260Y753378D02*
D03*
D130*
X309880Y2095992D02*
D03*
Y1940560D02*
D03*
X313690Y1348740D02*
D03*
D131*
X1187450Y1757680D02*
D03*
X1212850D02*
D03*
X1238250D02*
D03*
X1263650D02*
D03*
X1289050D02*
D03*
X1137080Y1348740D02*
D03*
X1162480D02*
D03*
X1187880D02*
D03*
X1213280D02*
D03*
X1238680D02*
D03*
X1264080D02*
D03*
X1289480D02*
D03*
X1314880D02*
D03*
X1340280D02*
D03*
X1365680D02*
D03*
X1391080D02*
D03*
X1416480D02*
D03*
D132*
X1314450Y1757680D02*
D03*
X1111680Y1348740D02*
D03*
D133*
X1247879Y662940D02*
D03*
Y688340D02*
D03*
Y713740D02*
D03*
Y739140D02*
D03*
X1117078Y662940D02*
D03*
Y688340D02*
D03*
Y713740D02*
D03*
D134*
Y739140D02*
D03*
D135*
X447350Y1427800D02*
D03*
X507350Y1447800D02*
D03*
Y1569800D02*
D03*
X387350Y1447800D02*
D03*
D136*
X431800Y1849790D02*
D03*
X609600Y1875190D02*
D03*
Y1951390D02*
D03*
D137*
X469900Y1722790D02*
D03*
X571500D02*
D03*
M02*
