M48
;Layer_Color=9474304
;FILE_FORMAT=4:4
METRIC,LZ
;TYPE=PLATED
T1F00S00C0.2286
T2F00S00C0.4572
T3F00S00C0.8130
T4F00S00C0.9000
T5F00S00C1.1700
T6F00S00C1.3000
T7F00S00C1.4000
T8F00S00C1.5000
T9F00S00C2.0000
T10F00S00C2.1900
T11F00S00C3.0000
T12F00S00C3.4000
%
T01
X0159938Y00685938
X0160782Y0072898
X0171704Y0071501
X0172085Y0076835
X0156337Y0073787
X0156083Y00719577
Y006985
X0137287Y0068961
X01387157Y00663418
X0109474Y0077597
X00598424Y0112268
X0105918Y0094615
X0108458
X0110236Y0081026
X0103632Y0081828
X0135636Y0081714
X01531366Y0090932
X0157226Y0102374
X0148844Y0102362
Y0111252
X0155448Y01112619
X0168148Y0104616
X017272Y0098552
X0197952Y0094947
X0205616Y0100838
X0213741Y0089027
X0219026Y00874703
X0218567Y0113665
X0212979Y0119761
X0206133Y0130937
X02087263Y01491234
X0207473Y01519029
X0208026Y0153757
X02114949Y0151638
X0212897Y01487533
X02146808Y01468882
X02155952Y01455674
X0219827Y014732
X02205407Y01483421
X0222123Y0148971
X02224493Y0151921
X0222123Y01538333
X0221869Y0155956
X02150364Y01551686
X01773174Y01447292
X0163957Y0154432
X01620202
X01600835
X01581467
X015621
X01536192Y0148971
X014224Y0151003
X0139827
X0138176Y0149083
X0138684Y0148322
X0137287Y0146812
X01367028Y01493012
X0136779Y0153583
X0135001
X01331967
X01336942Y0151003
X01325063
X0131064Y01484884
X01300988
X01287018Y0149479
X01278636Y01505204
X01275334Y01469136
X012823Y0143256
X01298455Y01430195
X0131488Y0143256
X01335898Y01430195
X01289029Y01379126
X0128016Y01370838
X01284986Y01360558
X0129032Y012954
X01326896Y01281684
X0135763Y0128397
X01200192Y01332738
X01195324Y01358646
X01213435Y01450495
X01203198Y01513332
X0121285Y0155583
X01248435Y01558265
X01264158Y0156845
X01296708Y01584236
X01325626Y0158591
X01188435Y01499362
X0116967Y0151583
X0113538
X011176
X01146706Y01495806
X0115316Y0146177
Y01448409
X01124712Y01447923
X0111633Y01450495
X01112416Y01439926
X01088898
X0117856Y01435608
X0102441Y0138811
X0091186Y0138684
X0094996Y0128905
X0098171Y013081
X0098933Y0126873
X0101854Y0124587
X0107696
X0112014Y0122936
X0092964Y0120523
X0106172Y0157229
X00654083Y0149098
X0064262Y0141478
X0042545Y0135636
X0041214Y01309116
X00381Y0128939
X0086233Y0176022
X0087187
X0095631Y0175768
X0096774
X0110871Y0183261
X01157605Y0181102
X01162616Y0166751
X0114297Y01655542
X01124712Y01666494
X01116222Y01590294
X0113538Y0159004
X01188435Y0169164
X00893782Y01929765
X00858067Y0191643
X0085979Y01981965
X01325626Y0197652
X01300494Y01801305
X01248435Y0172227
X0119507
X01278435Y01664208
X01273435Y01654556
X0128905Y01670558
X0130175Y01650492
X0131445Y01627632
X01288288Y01613916
X01295882Y01593692
X01348994Y01590294
X0136144Y0161925
X0137795Y0160401
Y01651657
X01386172Y0170688
X01505966Y01747266
X01541714Y01595454
X015621Y0159258
X01581467
X01600835
X01620202
X0163957
X016006Y0197652
X0191897Y0197271
X0217932
X00749955Y0200533
T02
X0049403Y0090678
X0046863Y0093726
X0045212Y0096774
X00508Y0101854
X005588
X006096
X006604
Y0093091
X006096Y0092837
X005588Y0093091
X0217297Y012192
X0094996Y0131064
X009525Y0134493
X00540868Y0160655
X0109093Y0194437
X0131191Y0194945
X0154559
X0176864Y019431
X0199263Y0193929
X0222076Y0194183
X0201422Y0166243
X0201549Y0159766
X0067691Y0203581
X0041656Y0202311
T03
X01247879Y0066294
Y0068834
Y0071374
Y0073914
X01117078
Y0071374
Y0068834
Y0066294
T04
X0121328Y0134874
X0123868
X0126408
X0128948
X0131488
X0134028
X0136568
X0139108
X0141648
X0118788
X0116248
X0113708
X0111168
X0118745Y0175768
X0121285
X0123825
X0126365
X0128905
X0131445
T05
X004699Y0172279
X005715
T06
X0087456Y0071755
X0092456
X0074676
X0069676
X0054229
X0049229
X0037385
X0032385
X0031369Y0129874
Y0134874
X0030988Y0189056
Y0194056
X019947Y02103932
X020447
X0222076Y0210312
X0227076
X0181864Y02103932
X0176864
X0159258
X0154258
X0136652Y0210312
X0131652
X0114046
X0109046
X0069516Y0209804
X0064516
X0030988Y02095992
Y02045991
T07
X0044735Y014278
X0050735Y014478
Y015698
X0038735Y014478
T08
X0208026Y00753378
X0219026
T09
X0082376Y01397548
X0077296
X0069676Y01600748
X0079836
X0089996
T10
X004318Y0184979
X006096Y0187519
Y0195139
T11
X02284Y0150658
X0147955Y01470152
T12
X02286Y0067056
X0029464Y0087249
Y0178435
X02286Y0181737
M30
